  0
SECTION
  2
HEADER
  9
$ACADVER
  1
AC1024
  9
$ACADMAINTVER
 70
     6
  9
$DWGCODEPAGE
  3
UNDEFINED
  9
$INSBASE
 10
0.0
 20
0.0
 30
0.0
  9
$EXTMIN
 10
1.000000000000000E+20
 20
1.000000000000000E+20
 30
1.000000000000000E+20
  9
$EXTMAX
 10
-1.000000000000000E+20
 20
-1.000000000000000E+20
 30
-1.000000000000000E+20
  9
$LIMMIN
 10
0.0
 20
0.0
  9
$LIMMAX
 10
12.0
 20
9.0
  9
$ORTHOMODE
 70
     0
  9
$REGENMODE
 70
     1
  9
$FILLMODE
 70
     1
  9
$QTEXTMODE
 70
     0
  9
$MIRRTEXT
 70
     1
  9
$LTSCALE
 40
1.0
  9
$ATTMODE
 70
     1
  9
$TEXTSIZE
 40
0.2
  9
$TRACEWID
 40
0.05
  9
$TEXTSTYLE
  7
Standard
  9
$CLAYER
  8
0
  9
$CELTYPE
  6
ByLayer
  9
$CECOLOR
 62
   256
  9
$CELTSCALE
 40
1.0
  9
$DISPSILH
 70
     0
  9
$DIMSCALE
 40
1.0
  9
$DIMASZ
 40
0.18
  9
$DIMEXO
 40
0.0625
  9
$DIMDLI
 40
0.38
  9
$DIMRND
 40
0.0
  9
$DIMDLE
 40
0.0
  9
$DIMEXE
 40
0.18
  9
$DIMTP
 40
0.0
  9
$DIMTM
 40
0.0
  9
$DIMTXT
 40
0.18
  9
$DIMCEN
 40
0.09
  9
$DIMTSZ
 40
0.0
  9
$DIMTOL
 70
     0
  9
$DIMLIM
 70
     0
  9
$DIMTIH
 70
     1
  9
$DIMTOH
 70
     1
  9
$DIMSE1
 70
     0
  9
$DIMSE2
 70
     0
  9
$DIMTAD
 70
     0
  9
$DIMZIN
 70
     0
  9
$DIMBLK
  1

  9
$DIMASO
 70
     1
  9
$DIMSHO
 70
     1
  9
$DIMPOST
  1

  9
$DIMAPOST
  1

  9
$DIMALT
 70
     0
  9
$DIMALTD
 70
     2
  9
$DIMALTF
 40
25.4
  9
$DIMLFAC
 40
1.0
  9
$DIMTOFL
 70
     0
  9
$DIMTVP
 40
0.0
  9
$DIMTIX
 70
     0
  9
$DIMSOXD
 70
     0
  9
$DIMSAH
 70
     0
  9
$DIMBLK1
  1

  9
$DIMBLK2
  1

  9
$DIMSTYLE
  2
Standard
  9
$DIMCLRD
 70
     0
  9
$DIMCLRE
 70
     0
  9
$DIMCLRT
 70
     0
  9
$DIMTFAC
 40
1.0
  9
$DIMGAP
 40
0.09
  9
$DIMJUST
 70
     0
  9
$DIMSD1
 70
     0
  9
$DIMSD2
 70
     0
  9
$DIMTOLJ
 70
     1
  9
$DIMTZIN
 70
     0
  9
$DIMALTZ
 70
     0
  9
$DIMALTTZ
 70
     0
  9
$DIMUPT
 70
     0
  9
$DIMDEC
 70
     4
  9
$DIMTDEC
 70
     4
  9
$DIMALTU
 70
     2
  9
$DIMALTTD
 70
     2
  9
$DIMTXSTY
  7
Standard
  9
$DIMAUNIT
 70
     0
  9
$DIMADEC
 70
     0
  9
$DIMALTRND
 40
0.0
  9
$DIMAZIN
 70
     0
  9
$DIMDSEP
 70
    46
  9
$DIMATFIT
 70
     3
  9
$DIMFRAC
 70
     0
  9
$DIMLDRBLK
  1

  9
$DIMLUNIT
 70
     2
  9
$DIMLWD
 70
    -2
  9
$DIMLWE
 70
    -2
  9
$DIMTMOVE
 70
     0
  9
$DIMFXL
 40
1.0
  9
$DIMFXLON
 70
     0
  9
$DIMJOGANG
 40
0.7853981633974483
  9
$DIMTFILL
 70
     0
  9
$DIMTFILLCLR
 70
     0
  9
$DIMARCSYM
 70
     0
  9
$DIMLTYPE
  6

  9
$DIMLTEX1
  6

  9
$DIMLTEX2
  6

  9
$DIMTXTDIRECTION
 70
     0
  9
$LUNITS
 70
     2
  9
$LUPREC
 70
     4
  9
$SKETCHINC
 40
0.1
  9
$FILLETRAD
 40
0.5
  9
$AUNITS
 70
     0
  9
$AUPREC
 70
     0
  9
$MENU
  1
.
  9
$ELEVATION
 40
0.0
  9
$PELEVATION
 40
0.0
  9
$THICKNESS
 40
0.0
  9
$LIMCHECK
 70
     0
  9
$CHAMFERA
 40
0.5
  9
$CHAMFERB
 40
0.5
  9
$CHAMFERC
 40
1.0
  9
$CHAMFERD
 40
0.0
  9
$SKPOLY
 70
     0
  9
$TDCREATE
 40
2459219.002868055
  9
$TDUCREATE
 40
2459219.211201389
  9
$TDUPDATE
 40
2459219.002868183
  9
$TDUUPDATE
 40
2459219.211201516
  9
$TDINDWG
 40
0.0000000116
  9
$TDUSRTIMER
 40
0.0000000116
  9
$USRTIMER
 70
     1
  9
$ANGBASE
 50
0.0
  9
$ANGDIR
 70
     0
  9
$PDMODE
 70
     0
  9
$PDSIZE
 40
0.0
  9
$PLINEWID
 40
0.0
  9
$SPLFRAME
 70
     0
  9
$SPLINETYPE
 70
     6
  9
$SPLINESEGS
 70
     8
  9
$HANDSEED
  5
38F
  9
$SURFTAB1
 70
     6
  9
$SURFTAB2
 70
     6
  9
$SURFTYPE
 70
     6
  9
$SURFU
 70
     6
  9
$SURFV
 70
     6
  9
$UCSBASE
  2

  9
$UCSNAME
  2

  9
$UCSORG
 10
0.0
 20
0.0
 30
0.0
  9
$UCSXDIR
 10
1.0
 20
0.0
 30
0.0
  9
$UCSYDIR
 10
0.0
 20
1.0
 30
0.0
  9
$UCSORTHOREF
  2

  9
$UCSORTHOVIEW
 70
     0
  9
$UCSORGTOP
 10
0.0
 20
0.0
 30
0.0
  9
$UCSORGBOTTOM
 10
0.0
 20
0.0
 30
0.0
  9
$UCSORGLEFT
 10
0.0
 20
0.0
 30
0.0
  9
$UCSORGRIGHT
 10
0.0
 20
0.0
 30
0.0
  9
$UCSORGFRONT
 10
0.0
 20
0.0
 30
0.0
  9
$UCSORGBACK
 10
0.0
 20
0.0
 30
0.0
  9
$PUCSBASE
  2

  9
$PUCSNAME
  2

  9
$PUCSORG
 10
0.0
 20
0.0
 30
0.0
  9
$PUCSXDIR
 10
1.0
 20
0.0
 30
0.0
  9
$PUCSYDIR
 10
0.0
 20
1.0
 30
0.0
  9
$PUCSORTHOREF
  2

  9
$PUCSORTHOVIEW
 70
     0
  9
$PUCSORGTOP
 10
0.0
 20
0.0
 30
0.0
  9
$PUCSORGBOTTOM
 10
0.0
 20
0.0
 30
0.0
  9
$PUCSORGLEFT
 10
0.0
 20
0.0
 30
0.0
  9
$PUCSORGRIGHT
 10
0.0
 20
0.0
 30
0.0
  9
$PUCSORGFRONT
 10
0.0
 20
0.0
 30
0.0
  9
$PUCSORGBACK
 10
0.0
 20
0.0
 30
0.0
  9
$USERI1
 70
     0
  9
$USERI2
 70
     0
  9
$USERI3
 70
     0
  9
$USERI4
 70
     0
  9
$USERI5
 70
     0
  9
$USERR1
 40
0.0
  9
$USERR2
 40
0.0
  9
$USERR3
 40
0.0
  9
$USERR4
 40
0.0
  9
$USERR5
 40
0.0
  9
$WORLDVIEW
 70
     1
  9
$SHADEDGE
 70
     3
  9
$SHADEDIF
 70
    70
  9
$TILEMODE
 70
     1
  9
$MAXACTVP
 70
    64
  9
$PINSBASE
 10
0.0
 20
0.0
 30
0.0
  9
$PLIMCHECK
 70
     0
  9
$PEXTMIN
 10
1.000000000000000E+20
 20
1.000000000000000E+20
 30
1.000000000000000E+20
  9
$PEXTMAX
 10
-1.000000000000000E+20
 20
-1.000000000000000E+20
 30
-1.000000000000000E+20
  9
$PLIMMIN
 10
0.0
 20
0.0
  9
$PLIMMAX
 10
12.0
 20
9.0
  9
$UNITMODE
 70
     0
  9
$VISRETAIN
 70
     1
  9
$PLINEGEN
 70
     0
  9
$PSLTSCALE
 70
     1
  9
$TREEDEPTH
 70
  3020
  9
$CMLSTYLE
  2
Standard
  9
$CMLJUST
 70
     0
  9
$CMLSCALE
 40
1.0
  9
$PROXYGRAPHICS
 70
     1
  9
$MEASUREMENT
 70
     0
  9
$CELWEIGHT
370
    -1
  9
$ENDCAPS
280
     0
  9
$JOINSTYLE
280
     0
  9
$LWDISPLAY
290
     1
  9
$INSUNITS
 70
     4
  9
$HYPERLINKBASE
  1

  9
$STYLESHEET
  1

  9
$XEDIT
290
     1
  9
$CEPSNTYPE
380
     0
  9
$PSTYLEMODE
290
     1
  9
$FINGERPRINTGUID
  2
{1E69D602-F652-41C6-8B19-EFC50201FE62}
  9
$VERSIONGUID
  2
{FAEB1C32-E019-11D5-929B-00C0DF256EC4}
  9
$EXTNAMES
290
     1
  9
$PSVPSCALE
 40
0.0
  9
$OLESTARTUP
290
     0
  9
$SORTENTS
280
   127
  9
$INDEXCTL
280
     0
  9
$HIDETEXT
280
     1
  9
$XCLIPFRAME
280
     2
  9
$HALOGAP
280
     0
  9
$OBSCOLOR
 70
   257
  9
$OBSLTYPE
280
     0
  9
$INTERSECTIONDISPLAY
280
     0
  9
$INTERSECTIONCOLOR
 70
   257
  9
$DIMASSOC
280
     2
  9
$PROJECTNAME
  1

  9
$CAMERADISPLAY
290
     0
  9
$LENSLENGTH
 40
50.0
  9
$CAMERAHEIGHT
 40
0.0
  9
$STEPSPERSEC
 40
2.0
  9
$STEPSIZE
 40
6.0
  9
$3DDWFPREC
 40
2.0
  9
$PSOLWIDTH
 40
0.25
  9
$PSOLHEIGHT
 40
4.0
  9
$LOFTANG1
 40
1.570796326794897
  9
$LOFTANG2
 40
1.570796326794897
  9
$LOFTMAG1
 40
0.0
  9
$LOFTMAG2
 40
0.0
  9
$LOFTPARAM
 70
     7
  9
$LOFTNORMALS
280
     1
  9
$LATITUDE
 40
37.795
  9
$LONGITUDE
 40
-122.394
  9
$NORTHDIRECTION
 40
0.0
  9
$TIMEZONE
 70
 -8000
  9
$LIGHTGLYPHDISPLAY
280
     1
  9
$TILEMODELIGHTSYNCH
280
     1
  9
$CMATERIAL
347
3C
  9
$SOLIDHIST
280
     1
  9
$SHOWHIST
280
     1
  9
$DWFFRAME
280
     2
  9
$DGNFRAME
280
     2
  9
$REALWORLDSCALE
290
     1
  9
$INTERFERECOLOR
 62
   256
  9
$CSHADOW
280
     0
  9
$SHADOWPLANELOCATION
 40
0.0
  0
ENDSEC
  0
SECTION
  2
CLASSES
  0
CLASS
  1
ACDBDICTIONARYWDFLT
  2
AcDbDictionaryWithDefault
  3
ObjectDBX Classes
 90
        0
 91
        4
280
     0
281
     0
  0
CLASS
  1
VISUALSTYLE
  2
AcDbVisualStyle
  3
ObjectDBX Classes
 90
     4095
 91
        4
280
     0
281
     0
  0
CLASS
  1
MATERIAL
  2
AcDbMaterial
  3
ObjectDBX Classes
 90
     1153
 91
        4
280
     0
281
     0
  0
CLASS
  1
SUN
  2
AcDbSun
  3
SCENEOE
 90
     1024
 91
        4
280
     0
281
     0
  0
ENDSEC
  0
SECTION
  2
TABLES
  0
TABLE
  2
VPORT
  5
8
330
0
100
AcDbSymbolTable
 70
     1
  0
VPORT
  5
29
330
8
100
AcDbSymbolTableRecord
100
AcDbViewportTableRecord
  2
*Active
 70
     0
 10
0.0
 20
0.0
 11
1.0
 21
1.0
 12
0.0
 22
0.0
 13
0.0
 23
0.0
 14
0.5
 24
0.5
 15
0.5
 25
0.5
 16
0.0
 26
0.0
 36
1.0
 17
338.666666582
 27
190.499999952375
 37
0.0
 40
380.99999990475
 41
1.777777777777778
 42
50.0
 43
0.0
 44
0.0
 50
0.0
 51
0.0
 71
     0
 72
   100
 73
     1
 74
     3
 75
     0
 76
     0
 77
     0
 78
     0
281
     0
 65
     1
110
0.0
120
0.0
130
0.0
111
1.0
121
0.0
131
0.0
112
0.0
122
1.0
132
0.0
 79
     0
146
0.0
 60
     3
 61
     5
292
     1
282
     1
141
0.0
142
0.0
 63
   250
361
3F
  0
ENDTAB
  0
TABLE
  2
LTYPE
  5
5
330
0
100
AcDbSymbolTable
 70
     1
  0
LTYPE
  5
14
330
5
100
AcDbSymbolTableRecord
100
AcDbLinetypeTableRecord
  2
ByBlock
 70
     0
  3

 72
    65
 73
     0
 40
0.0
  0
LTYPE
  5
15
330
5
100
AcDbSymbolTableRecord
100
AcDbLinetypeTableRecord
  2
ByLayer
 70
     0
  3

 72
    65
 73
     0
 40
0.0
  0
LTYPE
  5
16
330
5
100
AcDbSymbolTableRecord
100
AcDbLinetypeTableRecord
  2
Continuous
 70
     0
  3
Solid line
 72
    65
 73
     0
 40
0.0
  0
ENDTAB
  0
TABLE
  2
LAYER
  5
2
330
0
100
AcDbSymbolTable
 70
     1
  0
LAYER
  5
10
330
2
100
AcDbSymbolTableRecord
100
AcDbLayerTableRecord
  2
0
 70
     0
 62
     7
  6
Continuous
370
    -3
390
F
347
3E
  0
ENDTAB
  0
TABLE
  2
STYLE
  5
3
330
0
100
AcDbSymbolTable
 70
     1
  0
STYLE
  5
11
330
3
100
AcDbSymbolTableRecord
100
AcDbTextStyleTableRecord
  2
Standard
 70
     0
 40
0.0
 41
1.0
 50
0.0
 71
     0
 42
0.2
  3
txt
  4

  0
ENDTAB
  0
TABLE
  2
VIEW
  5
6
330
0
100
AcDbSymbolTable
 70
     0
  0
ENDTAB
  0
TABLE
  2
UCS
  5
7
330
0
100
AcDbSymbolTable
 70
     0
  0
ENDTAB
  0
TABLE
  2
APPID
  5
9
330
0
100
AcDbSymbolTable
 70
     1
  0
APPID
  5
12
330
9
100
AcDbSymbolTableRecord
100
AcDbRegAppTableRecord
  2
ACAD
 70
     0
  0
ENDTAB
  0
TABLE
  2
DIMSTYLE
  5
A
330
0
100
AcDbSymbolTable
 70
     1
100
AcDbDimStyleTable
  0
DIMSTYLE
105
27
330
A
100
AcDbSymbolTableRecord
100
AcDbDimStyleTableRecord
  2
Standard
 70
     0
178
     0
340
11
  0
ENDTAB
  0
TABLE
  2
BLOCK_RECORD
  5
1
330
0
100
AcDbSymbolTable
 70
   170
  0
BLOCK_RECORD
  5
1F
330
1
100
AcDbSymbolTableRecord
100
AcDbBlockTableRecord
  2
*Model_Space
340
22
 70
     0
280
     1
281
     0
  0
BLOCK_RECORD
  5
1B
330
1
100
AcDbSymbolTableRecord
100
AcDbBlockTableRecord
  2
*Paper_Space
340
1E
 70
     0
280
     1
281
     0
  0
BLOCK_RECORD
  5
23
330
1
100
AcDbSymbolTableRecord
100
AcDbBlockTableRecord
  2
*Paper_Space0
340
26
 70
     0
280
     1
281
     0
  0
BLOCK_RECORD
  5
40
330
1
100
AcDbSymbolTableRecord
100
AcDbBlockTableRecord
  2
block 2
340
0
102
{BLKREFS
331
41
102
}
 70
     0
280
     1
281
     0
  0
BLOCK_RECORD
  5
44
330
1
100
AcDbSymbolTableRecord
100
AcDbBlockTableRecord
  2
block 3
340
0
102
{BLKREFS
331
45
102
}
 70
     0
280
     1
281
     0
  0
BLOCK_RECORD
  5
49
330
1
100
AcDbSymbolTableRecord
100
AcDbBlockTableRecord
  2
block 4
340
0
102
{BLKREFS
331
4A
102
}
 70
     0
280
     1
281
     0
  0
BLOCK_RECORD
  5
4E
330
1
100
AcDbSymbolTableRecord
100
AcDbBlockTableRecord
  2
block 5
340
0
102
{BLKREFS
331
4F
102
}
 70
     0
280
     1
281
     0
  0
BLOCK_RECORD
  5
53
330
1
100
AcDbSymbolTableRecord
100
AcDbBlockTableRecord
  2
block 6
340
0
102
{BLKREFS
331
54
102
}
 70
     0
280
     1
281
     0
  0
BLOCK_RECORD
  5
58
330
1
100
AcDbSymbolTableRecord
100
AcDbBlockTableRecord
  2
block 7
340
0
102
{BLKREFS
331
59
102
}
 70
     0
280
     1
281
     0
  0
BLOCK_RECORD
  5
5D
330
1
100
AcDbSymbolTableRecord
100
AcDbBlockTableRecord
  2
block 8
340
0
102
{BLKREFS
331
5E
102
}
 70
     0
280
     1
281
     0
  0
BLOCK_RECORD
  5
62
330
1
100
AcDbSymbolTableRecord
100
AcDbBlockTableRecord
  2
block 9
340
0
102
{BLKREFS
331
63
102
}
 70
     0
280
     1
281
     0
  0
BLOCK_RECORD
  5
67
330
1
100
AcDbSymbolTableRecord
100
AcDbBlockTableRecord
  2
block 10
340
0
102
{BLKREFS
331
68
102
}
 70
     0
280
     1
281
     0
  0
BLOCK_RECORD
  5
6C
330
1
100
AcDbSymbolTableRecord
100
AcDbBlockTableRecord
  2
block 11
340
0
102
{BLKREFS
331
6D
102
}
 70
     0
280
     1
281
     0
  0
BLOCK_RECORD
  5
71
330
1
100
AcDbSymbolTableRecord
100
AcDbBlockTableRecord
  2
block 12
340
0
102
{BLKREFS
331
72
102
}
 70
     0
280
     1
281
     0
  0
BLOCK_RECORD
  5
76
330
1
100
AcDbSymbolTableRecord
100
AcDbBlockTableRecord
  2
block 13
340
0
102
{BLKREFS
331
77
102
}
 70
     0
280
     1
281
     0
  0
BLOCK_RECORD
  5
7B
330
1
100
AcDbSymbolTableRecord
100
AcDbBlockTableRecord
  2
block 14
340
0
102
{BLKREFS
331
7C
102
}
 70
     0
280
     1
281
     0
  0
BLOCK_RECORD
  5
80
330
1
100
AcDbSymbolTableRecord
100
AcDbBlockTableRecord
  2
block 15
340
0
102
{BLKREFS
331
81
102
}
 70
     0
280
     1
281
     0
  0
BLOCK_RECORD
  5
85
330
1
100
AcDbSymbolTableRecord
100
AcDbBlockTableRecord
  2
block 16
340
0
102
{BLKREFS
331
86
102
}
 70
     0
280
     1
281
     0
  0
BLOCK_RECORD
  5
8A
330
1
100
AcDbSymbolTableRecord
100
AcDbBlockTableRecord
  2
block 17
340
0
102
{BLKREFS
331
8B
102
}
 70
     0
280
     1
281
     0
  0
BLOCK_RECORD
  5
8F
330
1
100
AcDbSymbolTableRecord
100
AcDbBlockTableRecord
  2
block 18
340
0
102
{BLKREFS
331
90
102
}
 70
     0
280
     1
281
     0
  0
BLOCK_RECORD
  5
94
330
1
100
AcDbSymbolTableRecord
100
AcDbBlockTableRecord
  2
block 19
340
0
102
{BLKREFS
331
95
102
}
 70
     0
280
     1
281
     0
  0
BLOCK_RECORD
  5
99
330
1
100
AcDbSymbolTableRecord
100
AcDbBlockTableRecord
  2
block 20
340
0
102
{BLKREFS
331
9A
102
}
 70
     0
280
     1
281
     0
  0
BLOCK_RECORD
  5
9E
330
1
100
AcDbSymbolTableRecord
100
AcDbBlockTableRecord
  2
block 21
340
0
102
{BLKREFS
331
9F
102
}
 70
     0
280
     1
281
     0
  0
BLOCK_RECORD
  5
A3
330
1
100
AcDbSymbolTableRecord
100
AcDbBlockTableRecord
  2
block 22
340
0
102
{BLKREFS
331
A4
102
}
 70
     0
280
     1
281
     0
  0
BLOCK_RECORD
  5
A8
330
1
100
AcDbSymbolTableRecord
100
AcDbBlockTableRecord
  2
block 23
340
0
102
{BLKREFS
331
A9
102
}
 70
     0
280
     1
281
     0
  0
BLOCK_RECORD
  5
AD
330
1
100
AcDbSymbolTableRecord
100
AcDbBlockTableRecord
  2
block 24
340
0
102
{BLKREFS
331
AE
102
}
 70
     0
280
     1
281
     0
  0
BLOCK_RECORD
  5
B2
330
1
100
AcDbSymbolTableRecord
100
AcDbBlockTableRecord
  2
block 25
340
0
102
{BLKREFS
331
B3
102
}
 70
     0
280
     1
281
     0
  0
BLOCK_RECORD
  5
B7
330
1
100
AcDbSymbolTableRecord
100
AcDbBlockTableRecord
  2
block 26
340
0
102
{BLKREFS
331
B8
102
}
 70
     0
280
     1
281
     0
  0
BLOCK_RECORD
  5
BC
330
1
100
AcDbSymbolTableRecord
100
AcDbBlockTableRecord
  2
block 27
340
0
102
{BLKREFS
331
BD
102
}
 70
     0
280
     1
281
     0
  0
BLOCK_RECORD
  5
C1
330
1
100
AcDbSymbolTableRecord
100
AcDbBlockTableRecord
  2
block 28
340
0
102
{BLKREFS
331
C2
102
}
 70
     0
280
     1
281
     0
  0
BLOCK_RECORD
  5
C6
330
1
100
AcDbSymbolTableRecord
100
AcDbBlockTableRecord
  2
block 29
340
0
102
{BLKREFS
331
C7
102
}
 70
     0
280
     1
281
     0
  0
BLOCK_RECORD
  5
CB
330
1
100
AcDbSymbolTableRecord
100
AcDbBlockTableRecord
  2
block 30
340
0
102
{BLKREFS
331
CC
102
}
 70
     0
280
     1
281
     0
  0
BLOCK_RECORD
  5
D0
330
1
100
AcDbSymbolTableRecord
100
AcDbBlockTableRecord
  2
block 31
340
0
102
{BLKREFS
331
D1
102
}
 70
     0
280
     1
281
     0
  0
BLOCK_RECORD
  5
D5
330
1
100
AcDbSymbolTableRecord
100
AcDbBlockTableRecord
  2
block 32
340
0
102
{BLKREFS
331
D6
102
}
 70
     0
280
     1
281
     0
  0
BLOCK_RECORD
  5
DA
330
1
100
AcDbSymbolTableRecord
100
AcDbBlockTableRecord
  2
block 33
340
0
102
{BLKREFS
331
DB
102
}
 70
     0
280
     1
281
     0
  0
BLOCK_RECORD
  5
DF
330
1
100
AcDbSymbolTableRecord
100
AcDbBlockTableRecord
  2
block 34
340
0
102
{BLKREFS
331
E0
102
}
 70
     0
280
     1
281
     0
  0
BLOCK_RECORD
  5
E4
330
1
100
AcDbSymbolTableRecord
100
AcDbBlockTableRecord
  2
block 35
340
0
102
{BLKREFS
331
E5
102
}
 70
     0
280
     1
281
     0
  0
BLOCK_RECORD
  5
E9
330
1
100
AcDbSymbolTableRecord
100
AcDbBlockTableRecord
  2
block 36
340
0
102
{BLKREFS
331
EA
102
}
 70
     0
280
     1
281
     0
  0
BLOCK_RECORD
  5
EE
330
1
100
AcDbSymbolTableRecord
100
AcDbBlockTableRecord
  2
block 37
340
0
102
{BLKREFS
331
EF
102
}
 70
     0
280
     1
281
     0
  0
BLOCK_RECORD
  5
F3
330
1
100
AcDbSymbolTableRecord
100
AcDbBlockTableRecord
  2
block 38
340
0
102
{BLKREFS
331
F4
102
}
 70
     0
280
     1
281
     0
  0
BLOCK_RECORD
  5
F8
330
1
100
AcDbSymbolTableRecord
100
AcDbBlockTableRecord
  2
block 39
340
0
102
{BLKREFS
331
F9
102
}
 70
     0
280
     1
281
     0
  0
BLOCK_RECORD
  5
FD
330
1
100
AcDbSymbolTableRecord
100
AcDbBlockTableRecord
  2
block 40
340
0
102
{BLKREFS
331
FE
102
}
 70
     0
280
     1
281
     0
  0
BLOCK_RECORD
  5
102
330
1
100
AcDbSymbolTableRecord
100
AcDbBlockTableRecord
  2
block 41
340
0
102
{BLKREFS
331
103
102
}
 70
     0
280
     1
281
     0
  0
BLOCK_RECORD
  5
107
330
1
100
AcDbSymbolTableRecord
100
AcDbBlockTableRecord
  2
block 42
340
0
102
{BLKREFS
331
108
102
}
 70
     0
280
     1
281
     0
  0
BLOCK_RECORD
  5
10C
330
1
100
AcDbSymbolTableRecord
100
AcDbBlockTableRecord
  2
block 43
340
0
102
{BLKREFS
331
10D
102
}
 70
     0
280
     1
281
     0
  0
BLOCK_RECORD
  5
111
330
1
100
AcDbSymbolTableRecord
100
AcDbBlockTableRecord
  2
block 44
340
0
102
{BLKREFS
331
112
102
}
 70
     0
280
     1
281
     0
  0
BLOCK_RECORD
  5
116
330
1
100
AcDbSymbolTableRecord
100
AcDbBlockTableRecord
  2
block 45
340
0
102
{BLKREFS
331
117
102
}
 70
     0
280
     1
281
     0
  0
BLOCK_RECORD
  5
11B
330
1
100
AcDbSymbolTableRecord
100
AcDbBlockTableRecord
  2
block 46
340
0
102
{BLKREFS
331
11C
102
}
 70
     0
280
     1
281
     0
  0
BLOCK_RECORD
  5
120
330
1
100
AcDbSymbolTableRecord
100
AcDbBlockTableRecord
  2
block 47
340
0
102
{BLKREFS
331
121
102
}
 70
     0
280
     1
281
     0
  0
BLOCK_RECORD
  5
125
330
1
100
AcDbSymbolTableRecord
100
AcDbBlockTableRecord
  2
block 48
340
0
102
{BLKREFS
331
126
102
}
 70
     0
280
     1
281
     0
  0
BLOCK_RECORD
  5
12A
330
1
100
AcDbSymbolTableRecord
100
AcDbBlockTableRecord
  2
block 49
340
0
102
{BLKREFS
331
12B
102
}
 70
     0
280
     1
281
     0
  0
BLOCK_RECORD
  5
12F
330
1
100
AcDbSymbolTableRecord
100
AcDbBlockTableRecord
  2
block 50
340
0
102
{BLKREFS
331
130
102
}
 70
     0
280
     1
281
     0
  0
BLOCK_RECORD
  5
134
330
1
100
AcDbSymbolTableRecord
100
AcDbBlockTableRecord
  2
block 51
340
0
102
{BLKREFS
331
135
102
}
 70
     0
280
     1
281
     0
  0
BLOCK_RECORD
  5
139
330
1
100
AcDbSymbolTableRecord
100
AcDbBlockTableRecord
  2
block 52
340
0
102
{BLKREFS
331
13A
102
}
 70
     0
280
     1
281
     0
  0
BLOCK_RECORD
  5
13E
330
1
100
AcDbSymbolTableRecord
100
AcDbBlockTableRecord
  2
block 53
340
0
102
{BLKREFS
331
13F
102
}
 70
     0
280
     1
281
     0
  0
BLOCK_RECORD
  5
143
330
1
100
AcDbSymbolTableRecord
100
AcDbBlockTableRecord
  2
block 54
340
0
102
{BLKREFS
331
144
102
}
 70
     0
280
     1
281
     0
  0
BLOCK_RECORD
  5
148
330
1
100
AcDbSymbolTableRecord
100
AcDbBlockTableRecord
  2
block 55
340
0
102
{BLKREFS
331
149
102
}
 70
     0
280
     1
281
     0
  0
BLOCK_RECORD
  5
14D
330
1
100
AcDbSymbolTableRecord
100
AcDbBlockTableRecord
  2
block 56
340
0
102
{BLKREFS
331
14E
102
}
 70
     0
280
     1
281
     0
  0
BLOCK_RECORD
  5
152
330
1
100
AcDbSymbolTableRecord
100
AcDbBlockTableRecord
  2
block 57
340
0
102
{BLKREFS
331
153
102
}
 70
     0
280
     1
281
     0
  0
BLOCK_RECORD
  5
157
330
1
100
AcDbSymbolTableRecord
100
AcDbBlockTableRecord
  2
block 58
340
0
102
{BLKREFS
331
158
102
}
 70
     0
280
     1
281
     0
  0
BLOCK_RECORD
  5
15C
330
1
100
AcDbSymbolTableRecord
100
AcDbBlockTableRecord
  2
block 59
340
0
102
{BLKREFS
331
15D
102
}
 70
     0
280
     1
281
     0
  0
BLOCK_RECORD
  5
161
330
1
100
AcDbSymbolTableRecord
100
AcDbBlockTableRecord
  2
block 60
340
0
102
{BLKREFS
331
162
102
}
 70
     0
280
     1
281
     0
  0
BLOCK_RECORD
  5
166
330
1
100
AcDbSymbolTableRecord
100
AcDbBlockTableRecord
  2
block 61
340
0
102
{BLKREFS
331
167
102
}
 70
     0
280
     1
281
     0
  0
BLOCK_RECORD
  5
16B
330
1
100
AcDbSymbolTableRecord
100
AcDbBlockTableRecord
  2
block 62
340
0
102
{BLKREFS
331
16C
102
}
 70
     0
280
     1
281
     0
  0
BLOCK_RECORD
  5
170
330
1
100
AcDbSymbolTableRecord
100
AcDbBlockTableRecord
  2
block 63
340
0
102
{BLKREFS
331
171
102
}
 70
     0
280
     1
281
     0
  0
BLOCK_RECORD
  5
175
330
1
100
AcDbSymbolTableRecord
100
AcDbBlockTableRecord
  2
block 64
340
0
102
{BLKREFS
331
176
102
}
 70
     0
280
     1
281
     0
  0
BLOCK_RECORD
  5
17A
330
1
100
AcDbSymbolTableRecord
100
AcDbBlockTableRecord
  2
block 65
340
0
102
{BLKREFS
331
17B
102
}
 70
     0
280
     1
281
     0
  0
BLOCK_RECORD
  5
17F
330
1
100
AcDbSymbolTableRecord
100
AcDbBlockTableRecord
  2
block 66
340
0
102
{BLKREFS
331
180
102
}
 70
     0
280
     1
281
     0
  0
BLOCK_RECORD
  5
184
330
1
100
AcDbSymbolTableRecord
100
AcDbBlockTableRecord
  2
block 67
340
0
102
{BLKREFS
331
185
102
}
 70
     0
280
     1
281
     0
  0
BLOCK_RECORD
  5
189
330
1
100
AcDbSymbolTableRecord
100
AcDbBlockTableRecord
  2
block 68
340
0
102
{BLKREFS
331
18A
102
}
 70
     0
280
     1
281
     0
  0
BLOCK_RECORD
  5
18E
330
1
100
AcDbSymbolTableRecord
100
AcDbBlockTableRecord
  2
block 69
340
0
102
{BLKREFS
331
18F
102
}
 70
     0
280
     1
281
     0
  0
BLOCK_RECORD
  5
193
330
1
100
AcDbSymbolTableRecord
100
AcDbBlockTableRecord
  2
block 70
340
0
102
{BLKREFS
331
194
102
}
 70
     0
280
     1
281
     0
  0
BLOCK_RECORD
  5
198
330
1
100
AcDbSymbolTableRecord
100
AcDbBlockTableRecord
  2
block 71
340
0
102
{BLKREFS
331
199
102
}
 70
     0
280
     1
281
     0
  0
BLOCK_RECORD
  5
19D
330
1
100
AcDbSymbolTableRecord
100
AcDbBlockTableRecord
  2
block 72
340
0
102
{BLKREFS
331
19E
102
}
 70
     0
280
     1
281
     0
  0
BLOCK_RECORD
  5
1A2
330
1
100
AcDbSymbolTableRecord
100
AcDbBlockTableRecord
  2
block 73
340
0
102
{BLKREFS
331
1A3
102
}
 70
     0
280
     1
281
     0
  0
BLOCK_RECORD
  5
1A7
330
1
100
AcDbSymbolTableRecord
100
AcDbBlockTableRecord
  2
block 74
340
0
102
{BLKREFS
331
1A8
102
}
 70
     0
280
     1
281
     0
  0
BLOCK_RECORD
  5
1AC
330
1
100
AcDbSymbolTableRecord
100
AcDbBlockTableRecord
  2
block 75
340
0
102
{BLKREFS
331
1AD
102
}
 70
     0
280
     1
281
     0
  0
BLOCK_RECORD
  5
1B1
330
1
100
AcDbSymbolTableRecord
100
AcDbBlockTableRecord
  2
block 76
340
0
102
{BLKREFS
331
1B2
102
}
 70
     0
280
     1
281
     0
  0
BLOCK_RECORD
  5
1B6
330
1
100
AcDbSymbolTableRecord
100
AcDbBlockTableRecord
  2
block 77
340
0
102
{BLKREFS
331
1B7
102
}
 70
     0
280
     1
281
     0
  0
BLOCK_RECORD
  5
1BB
330
1
100
AcDbSymbolTableRecord
100
AcDbBlockTableRecord
  2
block 78
340
0
102
{BLKREFS
331
1BC
102
}
 70
     0
280
     1
281
     0
  0
BLOCK_RECORD
  5
1C0
330
1
100
AcDbSymbolTableRecord
100
AcDbBlockTableRecord
  2
block 79
340
0
102
{BLKREFS
331
1C1
102
}
 70
     0
280
     1
281
     0
  0
BLOCK_RECORD
  5
1C5
330
1
100
AcDbSymbolTableRecord
100
AcDbBlockTableRecord
  2
block 80
340
0
102
{BLKREFS
331
1C6
102
}
 70
     0
280
     1
281
     0
  0
BLOCK_RECORD
  5
1CA
330
1
100
AcDbSymbolTableRecord
100
AcDbBlockTableRecord
  2
block 81
340
0
102
{BLKREFS
331
1CB
102
}
 70
     0
280
     1
281
     0
  0
BLOCK_RECORD
  5
1CF
330
1
100
AcDbSymbolTableRecord
100
AcDbBlockTableRecord
  2
block 82
340
0
102
{BLKREFS
331
1D0
102
}
 70
     0
280
     1
281
     0
  0
BLOCK_RECORD
  5
1D4
330
1
100
AcDbSymbolTableRecord
100
AcDbBlockTableRecord
  2
block 83
340
0
102
{BLKREFS
331
1D5
102
}
 70
     0
280
     1
281
     0
  0
BLOCK_RECORD
  5
1D9
330
1
100
AcDbSymbolTableRecord
100
AcDbBlockTableRecord
  2
block 84
340
0
102
{BLKREFS
331
1DA
102
}
 70
     0
280
     1
281
     0
  0
BLOCK_RECORD
  5
1DE
330
1
100
AcDbSymbolTableRecord
100
AcDbBlockTableRecord
  2
block 85
340
0
102
{BLKREFS
331
1DF
102
}
 70
     0
280
     1
281
     0
  0
BLOCK_RECORD
  5
1E3
330
1
100
AcDbSymbolTableRecord
100
AcDbBlockTableRecord
  2
block 86
340
0
102
{BLKREFS
331
1E4
102
}
 70
     0
280
     1
281
     0
  0
BLOCK_RECORD
  5
1E8
330
1
100
AcDbSymbolTableRecord
100
AcDbBlockTableRecord
  2
block 87
340
0
102
{BLKREFS
331
1E9
102
}
 70
     0
280
     1
281
     0
  0
BLOCK_RECORD
  5
1ED
330
1
100
AcDbSymbolTableRecord
100
AcDbBlockTableRecord
  2
block 88
340
0
102
{BLKREFS
331
1EE
102
}
 70
     0
280
     1
281
     0
  0
BLOCK_RECORD
  5
1F2
330
1
100
AcDbSymbolTableRecord
100
AcDbBlockTableRecord
  2
block 89
340
0
102
{BLKREFS
331
1F3
102
}
 70
     0
280
     1
281
     0
  0
BLOCK_RECORD
  5
1F7
330
1
100
AcDbSymbolTableRecord
100
AcDbBlockTableRecord
  2
block 90
340
0
102
{BLKREFS
331
1F8
102
}
 70
     0
280
     1
281
     0
  0
BLOCK_RECORD
  5
1FC
330
1
100
AcDbSymbolTableRecord
100
AcDbBlockTableRecord
  2
block 91
340
0
102
{BLKREFS
331
1FD
102
}
 70
     0
280
     1
281
     0
  0
BLOCK_RECORD
  5
201
330
1
100
AcDbSymbolTableRecord
100
AcDbBlockTableRecord
  2
block 92
340
0
102
{BLKREFS
331
202
102
}
 70
     0
280
     1
281
     0
  0
BLOCK_RECORD
  5
206
330
1
100
AcDbSymbolTableRecord
100
AcDbBlockTableRecord
  2
block 93
340
0
102
{BLKREFS
331
207
102
}
 70
     0
280
     1
281
     0
  0
BLOCK_RECORD
  5
20B
330
1
100
AcDbSymbolTableRecord
100
AcDbBlockTableRecord
  2
block 94
340
0
102
{BLKREFS
331
20C
102
}
 70
     0
280
     1
281
     0
  0
BLOCK_RECORD
  5
210
330
1
100
AcDbSymbolTableRecord
100
AcDbBlockTableRecord
  2
block 95
340
0
102
{BLKREFS
331
211
102
}
 70
     0
280
     1
281
     0
  0
BLOCK_RECORD
  5
215
330
1
100
AcDbSymbolTableRecord
100
AcDbBlockTableRecord
  2
block 96
340
0
102
{BLKREFS
331
216
102
}
 70
     0
280
     1
281
     0
  0
BLOCK_RECORD
  5
21A
330
1
100
AcDbSymbolTableRecord
100
AcDbBlockTableRecord
  2
block 97
340
0
102
{BLKREFS
331
21B
102
}
 70
     0
280
     1
281
     0
  0
BLOCK_RECORD
  5
21F
330
1
100
AcDbSymbolTableRecord
100
AcDbBlockTableRecord
  2
block 98
340
0
102
{BLKREFS
331
220
102
}
 70
     0
280
     1
281
     0
  0
BLOCK_RECORD
  5
224
330
1
100
AcDbSymbolTableRecord
100
AcDbBlockTableRecord
  2
block 99
340
0
102
{BLKREFS
331
225
102
}
 70
     0
280
     1
281
     0
  0
BLOCK_RECORD
  5
229
330
1
100
AcDbSymbolTableRecord
100
AcDbBlockTableRecord
  2
block 100
340
0
102
{BLKREFS
331
22A
102
}
 70
     0
280
     1
281
     0
  0
BLOCK_RECORD
  5
22E
330
1
100
AcDbSymbolTableRecord
100
AcDbBlockTableRecord
  2
block 101
340
0
102
{BLKREFS
331
22F
102
}
 70
     0
280
     1
281
     0
  0
BLOCK_RECORD
  5
233
330
1
100
AcDbSymbolTableRecord
100
AcDbBlockTableRecord
  2
block 102
340
0
102
{BLKREFS
331
234
102
}
 70
     0
280
     1
281
     0
  0
BLOCK_RECORD
  5
238
330
1
100
AcDbSymbolTableRecord
100
AcDbBlockTableRecord
  2
block 103
340
0
102
{BLKREFS
331
239
102
}
 70
     0
280
     1
281
     0
  0
BLOCK_RECORD
  5
23D
330
1
100
AcDbSymbolTableRecord
100
AcDbBlockTableRecord
  2
block 104
340
0
102
{BLKREFS
331
23E
102
}
 70
     0
280
     1
281
     0
  0
BLOCK_RECORD
  5
242
330
1
100
AcDbSymbolTableRecord
100
AcDbBlockTableRecord
  2
block 105
340
0
102
{BLKREFS
331
243
102
}
 70
     0
280
     1
281
     0
  0
BLOCK_RECORD
  5
247
330
1
100
AcDbSymbolTableRecord
100
AcDbBlockTableRecord
  2
block 106
340
0
102
{BLKREFS
331
248
102
}
 70
     0
280
     1
281
     0
  0
BLOCK_RECORD
  5
24C
330
1
100
AcDbSymbolTableRecord
100
AcDbBlockTableRecord
  2
block 107
340
0
102
{BLKREFS
331
24D
102
}
 70
     0
280
     1
281
     0
  0
BLOCK_RECORD
  5
251
330
1
100
AcDbSymbolTableRecord
100
AcDbBlockTableRecord
  2
block 108
340
0
102
{BLKREFS
331
252
102
}
 70
     0
280
     1
281
     0
  0
BLOCK_RECORD
  5
256
330
1
100
AcDbSymbolTableRecord
100
AcDbBlockTableRecord
  2
block 109
340
0
102
{BLKREFS
331
257
102
}
 70
     0
280
     1
281
     0
  0
BLOCK_RECORD
  5
25B
330
1
100
AcDbSymbolTableRecord
100
AcDbBlockTableRecord
  2
block 110
340
0
102
{BLKREFS
331
25C
102
}
 70
     0
280
     1
281
     0
  0
BLOCK_RECORD
  5
260
330
1
100
AcDbSymbolTableRecord
100
AcDbBlockTableRecord
  2
block 111
340
0
102
{BLKREFS
331
261
102
}
 70
     0
280
     1
281
     0
  0
BLOCK_RECORD
  5
265
330
1
100
AcDbSymbolTableRecord
100
AcDbBlockTableRecord
  2
block 112
340
0
102
{BLKREFS
331
266
102
}
 70
     0
280
     1
281
     0
  0
BLOCK_RECORD
  5
26A
330
1
100
AcDbSymbolTableRecord
100
AcDbBlockTableRecord
  2
block 113
340
0
102
{BLKREFS
331
26B
102
}
 70
     0
280
     1
281
     0
  0
BLOCK_RECORD
  5
26F
330
1
100
AcDbSymbolTableRecord
100
AcDbBlockTableRecord
  2
block 114
340
0
102
{BLKREFS
331
270
102
}
 70
     0
280
     1
281
     0
  0
BLOCK_RECORD
  5
274
330
1
100
AcDbSymbolTableRecord
100
AcDbBlockTableRecord
  2
block 115
340
0
102
{BLKREFS
331
275
102
}
 70
     0
280
     1
281
     0
  0
BLOCK_RECORD
  5
279
330
1
100
AcDbSymbolTableRecord
100
AcDbBlockTableRecord
  2
block 116
340
0
102
{BLKREFS
331
27A
102
}
 70
     0
280
     1
281
     0
  0
BLOCK_RECORD
  5
27E
330
1
100
AcDbSymbolTableRecord
100
AcDbBlockTableRecord
  2
block 117
340
0
102
{BLKREFS
331
27F
102
}
 70
     0
280
     1
281
     0
  0
BLOCK_RECORD
  5
283
330
1
100
AcDbSymbolTableRecord
100
AcDbBlockTableRecord
  2
block 118
340
0
102
{BLKREFS
331
284
102
}
 70
     0
280
     1
281
     0
  0
BLOCK_RECORD
  5
288
330
1
100
AcDbSymbolTableRecord
100
AcDbBlockTableRecord
  2
block 119
340
0
102
{BLKREFS
331
289
102
}
 70
     0
280
     1
281
     0
  0
BLOCK_RECORD
  5
28D
330
1
100
AcDbSymbolTableRecord
100
AcDbBlockTableRecord
  2
block 120
340
0
102
{BLKREFS
331
28E
102
}
 70
     0
280
     1
281
     0
  0
BLOCK_RECORD
  5
292
330
1
100
AcDbSymbolTableRecord
100
AcDbBlockTableRecord
  2
block 121
340
0
102
{BLKREFS
331
293
102
}
 70
     0
280
     1
281
     0
  0
BLOCK_RECORD
  5
297
330
1
100
AcDbSymbolTableRecord
100
AcDbBlockTableRecord
  2
block 122
340
0
102
{BLKREFS
331
298
102
}
 70
     0
280
     1
281
     0
  0
BLOCK_RECORD
  5
29C
330
1
100
AcDbSymbolTableRecord
100
AcDbBlockTableRecord
  2
block 123
340
0
102
{BLKREFS
331
29D
102
}
 70
     0
280
     1
281
     0
  0
BLOCK_RECORD
  5
2A1
330
1
100
AcDbSymbolTableRecord
100
AcDbBlockTableRecord
  2
block 124
340
0
102
{BLKREFS
331
2A2
102
}
 70
     0
280
     1
281
     0
  0
BLOCK_RECORD
  5
2A6
330
1
100
AcDbSymbolTableRecord
100
AcDbBlockTableRecord
  2
block 125
340
0
102
{BLKREFS
331
2A7
102
}
 70
     0
280
     1
281
     0
  0
BLOCK_RECORD
  5
2AB
330
1
100
AcDbSymbolTableRecord
100
AcDbBlockTableRecord
  2
block 126
340
0
102
{BLKREFS
331
2AC
102
}
 70
     0
280
     1
281
     0
  0
BLOCK_RECORD
  5
2B0
330
1
100
AcDbSymbolTableRecord
100
AcDbBlockTableRecord
  2
block 127
340
0
102
{BLKREFS
331
2B1
102
}
 70
     0
280
     1
281
     0
  0
BLOCK_RECORD
  5
2B5
330
1
100
AcDbSymbolTableRecord
100
AcDbBlockTableRecord
  2
block 128
340
0
102
{BLKREFS
331
2B6
102
}
 70
     0
280
     1
281
     0
  0
BLOCK_RECORD
  5
2BA
330
1
100
AcDbSymbolTableRecord
100
AcDbBlockTableRecord
  2
block 129
340
0
102
{BLKREFS
331
2BB
102
}
 70
     0
280
     1
281
     0
  0
BLOCK_RECORD
  5
2BF
330
1
100
AcDbSymbolTableRecord
100
AcDbBlockTableRecord
  2
block 130
340
0
102
{BLKREFS
331
2C0
102
}
 70
     0
280
     1
281
     0
  0
BLOCK_RECORD
  5
2C4
330
1
100
AcDbSymbolTableRecord
100
AcDbBlockTableRecord
  2
block 131
340
0
102
{BLKREFS
331
2C5
102
}
 70
     0
280
     1
281
     0
  0
BLOCK_RECORD
  5
2C9
330
1
100
AcDbSymbolTableRecord
100
AcDbBlockTableRecord
  2
block 132
340
0
102
{BLKREFS
331
2CA
102
}
 70
     0
280
     1
281
     0
  0
BLOCK_RECORD
  5
2CE
330
1
100
AcDbSymbolTableRecord
100
AcDbBlockTableRecord
  2
block 133
340
0
102
{BLKREFS
331
2CF
102
}
 70
     0
280
     1
281
     0
  0
BLOCK_RECORD
  5
2D3
330
1
100
AcDbSymbolTableRecord
100
AcDbBlockTableRecord
  2
block 134
340
0
102
{BLKREFS
331
2D4
102
}
 70
     0
280
     1
281
     0
  0
BLOCK_RECORD
  5
2D8
330
1
100
AcDbSymbolTableRecord
100
AcDbBlockTableRecord
  2
block 135
340
0
102
{BLKREFS
331
2D9
102
}
 70
     0
280
     1
281
     0
  0
BLOCK_RECORD
  5
2DD
330
1
100
AcDbSymbolTableRecord
100
AcDbBlockTableRecord
  2
block 136
340
0
102
{BLKREFS
331
2DE
102
}
 70
     0
280
     1
281
     0
  0
BLOCK_RECORD
  5
2E2
330
1
100
AcDbSymbolTableRecord
100
AcDbBlockTableRecord
  2
block 137
340
0
102
{BLKREFS
331
2E3
102
}
 70
     0
280
     1
281
     0
  0
BLOCK_RECORD
  5
2E7
330
1
100
AcDbSymbolTableRecord
100
AcDbBlockTableRecord
  2
block 138
340
0
102
{BLKREFS
331
2E8
102
}
 70
     0
280
     1
281
     0
  0
BLOCK_RECORD
  5
2EC
330
1
100
AcDbSymbolTableRecord
100
AcDbBlockTableRecord
  2
block 139
340
0
102
{BLKREFS
331
2ED
102
}
 70
     0
280
     1
281
     0
  0
BLOCK_RECORD
  5
2F1
330
1
100
AcDbSymbolTableRecord
100
AcDbBlockTableRecord
  2
block 140
340
0
102
{BLKREFS
331
2F2
102
}
 70
     0
280
     1
281
     0
  0
BLOCK_RECORD
  5
2F6
330
1
100
AcDbSymbolTableRecord
100
AcDbBlockTableRecord
  2
block 141
340
0
102
{BLKREFS
331
2F7
102
}
 70
     0
280
     1
281
     0
  0
BLOCK_RECORD
  5
2FB
330
1
100
AcDbSymbolTableRecord
100
AcDbBlockTableRecord
  2
block 142
340
0
102
{BLKREFS
331
2FC
102
}
 70
     0
280
     1
281
     0
  0
BLOCK_RECORD
  5
300
330
1
100
AcDbSymbolTableRecord
100
AcDbBlockTableRecord
  2
block 143
340
0
102
{BLKREFS
331
301
102
}
 70
     0
280
     1
281
     0
  0
BLOCK_RECORD
  5
305
330
1
100
AcDbSymbolTableRecord
100
AcDbBlockTableRecord
  2
block 144
340
0
102
{BLKREFS
331
306
102
}
 70
     0
280
     1
281
     0
  0
BLOCK_RECORD
  5
30A
330
1
100
AcDbSymbolTableRecord
100
AcDbBlockTableRecord
  2
block 145
340
0
102
{BLKREFS
331
30B
102
}
 70
     0
280
     1
281
     0
  0
BLOCK_RECORD
  5
30F
330
1
100
AcDbSymbolTableRecord
100
AcDbBlockTableRecord
  2
block 146
340
0
102
{BLKREFS
331
310
102
}
 70
     0
280
     1
281
     0
  0
BLOCK_RECORD
  5
314
330
1
100
AcDbSymbolTableRecord
100
AcDbBlockTableRecord
  2
block 147
340
0
102
{BLKREFS
331
315
102
}
 70
     0
280
     1
281
     0
  0
BLOCK_RECORD
  5
319
330
1
100
AcDbSymbolTableRecord
100
AcDbBlockTableRecord
  2
block 148
340
0
102
{BLKREFS
331
31A
102
}
 70
     0
280
     1
281
     0
  0
BLOCK_RECORD
  5
31E
330
1
100
AcDbSymbolTableRecord
100
AcDbBlockTableRecord
  2
block 149
340
0
102
{BLKREFS
331
31F
102
}
 70
     0
280
     1
281
     0
  0
BLOCK_RECORD
  5
323
330
1
100
AcDbSymbolTableRecord
100
AcDbBlockTableRecord
  2
block 150
340
0
102
{BLKREFS
331
324
102
}
 70
     0
280
     1
281
     0
  0
BLOCK_RECORD
  5
328
330
1
100
AcDbSymbolTableRecord
100
AcDbBlockTableRecord
  2
block 151
340
0
102
{BLKREFS
331
329
102
}
 70
     0
280
     1
281
     0
  0
BLOCK_RECORD
  5
32D
330
1
100
AcDbSymbolTableRecord
100
AcDbBlockTableRecord
  2
block 152
340
0
102
{BLKREFS
331
32E
102
}
 70
     0
280
     1
281
     0
  0
BLOCK_RECORD
  5
332
330
1
100
AcDbSymbolTableRecord
100
AcDbBlockTableRecord
  2
block 153
340
0
102
{BLKREFS
331
333
102
}
 70
     0
280
     1
281
     0
  0
BLOCK_RECORD
  5
337
330
1
100
AcDbSymbolTableRecord
100
AcDbBlockTableRecord
  2
block 154
340
0
102
{BLKREFS
331
338
102
}
 70
     0
280
     1
281
     0
  0
BLOCK_RECORD
  5
33C
330
1
100
AcDbSymbolTableRecord
100
AcDbBlockTableRecord
  2
block 155
340
0
102
{BLKREFS
331
33D
102
}
 70
     0
280
     1
281
     0
  0
BLOCK_RECORD
  5
341
330
1
100
AcDbSymbolTableRecord
100
AcDbBlockTableRecord
  2
block 156
340
0
102
{BLKREFS
331
342
102
}
 70
     0
280
     1
281
     0
  0
BLOCK_RECORD
  5
346
330
1
100
AcDbSymbolTableRecord
100
AcDbBlockTableRecord
  2
block 157
340
0
102
{BLKREFS
331
347
102
}
 70
     0
280
     1
281
     0
  0
BLOCK_RECORD
  5
34B
330
1
100
AcDbSymbolTableRecord
100
AcDbBlockTableRecord
  2
block 158
340
0
102
{BLKREFS
331
34C
102
}
 70
     0
280
     1
281
     0
  0
BLOCK_RECORD
  5
350
330
1
100
AcDbSymbolTableRecord
100
AcDbBlockTableRecord
  2
block 159
340
0
102
{BLKREFS
331
351
102
}
 70
     0
280
     1
281
     0
  0
BLOCK_RECORD
  5
355
330
1
100
AcDbSymbolTableRecord
100
AcDbBlockTableRecord
  2
block 160
340
0
102
{BLKREFS
331
356
102
}
 70
     0
280
     1
281
     0
  0
BLOCK_RECORD
  5
35A
330
1
100
AcDbSymbolTableRecord
100
AcDbBlockTableRecord
  2
block 161
340
0
102
{BLKREFS
331
35B
102
}
 70
     0
280
     1
281
     0
  0
BLOCK_RECORD
  5
35F
330
1
100
AcDbSymbolTableRecord
100
AcDbBlockTableRecord
  2
block 162
340
0
102
{BLKREFS
331
360
102
}
 70
     0
280
     1
281
     0
  0
BLOCK_RECORD
  5
364
330
1
100
AcDbSymbolTableRecord
100
AcDbBlockTableRecord
  2
block 163
340
0
102
{BLKREFS
331
365
102
}
 70
     0
280
     1
281
     0
  0
BLOCK_RECORD
  5
369
330
1
100
AcDbSymbolTableRecord
100
AcDbBlockTableRecord
  2
block 164
340
0
102
{BLKREFS
331
36A
102
}
 70
     0
280
     1
281
     0
  0
BLOCK_RECORD
  5
36E
330
1
100
AcDbSymbolTableRecord
100
AcDbBlockTableRecord
  2
block 165
340
0
102
{BLKREFS
331
36F
102
}
 70
     0
280
     1
281
     0
  0
BLOCK_RECORD
  5
373
330
1
100
AcDbSymbolTableRecord
100
AcDbBlockTableRecord
  2
block 166
340
0
102
{BLKREFS
331
374
102
}
 70
     0
280
     1
281
     0
  0
BLOCK_RECORD
  5
378
330
1
100
AcDbSymbolTableRecord
100
AcDbBlockTableRecord
  2
block 167
340
0
102
{BLKREFS
331
379
102
}
 70
     0
280
     1
281
     0
  0
BLOCK_RECORD
  5
37D
330
1
100
AcDbSymbolTableRecord
100
AcDbBlockTableRecord
  2
block 168
340
0
102
{BLKREFS
331
37E
102
}
 70
     0
280
     1
281
     0
  0
BLOCK_RECORD
  5
382
330
1
100
AcDbSymbolTableRecord
100
AcDbBlockTableRecord
  2
block 169
340
0
102
{BLKREFS
331
383
102
}
 70
     0
280
     1
281
     0
  0
BLOCK_RECORD
  5
387
330
1
100
AcDbSymbolTableRecord
100
AcDbBlockTableRecord
  2
block 170
340
0
102
{BLKREFS
331
388
102
}
 70
     0
280
     1
281
     0
  0
ENDTAB
  0
ENDSEC
  0
SECTION
  2
BLOCKS
  0
BLOCK
  5
20
330
1F
100
AcDbEntity
  8
0
100
AcDbBlockBegin
  2
*Model_Space
 70
     0
 10
0.0
 20
0.0
 30
0.0
  3
*Model_Space
  1

  0
ENDBLK
  5
21
330
1F
100
AcDbEntity
  8
0
100
AcDbBlockEnd
  0
BLOCK
  5
1C
330
1B
100
AcDbEntity
 67
     1
  8
0
100
AcDbBlockBegin
  2
*Paper_Space
 70
     0
 10
0.0
 20
0.0
 30
0.0
  3
*Paper_Space
  1

  0
ENDBLK
  5
1D
330
1B
100
AcDbEntity
 67
     1
  8
0
100
AcDbBlockEnd
  0
BLOCK
  5
24
330
23
100
AcDbEntity
  8
0
100
AcDbBlockBegin
  2
*Paper_Space0
 70
     0
 10
0.0
 20
0.0
 30
0.0
  3
*Paper_Space0
  1

  0
ENDBLK
  5
25
330
23
100
AcDbEntity
  8
0
100
AcDbBlockEnd
  0
BLOCK
  5
42
330
40
100
AcDbEntity
  8
0
100
AcDbBlockBegin
  2
block 2
 70
     0
 10
0.0
 20
0.0
 30
0.0
  3
block 2
  1

  0
INSERT
  5
45
330
40
100
AcDbEntity
  8
0
100
AcDbBlockReference
  2
block 3
 10
0.0
 20
0.0
 30
0.0
  0
INSERT
  5
4A
330
40
100
AcDbEntity
  8
0
100
AcDbBlockReference
  2
block 4
 10
0.0
 20
0.0
 30
0.0
  0
INSERT
  5
4F
330
40
100
AcDbEntity
  8
0
100
AcDbBlockReference
  2
block 5
 10
0.0
 20
0.0
 30
0.0
  0
INSERT
  5
54
330
40
100
AcDbEntity
  8
0
100
AcDbBlockReference
  2
block 6
 10
0.0
 20
0.0
 30
0.0
  0
INSERT
  5
59
330
40
100
AcDbEntity
  8
0
100
AcDbBlockReference
  2
block 7
 10
0.0
 20
0.0
 30
0.0
  0
INSERT
  5
5E
330
40
100
AcDbEntity
  8
0
100
AcDbBlockReference
  2
block 8
 10
0.0
 20
0.0
 30
0.0
  0
INSERT
  5
63
330
40
100
AcDbEntity
  8
0
100
AcDbBlockReference
  2
block 9
 10
0.0
 20
0.0
 30
0.0
  0
INSERT
  5
68
330
40
100
AcDbEntity
  8
0
100
AcDbBlockReference
  2
block 10
 10
0.0
 20
0.0
 30
0.0
  0
INSERT
  5
6D
330
40
100
AcDbEntity
  8
0
100
AcDbBlockReference
  2
block 11
 10
0.0
 20
0.0
 30
0.0
  0
INSERT
  5
72
330
40
100
AcDbEntity
  8
0
100
AcDbBlockReference
  2
block 12
 10
0.0
 20
0.0
 30
0.0
  0
INSERT
  5
77
330
40
100
AcDbEntity
  8
0
100
AcDbBlockReference
  2
block 13
 10
0.0
 20
0.0
 30
0.0
  0
INSERT
  5
7C
330
40
100
AcDbEntity
  8
0
100
AcDbBlockReference
  2
block 14
 10
0.0
 20
0.0
 30
0.0
  0
INSERT
  5
81
330
40
100
AcDbEntity
  8
0
100
AcDbBlockReference
  2
block 15
 10
0.0
 20
0.0
 30
0.0
  0
INSERT
  5
86
330
40
100
AcDbEntity
  8
0
100
AcDbBlockReference
  2
block 16
 10
0.0
 20
0.0
 30
0.0
  0
INSERT
  5
8B
330
40
100
AcDbEntity
  8
0
100
AcDbBlockReference
  2
block 17
 10
0.0
 20
0.0
 30
0.0
  0
INSERT
  5
90
330
40
100
AcDbEntity
  8
0
100
AcDbBlockReference
  2
block 18
 10
0.0
 20
0.0
 30
0.0
  0
INSERT
  5
95
330
40
100
AcDbEntity
  8
0
100
AcDbBlockReference
  2
block 19
 10
0.0
 20
0.0
 30
0.0
  0
INSERT
  5
9A
330
40
100
AcDbEntity
  8
0
100
AcDbBlockReference
  2
block 20
 10
0.0
 20
0.0
 30
0.0
  0
INSERT
  5
9F
330
40
100
AcDbEntity
  8
0
100
AcDbBlockReference
  2
block 21
 10
0.0
 20
0.0
 30
0.0
  0
INSERT
  5
A4
330
40
100
AcDbEntity
  8
0
100
AcDbBlockReference
  2
block 22
 10
0.0
 20
0.0
 30
0.0
  0
INSERT
  5
A9
330
40
100
AcDbEntity
  8
0
100
AcDbBlockReference
  2
block 23
 10
0.0
 20
0.0
 30
0.0
  0
INSERT
  5
AE
330
40
100
AcDbEntity
  8
0
100
AcDbBlockReference
  2
block 24
 10
0.0
 20
0.0
 30
0.0
  0
INSERT
  5
B3
330
40
100
AcDbEntity
  8
0
100
AcDbBlockReference
  2
block 25
 10
0.0
 20
0.0
 30
0.0
  0
INSERT
  5
B8
330
40
100
AcDbEntity
  8
0
100
AcDbBlockReference
  2
block 26
 10
0.0
 20
0.0
 30
0.0
  0
INSERT
  5
BD
330
40
100
AcDbEntity
  8
0
100
AcDbBlockReference
  2
block 27
 10
0.0
 20
0.0
 30
0.0
  0
INSERT
  5
C2
330
40
100
AcDbEntity
  8
0
100
AcDbBlockReference
  2
block 28
 10
0.0
 20
0.0
 30
0.0
  0
INSERT
  5
C7
330
40
100
AcDbEntity
  8
0
100
AcDbBlockReference
  2
block 29
 10
0.0
 20
0.0
 30
0.0
  0
INSERT
  5
CC
330
40
100
AcDbEntity
  8
0
100
AcDbBlockReference
  2
block 30
 10
0.0
 20
0.0
 30
0.0
  0
INSERT
  5
D1
330
40
100
AcDbEntity
  8
0
100
AcDbBlockReference
  2
block 31
 10
0.0
 20
0.0
 30
0.0
  0
INSERT
  5
D6
330
40
100
AcDbEntity
  8
0
100
AcDbBlockReference
  2
block 32
 10
0.0
 20
0.0
 30
0.0
  0
INSERT
  5
DB
330
40
100
AcDbEntity
  8
0
100
AcDbBlockReference
  2
block 33
 10
0.0
 20
0.0
 30
0.0
  0
INSERT
  5
E0
330
40
100
AcDbEntity
  8
0
100
AcDbBlockReference
  2
block 34
 10
0.0
 20
0.0
 30
0.0
  0
INSERT
  5
E5
330
40
100
AcDbEntity
  8
0
100
AcDbBlockReference
  2
block 35
 10
0.0
 20
0.0
 30
0.0
  0
INSERT
  5
EA
330
40
100
AcDbEntity
  8
0
100
AcDbBlockReference
  2
block 36
 10
0.0
 20
0.0
 30
0.0
  0
INSERT
  5
EF
330
40
100
AcDbEntity
  8
0
100
AcDbBlockReference
  2
block 37
 10
0.0
 20
0.0
 30
0.0
  0
INSERT
  5
F4
330
40
100
AcDbEntity
  8
0
100
AcDbBlockReference
  2
block 38
 10
0.0
 20
0.0
 30
0.0
  0
INSERT
  5
F9
330
40
100
AcDbEntity
  8
0
100
AcDbBlockReference
  2
block 39
 10
0.0
 20
0.0
 30
0.0
  0
INSERT
  5
FE
330
40
100
AcDbEntity
  8
0
100
AcDbBlockReference
  2
block 40
 10
0.0
 20
0.0
 30
0.0
  0
INSERT
  5
103
330
40
100
AcDbEntity
  8
0
100
AcDbBlockReference
  2
block 41
 10
0.0
 20
0.0
 30
0.0
  0
INSERT
  5
108
330
40
100
AcDbEntity
  8
0
100
AcDbBlockReference
  2
block 42
 10
0.0
 20
0.0
 30
0.0
  0
INSERT
  5
10D
330
40
100
AcDbEntity
  8
0
100
AcDbBlockReference
  2
block 43
 10
0.0
 20
0.0
 30
0.0
  0
INSERT
  5
112
330
40
100
AcDbEntity
  8
0
100
AcDbBlockReference
  2
block 44
 10
0.0
 20
0.0
 30
0.0
  0
INSERT
  5
117
330
40
100
AcDbEntity
  8
0
100
AcDbBlockReference
  2
block 45
 10
0.0
 20
0.0
 30
0.0
  0
INSERT
  5
11C
330
40
100
AcDbEntity
  8
0
100
AcDbBlockReference
  2
block 46
 10
0.0
 20
0.0
 30
0.0
  0
INSERT
  5
121
330
40
100
AcDbEntity
  8
0
100
AcDbBlockReference
  2
block 47
 10
0.0
 20
0.0
 30
0.0
  0
INSERT
  5
126
330
40
100
AcDbEntity
  8
0
100
AcDbBlockReference
  2
block 48
 10
0.0
 20
0.0
 30
0.0
  0
INSERT
  5
12B
330
40
100
AcDbEntity
  8
0
100
AcDbBlockReference
  2
block 49
 10
0.0
 20
0.0
 30
0.0
  0
INSERT
  5
130
330
40
100
AcDbEntity
  8
0
100
AcDbBlockReference
  2
block 50
 10
0.0
 20
0.0
 30
0.0
  0
INSERT
  5
135
330
40
100
AcDbEntity
  8
0
100
AcDbBlockReference
  2
block 51
 10
0.0
 20
0.0
 30
0.0
  0
INSERT
  5
13A
330
40
100
AcDbEntity
  8
0
100
AcDbBlockReference
  2
block 52
 10
0.0
 20
0.0
 30
0.0
  0
INSERT
  5
13F
330
40
100
AcDbEntity
  8
0
100
AcDbBlockReference
  2
block 53
 10
0.0
 20
0.0
 30
0.0
  0
INSERT
  5
144
330
40
100
AcDbEntity
  8
0
100
AcDbBlockReference
  2
block 54
 10
0.0
 20
0.0
 30
0.0
  0
INSERT
  5
149
330
40
100
AcDbEntity
  8
0
100
AcDbBlockReference
  2
block 55
 10
0.0
 20
0.0
 30
0.0
  0
INSERT
  5
14E
330
40
100
AcDbEntity
  8
0
100
AcDbBlockReference
  2
block 56
 10
0.0
 20
0.0
 30
0.0
  0
INSERT
  5
153
330
40
100
AcDbEntity
  8
0
100
AcDbBlockReference
  2
block 57
 10
0.0
 20
0.0
 30
0.0
  0
INSERT
  5
158
330
40
100
AcDbEntity
  8
0
100
AcDbBlockReference
  2
block 58
 10
0.0
 20
0.0
 30
0.0
  0
INSERT
  5
15D
330
40
100
AcDbEntity
  8
0
100
AcDbBlockReference
  2
block 59
 10
0.0
 20
0.0
 30
0.0
  0
INSERT
  5
162
330
40
100
AcDbEntity
  8
0
100
AcDbBlockReference
  2
block 60
 10
0.0
 20
0.0
 30
0.0
  0
INSERT
  5
167
330
40
100
AcDbEntity
  8
0
100
AcDbBlockReference
  2
block 61
 10
0.0
 20
0.0
 30
0.0
  0
INSERT
  5
16C
330
40
100
AcDbEntity
  8
0
100
AcDbBlockReference
  2
block 62
 10
0.0
 20
0.0
 30
0.0
  0
INSERT
  5
171
330
40
100
AcDbEntity
  8
0
100
AcDbBlockReference
  2
block 63
 10
0.0
 20
0.0
 30
0.0
  0
INSERT
  5
176
330
40
100
AcDbEntity
  8
0
100
AcDbBlockReference
  2
block 64
 10
0.0
 20
0.0
 30
0.0
  0
INSERT
  5
17B
330
40
100
AcDbEntity
  8
0
100
AcDbBlockReference
  2
block 65
 10
0.0
 20
0.0
 30
0.0
  0
INSERT
  5
180
330
40
100
AcDbEntity
  8
0
100
AcDbBlockReference
  2
block 66
 10
0.0
 20
0.0
 30
0.0
  0
INSERT
  5
185
330
40
100
AcDbEntity
  8
0
100
AcDbBlockReference
  2
block 67
 10
0.0
 20
0.0
 30
0.0
  0
INSERT
  5
18A
330
40
100
AcDbEntity
  8
0
100
AcDbBlockReference
  2
block 68
 10
0.0
 20
0.0
 30
0.0
  0
INSERT
  5
18F
330
40
100
AcDbEntity
  8
0
100
AcDbBlockReference
  2
block 69
 10
0.0
 20
0.0
 30
0.0
  0
INSERT
  5
194
330
40
100
AcDbEntity
  8
0
100
AcDbBlockReference
  2
block 70
 10
0.0
 20
0.0
 30
0.0
  0
INSERT
  5
199
330
40
100
AcDbEntity
  8
0
100
AcDbBlockReference
  2
block 71
 10
0.0
 20
0.0
 30
0.0
  0
INSERT
  5
19E
330
40
100
AcDbEntity
  8
0
100
AcDbBlockReference
  2
block 72
 10
0.0
 20
0.0
 30
0.0
  0
INSERT
  5
1A3
330
40
100
AcDbEntity
  8
0
100
AcDbBlockReference
  2
block 73
 10
0.0
 20
0.0
 30
0.0
  0
INSERT
  5
1A8
330
40
100
AcDbEntity
  8
0
100
AcDbBlockReference
  2
block 74
 10
0.0
 20
0.0
 30
0.0
  0
INSERT
  5
1AD
330
40
100
AcDbEntity
  8
0
100
AcDbBlockReference
  2
block 75
 10
0.0
 20
0.0
 30
0.0
  0
INSERT
  5
1B2
330
40
100
AcDbEntity
  8
0
100
AcDbBlockReference
  2
block 76
 10
0.0
 20
0.0
 30
0.0
  0
INSERT
  5
1B7
330
40
100
AcDbEntity
  8
0
100
AcDbBlockReference
  2
block 77
 10
0.0
 20
0.0
 30
0.0
  0
INSERT
  5
1BC
330
40
100
AcDbEntity
  8
0
100
AcDbBlockReference
  2
block 78
 10
0.0
 20
0.0
 30
0.0
  0
INSERT
  5
1C1
330
40
100
AcDbEntity
  8
0
100
AcDbBlockReference
  2
block 79
 10
0.0
 20
0.0
 30
0.0
  0
INSERT
  5
1C6
330
40
100
AcDbEntity
  8
0
100
AcDbBlockReference
  2
block 80
 10
0.0
 20
0.0
 30
0.0
  0
INSERT
  5
1CB
330
40
100
AcDbEntity
  8
0
100
AcDbBlockReference
  2
block 81
 10
0.0
 20
0.0
 30
0.0
  0
INSERT
  5
1D0
330
40
100
AcDbEntity
  8
0
100
AcDbBlockReference
  2
block 82
 10
0.0
 20
0.0
 30
0.0
  0
INSERT
  5
1D5
330
40
100
AcDbEntity
  8
0
100
AcDbBlockReference
  2
block 83
 10
0.0
 20
0.0
 30
0.0
  0
INSERT
  5
1DA
330
40
100
AcDbEntity
  8
0
100
AcDbBlockReference
  2
block 84
 10
0.0
 20
0.0
 30
0.0
  0
INSERT
  5
1DF
330
40
100
AcDbEntity
  8
0
100
AcDbBlockReference
  2
block 85
 10
0.0
 20
0.0
 30
0.0
  0
INSERT
  5
1E4
330
40
100
AcDbEntity
  8
0
100
AcDbBlockReference
  2
block 86
 10
0.0
 20
0.0
 30
0.0
  0
INSERT
  5
1E9
330
40
100
AcDbEntity
  8
0
100
AcDbBlockReference
  2
block 87
 10
0.0
 20
0.0
 30
0.0
  0
INSERT
  5
1EE
330
40
100
AcDbEntity
  8
0
100
AcDbBlockReference
  2
block 88
 10
0.0
 20
0.0
 30
0.0
  0
INSERT
  5
1F3
330
40
100
AcDbEntity
  8
0
100
AcDbBlockReference
  2
block 89
 10
0.0
 20
0.0
 30
0.0
  0
INSERT
  5
1F8
330
40
100
AcDbEntity
  8
0
100
AcDbBlockReference
  2
block 90
 10
0.0
 20
0.0
 30
0.0
  0
INSERT
  5
1FD
330
40
100
AcDbEntity
  8
0
100
AcDbBlockReference
  2
block 91
 10
0.0
 20
0.0
 30
0.0
  0
INSERT
  5
202
330
40
100
AcDbEntity
  8
0
100
AcDbBlockReference
  2
block 92
 10
0.0
 20
0.0
 30
0.0
  0
INSERT
  5
207
330
40
100
AcDbEntity
  8
0
100
AcDbBlockReference
  2
block 93
 10
0.0
 20
0.0
 30
0.0
  0
INSERT
  5
20C
330
40
100
AcDbEntity
  8
0
100
AcDbBlockReference
  2
block 94
 10
0.0
 20
0.0
 30
0.0
  0
INSERT
  5
211
330
40
100
AcDbEntity
  8
0
100
AcDbBlockReference
  2
block 95
 10
0.0
 20
0.0
 30
0.0
  0
INSERT
  5
216
330
40
100
AcDbEntity
  8
0
100
AcDbBlockReference
  2
block 96
 10
0.0
 20
0.0
 30
0.0
  0
INSERT
  5
21B
330
40
100
AcDbEntity
  8
0
100
AcDbBlockReference
  2
block 97
 10
0.0
 20
0.0
 30
0.0
  0
INSERT
  5
220
330
40
100
AcDbEntity
  8
0
100
AcDbBlockReference
  2
block 98
 10
0.0
 20
0.0
 30
0.0
  0
INSERT
  5
225
330
40
100
AcDbEntity
  8
0
100
AcDbBlockReference
  2
block 99
 10
0.0
 20
0.0
 30
0.0
  0
INSERT
  5
22A
330
40
100
AcDbEntity
  8
0
100
AcDbBlockReference
  2
block 100
 10
0.0
 20
0.0
 30
0.0
  0
INSERT
  5
22F
330
40
100
AcDbEntity
  8
0
100
AcDbBlockReference
  2
block 101
 10
0.0
 20
0.0
 30
0.0
  0
INSERT
  5
234
330
40
100
AcDbEntity
  8
0
100
AcDbBlockReference
  2
block 102
 10
0.0
 20
0.0
 30
0.0
  0
INSERT
  5
239
330
40
100
AcDbEntity
  8
0
100
AcDbBlockReference
  2
block 103
 10
0.0
 20
0.0
 30
0.0
  0
INSERT
  5
23E
330
40
100
AcDbEntity
  8
0
100
AcDbBlockReference
  2
block 104
 10
0.0
 20
0.0
 30
0.0
  0
INSERT
  5
243
330
40
100
AcDbEntity
  8
0
100
AcDbBlockReference
  2
block 105
 10
0.0
 20
0.0
 30
0.0
  0
INSERT
  5
248
330
40
100
AcDbEntity
  8
0
100
AcDbBlockReference
  2
block 106
 10
0.0
 20
0.0
 30
0.0
  0
INSERT
  5
24D
330
40
100
AcDbEntity
  8
0
100
AcDbBlockReference
  2
block 107
 10
0.0
 20
0.0
 30
0.0
  0
INSERT
  5
252
330
40
100
AcDbEntity
  8
0
100
AcDbBlockReference
  2
block 108
 10
0.0
 20
0.0
 30
0.0
  0
INSERT
  5
257
330
40
100
AcDbEntity
  8
0
100
AcDbBlockReference
  2
block 109
 10
0.0
 20
0.0
 30
0.0
  0
INSERT
  5
25C
330
40
100
AcDbEntity
  8
0
100
AcDbBlockReference
  2
block 110
 10
0.0
 20
0.0
 30
0.0
  0
INSERT
  5
261
330
40
100
AcDbEntity
  8
0
100
AcDbBlockReference
  2
block 111
 10
0.0
 20
0.0
 30
0.0
  0
INSERT
  5
266
330
40
100
AcDbEntity
  8
0
100
AcDbBlockReference
  2
block 112
 10
0.0
 20
0.0
 30
0.0
  0
INSERT
  5
26B
330
40
100
AcDbEntity
  8
0
100
AcDbBlockReference
  2
block 113
 10
0.0
 20
0.0
 30
0.0
  0
INSERT
  5
270
330
40
100
AcDbEntity
  8
0
100
AcDbBlockReference
  2
block 114
 10
0.0
 20
0.0
 30
0.0
  0
INSERT
  5
275
330
40
100
AcDbEntity
  8
0
100
AcDbBlockReference
  2
block 115
 10
0.0
 20
0.0
 30
0.0
  0
INSERT
  5
27A
330
40
100
AcDbEntity
  8
0
100
AcDbBlockReference
  2
block 116
 10
0.0
 20
0.0
 30
0.0
  0
INSERT
  5
27F
330
40
100
AcDbEntity
  8
0
100
AcDbBlockReference
  2
block 117
 10
0.0
 20
0.0
 30
0.0
  0
INSERT
  5
284
330
40
100
AcDbEntity
  8
0
100
AcDbBlockReference
  2
block 118
 10
0.0
 20
0.0
 30
0.0
  0
INSERT
  5
289
330
40
100
AcDbEntity
  8
0
100
AcDbBlockReference
  2
block 119
 10
0.0
 20
0.0
 30
0.0
  0
INSERT
  5
28E
330
40
100
AcDbEntity
  8
0
100
AcDbBlockReference
  2
block 120
 10
0.0
 20
0.0
 30
0.0
  0
INSERT
  5
293
330
40
100
AcDbEntity
  8
0
100
AcDbBlockReference
  2
block 121
 10
0.0
 20
0.0
 30
0.0
  0
INSERT
  5
298
330
40
100
AcDbEntity
  8
0
100
AcDbBlockReference
  2
block 122
 10
0.0
 20
0.0
 30
0.0
  0
INSERT
  5
29D
330
40
100
AcDbEntity
  8
0
100
AcDbBlockReference
  2
block 123
 10
0.0
 20
0.0
 30
0.0
  0
INSERT
  5
2A2
330
40
100
AcDbEntity
  8
0
100
AcDbBlockReference
  2
block 124
 10
0.0
 20
0.0
 30
0.0
  0
INSERT
  5
2A7
330
40
100
AcDbEntity
  8
0
100
AcDbBlockReference
  2
block 125
 10
0.0
 20
0.0
 30
0.0
  0
INSERT
  5
2AC
330
40
100
AcDbEntity
  8
0
100
AcDbBlockReference
  2
block 126
 10
0.0
 20
0.0
 30
0.0
  0
INSERT
  5
2B1
330
40
100
AcDbEntity
  8
0
100
AcDbBlockReference
  2
block 127
 10
0.0
 20
0.0
 30
0.0
  0
INSERT
  5
2B6
330
40
100
AcDbEntity
  8
0
100
AcDbBlockReference
  2
block 128
 10
0.0
 20
0.0
 30
0.0
  0
INSERT
  5
2BB
330
40
100
AcDbEntity
  8
0
100
AcDbBlockReference
  2
block 129
 10
0.0
 20
0.0
 30
0.0
  0
INSERT
  5
2C0
330
40
100
AcDbEntity
  8
0
100
AcDbBlockReference
  2
block 130
 10
0.0
 20
0.0
 30
0.0
  0
INSERT
  5
2C5
330
40
100
AcDbEntity
  8
0
100
AcDbBlockReference
  2
block 131
 10
0.0
 20
0.0
 30
0.0
  0
INSERT
  5
2CA
330
40
100
AcDbEntity
  8
0
100
AcDbBlockReference
  2
block 132
 10
0.0
 20
0.0
 30
0.0
  0
INSERT
  5
2CF
330
40
100
AcDbEntity
  8
0
100
AcDbBlockReference
  2
block 133
 10
0.0
 20
0.0
 30
0.0
  0
INSERT
  5
2D4
330
40
100
AcDbEntity
  8
0
100
AcDbBlockReference
  2
block 134
 10
0.0
 20
0.0
 30
0.0
  0
INSERT
  5
2D9
330
40
100
AcDbEntity
  8
0
100
AcDbBlockReference
  2
block 135
 10
0.0
 20
0.0
 30
0.0
  0
INSERT
  5
2DE
330
40
100
AcDbEntity
  8
0
100
AcDbBlockReference
  2
block 136
 10
0.0
 20
0.0
 30
0.0
  0
INSERT
  5
2E3
330
40
100
AcDbEntity
  8
0
100
AcDbBlockReference
  2
block 137
 10
0.0
 20
0.0
 30
0.0
  0
INSERT
  5
2E8
330
40
100
AcDbEntity
  8
0
100
AcDbBlockReference
  2
block 138
 10
0.0
 20
0.0
 30
0.0
  0
INSERT
  5
2ED
330
40
100
AcDbEntity
  8
0
100
AcDbBlockReference
  2
block 139
 10
0.0
 20
0.0
 30
0.0
  0
INSERT
  5
2F2
330
40
100
AcDbEntity
  8
0
100
AcDbBlockReference
  2
block 140
 10
0.0
 20
0.0
 30
0.0
  0
INSERT
  5
2F7
330
40
100
AcDbEntity
  8
0
100
AcDbBlockReference
  2
block 141
 10
0.0
 20
0.0
 30
0.0
  0
INSERT
  5
2FC
330
40
100
AcDbEntity
  8
0
100
AcDbBlockReference
  2
block 142
 10
0.0
 20
0.0
 30
0.0
  0
INSERT
  5
301
330
40
100
AcDbEntity
  8
0
100
AcDbBlockReference
  2
block 143
 10
0.0
 20
0.0
 30
0.0
  0
INSERT
  5
306
330
40
100
AcDbEntity
  8
0
100
AcDbBlockReference
  2
block 144
 10
0.0
 20
0.0
 30
0.0
  0
INSERT
  5
30B
330
40
100
AcDbEntity
  8
0
100
AcDbBlockReference
  2
block 145
 10
0.0
 20
0.0
 30
0.0
  0
INSERT
  5
310
330
40
100
AcDbEntity
  8
0
100
AcDbBlockReference
  2
block 146
 10
0.0
 20
0.0
 30
0.0
  0
INSERT
  5
315
330
40
100
AcDbEntity
  8
0
100
AcDbBlockReference
  2
block 147
 10
0.0
 20
0.0
 30
0.0
  0
INSERT
  5
31A
330
40
100
AcDbEntity
  8
0
100
AcDbBlockReference
  2
block 148
 10
0.0
 20
0.0
 30
0.0
  0
INSERT
  5
31F
330
40
100
AcDbEntity
  8
0
100
AcDbBlockReference
  2
block 149
 10
0.0
 20
0.0
 30
0.0
  0
INSERT
  5
324
330
40
100
AcDbEntity
  8
0
100
AcDbBlockReference
  2
block 150
 10
0.0
 20
0.0
 30
0.0
  0
INSERT
  5
329
330
40
100
AcDbEntity
  8
0
100
AcDbBlockReference
  2
block 151
 10
0.0
 20
0.0
 30
0.0
  0
INSERT
  5
32E
330
40
100
AcDbEntity
  8
0
100
AcDbBlockReference
  2
block 152
 10
0.0
 20
0.0
 30
0.0
  0
INSERT
  5
333
330
40
100
AcDbEntity
  8
0
100
AcDbBlockReference
  2
block 153
 10
0.0
 20
0.0
 30
0.0
  0
INSERT
  5
338
330
40
100
AcDbEntity
  8
0
100
AcDbBlockReference
  2
block 154
 10
0.0
 20
0.0
 30
0.0
  0
INSERT
  5
33D
330
40
100
AcDbEntity
  8
0
100
AcDbBlockReference
  2
block 155
 10
0.0
 20
0.0
 30
0.0
  0
INSERT
  5
342
330
40
100
AcDbEntity
  8
0
100
AcDbBlockReference
  2
block 156
 10
0.0
 20
0.0
 30
0.0
  0
INSERT
  5
347
330
40
100
AcDbEntity
  8
0
100
AcDbBlockReference
  2
block 157
 10
0.0
 20
0.0
 30
0.0
  0
INSERT
  5
34C
330
40
100
AcDbEntity
  8
0
100
AcDbBlockReference
  2
block 158
 10
0.0
 20
0.0
 30
0.0
  0
INSERT
  5
351
330
40
100
AcDbEntity
  8
0
100
AcDbBlockReference
  2
block 159
 10
0.0
 20
0.0
 30
0.0
  0
INSERT
  5
356
330
40
100
AcDbEntity
  8
0
100
AcDbBlockReference
  2
block 160
 10
0.0
 20
0.0
 30
0.0
  0
INSERT
  5
35B
330
40
100
AcDbEntity
  8
0
100
AcDbBlockReference
  2
block 161
 10
0.0
 20
0.0
 30
0.0
  0
INSERT
  5
360
330
40
100
AcDbEntity
  8
0
100
AcDbBlockReference
  2
block 162
 10
0.0
 20
0.0
 30
0.0
  0
INSERT
  5
365
330
40
100
AcDbEntity
  8
0
100
AcDbBlockReference
  2
block 163
 10
0.0
 20
0.0
 30
0.0
  0
INSERT
  5
36A
330
40
100
AcDbEntity
  8
0
100
AcDbBlockReference
  2
block 164
 10
0.0
 20
0.0
 30
0.0
  0
INSERT
  5
36F
330
40
100
AcDbEntity
  8
0
100
AcDbBlockReference
  2
block 165
 10
0.0
 20
0.0
 30
0.0
  0
INSERT
  5
374
330
40
100
AcDbEntity
  8
0
100
AcDbBlockReference
  2
block 166
 10
0.0
 20
0.0
 30
0.0
  0
INSERT
  5
379
330
40
100
AcDbEntity
  8
0
100
AcDbBlockReference
  2
block 167
 10
0.0
 20
0.0
 30
0.0
  0
INSERT
  5
37E
330
40
100
AcDbEntity
  8
0
100
AcDbBlockReference
  2
block 168
 10
0.0
 20
0.0
 30
0.0
  0
INSERT
  5
383
330
40
100
AcDbEntity
  8
0
100
AcDbBlockReference
  2
block 169
 10
0.0
 20
0.0
 30
0.0
  0
INSERT
  5
388
330
40
100
AcDbEntity
  8
0
100
AcDbBlockReference
  2
block 170
 10
0.0
 20
0.0
 30
0.0
  0
ENDBLK
  5
43
330
40
100
AcDbEntity
  8
0
100
AcDbBlockEnd
  0
BLOCK
  5
46
330
44
100
AcDbEntity
  8
0
100
AcDbBlockBegin
  2
block 3
 70
     0
 10
0.0
 20
0.0
 30
0.0
  3
block 3
  1

  0
SPLINE
  5
48
330
44
100
AcDbEntity
  8
0
 62
     7
420
 16777215
370
    25
100
AcDbSpline
210
0.0
220
0.0
230
1.0
 70
     8
 71
     3
 72
     8
 73
     4
 74
     0
 42
0.0000000001
 43
0.0000000001
 12
1.0
 22
0.0
 32
0.0
 13
1.0
 23
0.0
 33
0.0
 40
0.0
 40
0.0
 40
0.0
 40
0.0
 40
1.0
 40
1.0
 40
1.0
 40
1.0
 10
292.29588064799
 20
202.7436797761171
 30
0.0
 10
292.1266820806808
 20
203.1211175405985
 30
0.0
 10
291.9134715770343
 20
203.4772373904977
 30
0.0
 10
291.6606848112418
 20
203.8046305368468
 30
0.0
  0
ENDBLK
  5
47
330
44
100
AcDbEntity
  8
0
100
AcDbBlockEnd
  0
BLOCK
  5
4B
330
49
100
AcDbEntity
  8
0
100
AcDbBlockBegin
  2
block 4
 70
     0
 10
0.0
 20
0.0
 30
0.0
  3
block 4
  1

  0
SPLINE
  5
4D
330
49
100
AcDbEntity
  8
0
 62
     7
420
 16777215
370
    25
100
AcDbSpline
210
0.0
220
0.0
230
1.0
 70
     8
 71
     3
 72
     8
 73
     4
 74
     0
 42
0.0000000001
 43
0.0000000001
 12
1.0
 22
0.0
 32
0.0
 13
1.0
 23
0.0
 33
0.0
 40
0.0
 40
0.0
 40
0.0
 40
0.0
 40
1.0
 40
1.0
 40
1.0
 40
1.0
 10
292.5690780415457
 20
202.7641530904452
 30
0.0
 10
292.4779230292515
 20
202.7585764660344
 30
0.0
 10
292.3868486867865
 20
202.7517513875949
 30
0.0
 10
292.2958806479252
 20
202.7436797761133
 30
0.0
  0
ENDBLK
  5
4C
330
49
100
AcDbEntity
  8
0
100
AcDbBlockEnd
  0
BLOCK
  5
50
330
4E
100
AcDbEntity
  8
0
100
AcDbBlockBegin
  2
block 5
 70
     0
 10
0.0
 20
0.0
 30
0.0
  3
block 5
  1

  0
SPLINE
  5
52
330
4E
100
AcDbEntity
  8
0
 62
     7
420
 16777215
370
    25
100
AcDbSpline
210
0.0
220
0.0
230
1.0
 70
     8
 71
     3
 72
     8
 73
     4
 74
     0
 42
0.0000000001
 43
0.0000000001
 12
1.0
 22
0.0
 32
0.0
 13
1.0
 23
0.0
 33
0.0
 40
0.0
 40
0.0
 40
0.0
 40
0.0
 40
1.0
 40
1.0
 40
1.0
 40
1.0
 10
293.0390527599411
 20
203.907924934726
 30
0.0
 10
292.837884829924
 20
203.5465125868858
 30
0.0
 10
292.680132620902
 20
203.1625929248357
 30
0.0
 10
292.5690780415521
 20
202.7641530904266
 30
0.0
  0
ENDBLK
  5
51
330
4E
100
AcDbEntity
  8
0
100
AcDbBlockEnd
  0
BLOCK
  5
55
330
53
100
AcDbEntity
  8
0
100
AcDbBlockBegin
  2
block 6
 70
     0
 10
0.0
 20
0.0
 30
0.0
  3
block 6
  1

  0
SPLINE
  5
57
330
53
100
AcDbEntity
  8
0
 62
     7
420
 16777215
370
    25
100
AcDbSpline
210
0.0
220
0.0
230
1.0
 70
     8
 71
     3
 72
     8
 73
     4
 74
     0
 42
0.0000000001
 43
0.0000000001
 12
1.0
 22
0.0
 32
0.0
 13
1.0
 23
0.0
 33
0.0
 40
0.0
 40
0.0
 40
0.0
 40
0.0
 40
1.0
 40
1.0
 40
1.0
 40
1.0
 10
293.3203675711979
 20
203.9079249347401
 30
0.0
 10
293.2265997145212
 20
203.9091104639119
 30
0.0
 10
293.1328206165992
 20
203.9091104639119
 30
0.0
 10
293.0390527599218
 20
203.9079249347401
 30
0.0
  0
ENDBLK
  5
56
330
53
100
AcDbEntity
  8
0
100
AcDbBlockEnd
  0
BLOCK
  5
5A
330
58
100
AcDbEntity
  8
0
100
AcDbBlockBegin
  2
block 7
 70
     0
 10
0.0
 20
0.0
 30
0.0
  3
block 7
  1

  0
SPLINE
  5
5C
330
58
100
AcDbEntity
  8
0
 62
     7
420
 16777215
370
    25
100
AcDbSpline
210
0.0
220
0.0
230
1.0
 70
     8
 71
     3
 72
     8
 73
     4
 74
     0
 42
0.0000000001
 43
0.0000000001
 12
1.0
 22
0.0
 32
0.0
 13
1.0
 23
0.0
 33
0.0
 40
0.0
 40
0.0
 40
0.0
 40
0.0
 40
1.0
 40
1.0
 40
1.0
 40
1.0
 10
293.7903422895677
 20
202.7641530904266
 30
0.0
 10
293.6792877102183
 20
203.1625929248357
 30
0.0
 10
293.5215355011957
 20
203.5465125868858
 30
0.0
 10
293.3203675711787
 20
203.907924934726
 30
0.0
  0
ENDBLK
  5
5B
330
58
100
AcDbEntity
  8
0
100
AcDbBlockEnd
  0
BLOCK
  5
5F
330
5D
100
AcDbEntity
  8
0
100
AcDbBlockBegin
  2
block 8
 70
     0
 10
0.0
 20
0.0
 30
0.0
  3
block 8
  1

  0
SPLINE
  5
61
330
5D
100
AcDbEntity
  8
0
 62
     7
420
 16777215
370
    25
100
AcDbSpline
210
0.0
220
0.0
230
1.0
 70
     8
 71
     3
 72
     8
 73
     4
 74
     0
 42
0.0000000001
 43
0.0000000001
 12
1.0
 22
0.0
 32
0.0
 13
1.0
 23
0.0
 33
0.0
 40
0.0
 40
0.0
 40
0.0
 40
0.0
 40
1.0
 40
1.0
 40
1.0
 40
1.0
 10
294.0635396831945
 20
202.7436797761136
 30
0.0
 10
293.9725716443332
 20
202.7517513875952
 30
0.0
 10
293.8814973018683
 20
202.7585764660344
 30
0.0
 10
293.7903422895741
 20
202.7641530904455
 30
0.0
  0
ENDBLK
  5
60
330
5D
100
AcDbEntity
  8
0
100
AcDbBlockEnd
  0
BLOCK
  5
64
330
62
100
AcDbEntity
  8
0
100
AcDbBlockBegin
  2
block 9
 70
     0
 10
0.0
 20
0.0
 30
0.0
  3
block 9
  1

  0
SPLINE
  5
66
330
62
100
AcDbEntity
  8
0
 62
     7
420
 16777215
370
    25
100
AcDbSpline
210
0.0
220
0.0
230
1.0
 70
     8
 71
     3
 72
     8
 73
     4
 74
     0
 42
0.0000000001
 43
0.0000000001
 12
1.0
 22
0.0
 32
0.0
 13
1.0
 23
0.0
 33
0.0
 40
0.0
 40
0.0
 40
0.0
 40
0.0
 40
1.0
 40
1.0
 40
1.0
 40
1.0
 10
294.6987355199781
 20
203.8046305368468
 30
0.0
 10
294.4459487541855
 20
203.4772373904977
 30
0.0
 10
294.2327382505391
 20
203.1211175405985
 30
0.0
 10
294.0635396832305
 20
202.7436797761171
 30
0.0
  0
ENDBLK
  5
65
330
62
100
AcDbEntity
  8
0
100
AcDbBlockEnd
  0
BLOCK
  5
69
330
67
100
AcDbEntity
  8
0
100
AcDbBlockBegin
  2
block 10
 70
     0
 10
0.0
 20
0.0
 30
0.0
  3
block 10
  1

  0
SPLINE
  5
6B
330
67
100
AcDbEntity
  8
0
 62
     7
420
 16777215
370
    25
100
AcDbSpline
210
0.0
220
0.0
230
1.0
 70
     8
 71
     3
 72
     8
 73
     4
 74
     0
 42
0.0000000001
 43
0.0000000001
 12
1.0
 22
0.0
 32
0.0
 13
1.0
 23
0.0
 33
0.0
 40
0.0
 40
0.0
 40
0.0
 40
0.0
 40
1.0
 40
1.0
 40
1.0
 40
1.0
 10
294.9769082771963
 20
203.7627027398672
 30
0.0
 10
294.884364423966
 20
203.7778504015098
 30
0.0
 10
294.7916327610912
 20
203.791827450783
 30
0.0
 10
294.6987355199524
 20
203.8046305368458
 30
0.0
  0
ENDBLK
  5
6A
330
67
100
AcDbEntity
  8
0
100
AcDbBlockEnd
  0
BLOCK
  5
6E
330
6C
100
AcDbEntity
  8
0
100
AcDbBlockBegin
  2
block 11
 70
     0
 10
0.0
 20
0.0
 30
0.0
  3
block 11
  1

  0
SPLINE
  5
70
330
6C
100
AcDbEntity
  8
0
 62
     7
420
 16777215
370
    25
100
AcDbSpline
210
0.0
220
0.0
230
1.0
 70
     8
 71
     3
 72
     8
 73
     4
 74
     0
 42
0.0000000001
 43
0.0000000001
 12
1.0
 22
0.0
 32
0.0
 13
1.0
 23
0.0
 33
0.0
 40
0.0
 40
0.0
 40
0.0
 40
0.0
 40
1.0
 40
1.0
 40
1.0
 40
1.0
 10
295.2711634186838
 20
202.561659785007
 30
0.0
 10
295.2207336030843
 20
202.9722012018425
 30
0.0
 10
295.1219636123591
 20
203.3753445451985
 30
0.0
 10
294.9769082772567
 20
203.7627027398929
 30
0.0
  0
ENDBLK
  5
6F
330
6C
100
AcDbEntity
  8
0
100
AcDbBlockEnd
  0
BLOCK
  5
73
330
71
100
AcDbEntity
  8
0
100
AcDbBlockBegin
  2
block 12
 70
     0
 10
0.0
 20
0.0
 30
0.0
  3
block 12
  1

  0
SPLINE
  5
75
330
71
100
AcDbEntity
  8
0
 62
     7
420
 16777215
370
    25
100
AcDbSpline
210
0.0
220
0.0
230
1.0
 70
     8
 71
     3
 72
     8
 73
     4
 74
     0
 42
0.0000000001
 43
0.0000000001
 12
1.0
 22
0.0
 32
0.0
 13
1.0
 23
0.0
 33
0.0
 40
0.0
 40
0.0
 40
0.0
 40
0.0
 40
1.0
 40
1.0
 40
1.0
 40
1.0
 10
295.5382580339034
 20
202.500697182003
 30
0.0
 10
295.4495090441436
 20
202.5222367229149
 30
0.0
 10
295.3604691519931
 20
202.5425594972584
 30
0.0
 10
295.271163418612
 20
202.5616597849877
 30
0.0
  0
ENDBLK
  5
74
330
71
100
AcDbEntity
  8
0
100
AcDbBlockEnd
  0
BLOCK
  5
78
330
76
100
AcDbEntity
  8
0
100
AcDbBlockBegin
  2
block 13
 70
     0
 10
0.0
 20
0.0
 30
0.0
  3
block 13
  1

  0
SPLINE
  5
7A
330
76
100
AcDbEntity
  8
0
 62
     7
420
 16777215
370
    25
100
AcDbSpline
210
0.0
220
0.0
230
1.0
 70
     8
 71
     3
 72
     8
 73
     4
 74
     0
 42
0.0000000001
 43
0.0000000001
 12
1.0
 22
0.0
 32
0.0
 13
1.0
 23
0.0
 33
0.0
 40
0.0
 40
0.0
 40
0.0
 40
0.0
 40
1.0
 40
1.0
 40
1.0
 40
1.0
 10
296.324485763639
 20
203.45512697231
 30
0.0
 10
296.0257270006994
 20
203.1690664493385
 30
0.0
 10
295.7618209727599
 20
202.8487015405635
 30
0.0
 10
295.5382580338932
 20
202.5006971819677
 30
0.0
  0
ENDBLK
  5
79
330
76
100
AcDbEntity
  8
0
100
AcDbBlockEnd
  0
BLOCK
  5
7D
330
7B
100
AcDbEntity
  8
0
100
AcDbBlockBegin
  2
block 14
 70
     0
 10
0.0
 20
0.0
 30
0.0
  3
block 14
  1

  0
SPLINE
  5
7F
330
7B
100
AcDbEntity
  8
0
 62
     7
420
 16777215
370
    25
100
AcDbSpline
210
0.0
220
0.0
230
1.0
 70
     8
 71
     3
 72
     8
 73
     4
 74
     0
 42
0.0000000001
 43
0.0000000001
 12
1.0
 22
0.0
 32
0.0
 13
1.0
 23
0.0
 33
0.0
 40
0.0
 40
0.0
 40
0.0
 40
0.0
 40
1.0
 40
1.0
 40
1.0
 40
1.0
 10
296.593302547162
 20
203.3722079760902
 30
0.0
 10
296.5040499741282
 20
203.4009793964741
 30
0.0
 10
296.4144372184094
 20
203.4286212708361
 30
0.0
 10
296.3244857636602
 20
203.4551269723466
 30
0.0
  0
ENDBLK
  5
7E
330
7B
100
AcDbEntity
  8
0
100
AcDbBlockEnd
  0
BLOCK
  5
82
330
80
100
AcDbEntity
  8
0
100
AcDbBlockBegin
  2
block 15
 70
     0
 10
0.0
 20
0.0
 30
0.0
  3
block 15
  1

  0
SPLINE
  5
84
330
80
100
AcDbEntity
  8
0
 62
     7
420
 16777215
370
    25
100
AcDbSpline
210
0.0
220
0.0
230
1.0
 70
     8
 71
     3
 72
     8
 73
     4
 74
     0
 42
0.0000000001
 43
0.0000000001
 12
1.0
 22
0.0
 32
0.0
 13
1.0
 23
0.0
 33
0.0
 40
0.0
 40
0.0
 40
0.0
 40
0.0
 40
1.0
 40
1.0
 40
1.0
 40
1.0
 10
296.7052649379922
 20
202.1407232256109
 30
0.0
 10
296.716586404891
 20
202.5541954080167
 30
0.0
 10
296.6790049908445
 20
202.9675568765593
 30
0.0
 10
296.5933025471466
 20
203.3722079761258
 30
0.0
  0
ENDBLK
  5
83
330
80
100
AcDbEntity
  8
0
100
AcDbBlockEnd
  0
BLOCK
  5
87
330
85
100
AcDbEntity
  8
0
100
AcDbBlockBegin
  2
block 16
 70
     0
 10
0.0
 20
0.0
 30
0.0
  3
block 16
  1

  0
SPLINE
  5
89
330
85
100
AcDbEntity
  8
0
 62
     7
420
 16777215
370
    25
100
AcDbSpline
210
0.0
220
0.0
230
1.0
 70
     8
 71
     3
 72
     8
 73
     4
 74
     0
 42
0.0000000001
 43
0.0000000001
 12
1.0
 22
0.0
 32
0.0
 13
1.0
 23
0.0
 33
0.0
 40
0.0
 40
0.0
 40
0.0
 40
0.0
 40
1.0
 40
1.0
 40
1.0
 40
1.0
 10
296.9602903226336
 20
202.0406331377432
 30
0.0
 10
296.8757428877522
 20
202.0751594503344
 30
0.0
 10
296.7907264499739
 20
202.108525943386
 30
0.0
 10
296.7052649380154
 20
202.1407232255685
 30
0.0
  0
ENDBLK
  5
88
330
85
100
AcDbEntity
  8
0
100
AcDbBlockEnd
  0
BLOCK
  5
8C
330
8A
100
AcDbEntity
  8
0
100
AcDbBlockBegin
  2
block 17
 70
     0
 10
0.0
 20
0.0
 30
0.0
  3
block 17
  1

  0
SPLINE
  5
8E
330
8A
100
AcDbEntity
  8
0
 62
     7
420
 16777215
370
    25
100
AcDbSpline
210
0.0
220
0.0
230
1.0
 70
     8
 71
     3
 72
     8
 73
     4
 74
     0
 42
0.0000000001
 43
0.0000000001
 12
1.0
 22
0.0
 32
0.0
 13
1.0
 23
0.0
 33
0.0
 40
0.0
 40
0.0
 40
0.0
 40
0.0
 40
1.0
 40
1.0
 40
1.0
 40
1.0
 10
297.8799869171611
 20
202.8672215733725
 30
0.0
 10
297.5419299341514
 20
202.6288837931592
 30
0.0
 10
297.2332236064879
 20
202.3514302481812
 30
0.0
 10
296.9602903226894
 20
202.0406331377804
 30
0.0
  0
ENDBLK
  5
8D
330
8A
100
AcDbEntity
  8
0
100
AcDbBlockEnd
  0
BLOCK
  5
91
330
8F
100
AcDbEntity
  8
0
100
AcDbBlockBegin
  2
block 18
 70
     0
 10
0.0
 20
0.0
 30
0.0
  3
block 18
  1

  0
SPLINE
  5
93
330
8F
100
AcDbEntity
  8
0
 62
     7
420
 16777215
370
    25
100
AcDbSpline
210
0.0
220
0.0
230
1.0
 70
     8
 71
     3
 72
     8
 73
     4
 74
     0
 42
0.0000000001
 43
0.0000000001
 12
1.0
 22
0.0
 32
0.0
 13
1.0
 23
0.0
 33
0.0
 40
0.0
 40
0.0
 40
0.0
 40
0.0
 40
1.0
 40
1.0
 40
1.0
 40
1.0
 10
298.1334428041141
 20
202.745163651159
 30
0.0
 10
298.0494752662742
 20
202.7869161242955
 30
0.0
 10
297.9649832185923
 20
202.8276053499502
 30
0.0
 10
297.8799869170925
 20
202.867221573336
 30
0.0
  0
ENDBLK
  5
92
330
8F
100
AcDbEntity
  8
0
100
AcDbBlockEnd
  0
BLOCK
  5
96
330
94
100
AcDbEntity
  8
0
100
AcDbBlockBegin
  2
block 19
 70
     0
 10
0.0
 20
0.0
 30
0.0
  3
block 19
  1

  0
SPLINE
  5
98
330
94
100
AcDbEntity
  8
0
 62
     7
420
 16777215
370
    25
100
AcDbSpline
210
0.0
220
0.0
230
1.0
 70
     8
 71
     3
 72
     8
 73
     4
 74
     0
 42
0.0000000001
 43
0.0000000001
 12
1.0
 22
0.0
 32
0.0
 13
1.0
 23
0.0
 33
0.0
 40
0.0
 40
0.0
 40
0.0
 40
0.0
 40
1.0
 40
1.0
 40
1.0
 40
1.0
 10
298.0606113896518
 20
201.510746439343
 30
0.0
 10
298.1334312361856
 20
201.9179131020093
 30
0.0
 10
298.1578779055043
 20
202.3322588835937
 30
0.0
 10
298.1334428041827
 20
202.7451636511362
 30
0.0
  0
ENDBLK
  5
97
330
94
100
AcDbEntity
  8
0
100
AcDbBlockEnd
  0
BLOCK
  5
9B
330
99
100
AcDbEntity
  8
0
100
AcDbBlockBegin
  2
block 20
 70
     0
 10
0.0
 20
0.0
 30
0.0
  3
block 20
  1

  0
SPLINE
  5
9D
330
99
100
AcDbEntity
  8
0
 62
     7
420
 16777215
370
    25
100
AcDbSpline
210
0.0
220
0.0
230
1.0
 70
     8
 71
     3
 72
     8
 73
     4
 74
     0
 42
0.0000000001
 43
0.0000000001
 12
1.0
 22
0.0
 32
0.0
 13
1.0
 23
0.0
 33
0.0
 40
0.0
 40
0.0
 40
0.0
 40
0.0
 40
1.0
 40
1.0
 40
1.0
 40
1.0
 10
298.297870697859
 20
201.3737647138607
 30
0.0
 10
298.2194134678414
 20
201.4205065373606
 30
0.0
 10
298.140319611169
 20
201.4661713968018
 30
0.0
 10
298.0606113895896
 20
201.5107464393577
 30
0.0
  0
ENDBLK
  5
9C
330
99
100
AcDbEntity
  8
0
100
AcDbBlockEnd
  0
BLOCK
  5
A0
330
9E
100
AcDbEntity
  8
0
100
AcDbBlockBegin
  2
block 21
 70
     0
 10
0.0
 20
0.0
 30
0.0
  3
block 21
  1

  0
SPLINE
  5
A2
330
9E
100
AcDbEntity
  8
0
 62
     7
420
 16777215
370
    25
100
AcDbSpline
210
0.0
220
0.0
230
1.0
 70
     8
 71
     3
 72
     8
 73
     4
 74
     0
 42
0.0000000001
 43
0.0000000001
 12
1.0
 22
0.0
 32
0.0
 13
1.0
 23
0.0
 33
0.0
 40
0.0
 40
0.0
 40
0.0
 40
0.0
 40
1.0
 40
1.0
 40
1.0
 40
1.0
 10
299.3304916548595
 20
202.0540471749607
 30
0.0
 10
298.960688086163
 20
201.8687562096771
 30
0.0
 10
298.6140774480193
 20
201.6404118822172
 30
0.0
 10
298.2978706978429
 20
201.3737647138861
 30
0.0
  0
ENDBLK
  5
A1
330
9E
100
AcDbEntity
  8
0
100
AcDbBlockEnd
  0
BLOCK
  5
A5
330
A3
100
AcDbEntity
  8
0
100
AcDbBlockBegin
  2
block 22
 70
     0
 10
0.0
 20
0.0
 30
0.0
  3
block 22
  1

  0
SPLINE
  5
A7
330
A3
100
AcDbEntity
  8
0
 62
     7
420
 16777215
370
    25
100
AcDbSpline
210
0.0
220
0.0
230
1.0
 70
     8
 71
     3
 72
     8
 73
     4
 74
     0
 42
0.0000000001
 43
0.0000000001
 12
1.0
 22
0.0
 32
0.0
 13
1.0
 23
0.0
 33
0.0
 40
0.0
 40
0.0
 40
0.0
 40
0.0
 40
1.0
 40
1.0
 40
1.0
 40
1.0
 10
299.5629248597351
 20
201.8955768991218
 30
0.0
 10
299.4861180531307
 20
201.9493777437557
 30
0.0
 10
299.4086341262126
 20
202.0022053906386
 30
0.0
 10
299.3304916548859
 20
202.0540471749334
 30
0.0
  0
ENDBLK
  5
A6
330
A3
100
AcDbEntity
  8
0
100
AcDbBlockEnd
  0
BLOCK
  5
AA
330
A8
100
AcDbEntity
  8
0
100
AcDbBlockBegin
  2
block 23
 70
     0
 10
0.0
 20
0.0
 30
0.0
  3
block 23
  1

  0
SPLINE
  5
AC
330
A8
100
AcDbEntity
  8
0
 62
     7
420
 16777215
370
    25
100
AcDbSpline
210
0.0
220
0.0
230
1.0
 70
     8
 71
     3
 72
     8
 73
     4
 74
     0
 42
0.0000000001
 43
0.0000000001
 12
1.0
 22
0.0
 32
0.0
 13
1.0
 23
0.0
 33
0.0
 40
0.0
 40
0.0
 40
0.0
 40
0.0
 40
1.0
 40
1.0
 40
1.0
 40
1.0
 10
299.3069265732923
 20
200.6858020667721
 30
0.0
 10
299.4396181244227
 20
201.0775677792807
 30
0.0
 10
299.5255467789118
 20
201.4836420738349
 30
0.0
 10
299.5629248597537
 20
201.8955768991545
 30
0.0
  0
ENDBLK
  5
AB
330
A8
100
AcDbEntity
  8
0
100
AcDbBlockEnd
  0
BLOCK
  5
AF
330
AD
100
AcDbEntity
  8
0
100
AcDbBlockBegin
  2
block 24
 70
     0
 10
0.0
 20
0.0
 30
0.0
  3
block 24
  1

  0
SPLINE
  5
B1
330
AD
100
AcDbEntity
  8
0
 62
     7
420
 16777215
370
    25
100
AcDbSpline
210
0.0
220
0.0
230
1.0
 70
     8
 71
     3
 72
     8
 73
     4
 74
     0
 42
0.0000000001
 43
0.0000000001
 12
1.0
 22
0.0
 32
0.0
 13
1.0
 23
0.0
 33
0.0
 40
0.0
 40
0.0
 40
0.0
 40
0.0
 40
1.0
 40
1.0
 40
1.0
 40
1.0
 10
299.5211198242991
 20
200.5149886489736
 30
0.0
 10
299.4505054040171
 20
200.5729018482841
 30
0.0
 10
299.37910095451
 20
200.6298449966137
 30
0.0
 10
299.3069265732667
 20
200.6858020667503
 30
0.0
  0
ENDBLK
  5
B0
330
AD
100
AcDbEntity
  8
0
100
AcDbBlockEnd
  0
BLOCK
  5
B4
330
B2
100
AcDbEntity
  8
0
100
AcDbBlockBegin
  2
block 25
 70
     0
 10
0.0
 20
0.0
 30
0.0
  3
block 25
  1

  0
SPLINE
  5
B6
330
B2
100
AcDbEntity
  8
0
 62
     7
420
 16777215
370
    25
100
AcDbSpline
210
0.0
220
0.0
230
1.0
 70
     8
 71
     3
 72
     8
 73
     4
 74
     0
 42
0.0000000001
 43
0.0000000001
 12
1.0
 22
0.0
 32
0.0
 13
1.0
 23
0.0
 33
0.0
 40
0.0
 40
0.0
 40
0.0
 40
0.0
 40
1.0
 40
1.0
 40
1.0
 40
1.0
 10
300.6435980980343
 20
201.0337687495004
 30
0.0
 10
300.2503087442914
 20
200.9056636931255
 30
0.0
 10
299.8735365045649
 20
200.7315294181288
 30
0.0
 10
299.5211198242927
 20
200.5149886489838
 30
0.0
  0
ENDBLK
  5
B5
330
B2
100
AcDbEntity
  8
0
100
AcDbBlockEnd
  0
BLOCK
  5
B9
330
B7
100
AcDbEntity
  8
0
100
AcDbBlockBegin
  2
block 26
 70
     0
 10
0.0
 20
0.0
 30
0.0
  3
block 26
  1

  0
SPLINE
  5
BB
330
B7
100
AcDbEntity
  8
0
 62
     7
420
 16777215
370
    25
100
AcDbSpline
210
0.0
220
0.0
230
1.0
 70
     8
 71
     3
 72
     8
 73
     4
 74
     0
 42
0.0000000001
 43
0.0000000001
 12
1.0
 22
0.0
 32
0.0
 13
1.0
 23
0.0
 33
0.0
 40
0.0
 40
0.0
 40
0.0
 40
0.0
 40
1.0
 40
1.0
 40
1.0
 40
1.0
 10
300.8498164470161
 20
200.842426084139
 30
0.0
 10
300.7818861087882
 20
200.9070734783038
 30
0.0
 10
300.7131411655229
 20
200.9708594640785
 30
0.0
 10
300.643598098051
 20
201.0337687494869
 30
0.0
  0
ENDBLK
  5
BA
330
B7
100
AcDbEntity
  8
0
100
AcDbBlockEnd
  0
BLOCK
  5
BE
330
BC
100
AcDbEntity
  8
0
100
AcDbBlockBegin
  2
block 27
 70
     0
 10
0.0
 20
0.0
 30
0.0
  3
block 27
  1

  0
SPLINE
  5
C0
330
BC
100
AcDbEntity
  8
0
 62
     7
420
 16777215
370
    25
100
AcDbSpline
210
0.0
220
0.0
230
1.0
 70
     8
 71
     3
 72
     8
 73
     4
 74
     0
 42
0.0000000001
 43
0.0000000001
 12
1.0
 22
0.0
 32
0.0
 13
1.0
 23
0.0
 33
0.0
 40
0.0
 40
0.0
 40
0.0
 40
0.0
 40
1.0
 40
1.0
 40
1.0
 40
1.0
 10
300.4163698673328
 20
199.6843180017902
 30
0.0
 10
300.6059690130709
 20
200.051931365491
 30
0.0
 10
300.7514601485814
 20
200.4406631442862
 30
0.0
 10
300.8498164470244
 20
200.842426084081
 30
0.0
  0
ENDBLK
  5
BF
330
BC
100
AcDbEntity
  8
0
100
AcDbBlockEnd
  0
BLOCK
  5
C3
330
C1
100
AcDbEntity
  8
0
100
AcDbBlockBegin
  2
block 28
 70
     0
 10
0.0
 20
0.0
 30
0.0
  3
block 28
  1

  0
SPLINE
  5
C5
330
C1
100
AcDbEntity
  8
0
 62
     7
420
 16777215
370
    25
100
AcDbSpline
210
0.0
220
0.0
230
1.0
 70
     8
 71
     3
 72
     8
 73
     4
 74
     0
 42
0.0000000001
 43
0.0000000001
 12
1.0
 22
0.0
 32
0.0
 13
1.0
 23
0.0
 33
0.0
 40
0.0
 40
0.0
 40
0.0
 40
0.0
 40
1.0
 40
1.0
 40
1.0
 40
1.0
 10
300.60271233784
 20
199.4834885812739
 30
0.0
 10
300.5415181367559
 20
199.551279471221
 30
0.0
 10
300.4793981518236
 20
199.6182288926015
 30
0.0
 10
300.4163698673283
 20
199.6843180018383
 30
0.0
  0
ENDBLK
  5
C4
330
C1
100
AcDbEntity
  8
0
100
AcDbBlockEnd
  0
BLOCK
  5
C8
330
C6
100
AcDbEntity
  8
0
100
AcDbBlockBegin
  2
block 29
 70
     0
 10
0.0
 20
0.0
 30
0.0
  3
block 29
  1

  0
SPLINE
  5
CA
330
C6
100
AcDbEntity
  8
0
 62
     7
420
 16777215
370
    25
100
AcDbSpline
210
0.0
220
0.0
230
1.0
 70
     8
 71
     3
 72
     8
 73
     4
 74
     0
 42
0.0000000001
 43
0.0000000001
 12
1.0
 22
0.0
 32
0.0
 13
1.0
 23
0.0
 33
0.0
 40
0.0
 40
0.0
 40
0.0
 40
0.0
 40
1.0
 40
1.0
 40
1.0
 40
1.0
 10
301.7899736184861
 20
199.8291776310629
 30
0.0
 10
301.3819839139653
 20
199.7611201388687
 30
0.0
 10
300.9834665418901
 20
199.6450857882904
 30
0.0
 10
300.6027123378053
 20
199.4834885812896
 30
0.0
  0
ENDBLK
  5
C9
330
C6
100
AcDbEntity
  8
0
100
AcDbBlockEnd
  0
BLOCK
  5
CD
330
CB
100
AcDbEntity
  8
0
100
AcDbBlockBegin
  2
block 30
 70
     0
 10
0.0
 20
0.0
 30
0.0
  3
block 30
  1

  0
SPLINE
  5
CF
330
CB
100
AcDbEntity
  8
0
 62
     7
420
 16777215
370
    25
100
AcDbSpline
210
0.0
220
0.0
230
1.0
 70
     8
 71
     3
 72
     8
 73
     4
 74
     0
 42
0.0000000001
 43
0.0000000001
 12
1.0
 22
0.0
 32
0.0
 13
1.0
 23
0.0
 33
0.0
 40
0.0
 40
0.0
 40
0.0
 40
0.0
 40
1.0
 40
1.0
 40
1.0
 40
1.0
 10
301.9653705344394
 20
199.6092368551289
 30
0.0
 10
301.9078341160927
 20
199.6832866828657
 30
0.0
 10
301.8493638049152
 20
199.7566061340133
 30
0.0
 10
301.7899736185092
 20
199.8291776310537
 30
0.0
  0
ENDBLK
  5
CE
330
CB
100
AcDbEntity
  8
0
100
AcDbBlockEnd
  0
BLOCK
  5
D2
330
D0
100
AcDbEntity
  8
0
100
AcDbBlockBegin
  2
block 31
 70
     0
 10
0.0
 20
0.0
 30
0.0
  3
block 31
  1

  0
SPLINE
  5
D4
330
D0
100
AcDbEntity
  8
0
 62
     7
420
 16777215
370
    25
100
AcDbSpline
210
0.0
220
0.0
230
1.0
 70
     8
 71
     3
 72
     8
 73
     4
 74
     0
 42
0.0000000001
 43
0.0000000001
 12
1.0
 22
0.0
 32
0.0
 13
1.0
 23
0.0
 33
0.0
 40
0.0
 40
0.0
 40
0.0
 40
0.0
 40
1.0
 40
1.0
 40
1.0
 40
1.0
 10
301.3641581419199
 20
198.5286657437266
 30
0.0
 10
301.6064295506536
 20
198.8639148835405
 30
0.0
 10
301.8082331356353
 20
199.2266205210015
 30
0.0
 10
301.9653705345023
 20
199.609236855093
 30
0.0
  0
ENDBLK
  5
D3
330
D0
100
AcDbEntity
  8
0
100
AcDbBlockEnd
  0
BLOCK
  5
D7
330
D5
100
AcDbEntity
  8
0
100
AcDbBlockBegin
  2
block 32
 70
     0
 10
0.0
 20
0.0
 30
0.0
  3
block 32
  1

  0
SPLINE
  5
D9
330
D5
100
AcDbEntity
  8
0
 62
     7
420
 16777215
370
    25
100
AcDbSpline
210
0.0
220
0.0
230
1.0
 70
     8
 71
     3
 72
     8
 73
     4
 74
     0
 42
0.0000000001
 43
0.0000000001
 12
1.0
 22
0.0
 32
0.0
 13
1.0
 23
0.0
 33
0.0
 40
0.0
 40
0.0
 40
0.0
 40
0.0
 40
1.0
 40
1.0
 40
1.0
 40
1.0
 10
301.5184872489808
 20
198.3023065177955
 30
0.0
 10
301.4680802444269
 20
198.3784607619187
 30
0.0
 10
301.4166323818827
 20
198.4539209169068
 30
0.0
 10
301.3641581418602
 20
198.528665743752
 30
0.0
  0
ENDBLK
  5
D8
330
D5
100
AcDbEntity
  8
0
100
AcDbBlockEnd
  0
BLOCK
  5
DC
330
DA
100
AcDbEntity
  8
0
100
AcDbBlockBegin
  2
block 33
 70
     0
 10
0.0
 20
0.0
 30
0.0
  3
block 33
  1

  0
SPLINE
  5
DE
330
DA
100
AcDbEntity
  8
0
 62
     7
420
 16777215
370
    25
100
AcDbSpline
210
0.0
220
0.0
230
1.0
 70
     8
 71
     3
 72
     8
 73
     4
 74
     0
 42
0.0000000001
 43
0.0000000001
 12
1.0
 22
0.0
 32
0.0
 13
1.0
 23
0.0
 33
0.0
 40
0.0
 40
0.0
 40
0.0
 40
0.0
 40
1.0
 40
1.0
 40
1.0
 40
1.0
 10
302.7440100814928
 20
198.4671823947209
 30
0.0
 10
302.3304338420133
 20
198.4606927586221
 30
0.0
 10
301.9190735571547
 20
198.4053503481136
 30
0.0
 10
301.5184872490013
 20
198.3023065178321
 30
0.0
  0
ENDBLK
  5
DD
330
DA
100
AcDbEntity
  8
0
100
AcDbBlockEnd
  0
BLOCK
  5
E1
330
DF
100
AcDbEntity
  8
0
100
AcDbBlockBegin
  2
block 34
 70
     0
 10
0.0
 20
0.0
 30
0.0
  3
block 34
  1

  0
SPLINE
  5
E3
330
DF
100
AcDbEntity
  8
0
 62
     7
420
 16777215
370
    25
100
AcDbSpline
210
0.0
220
0.0
230
1.0
 70
     8
 71
     3
 72
     8
 73
     4
 74
     0
 42
0.0000000001
 43
0.0000000001
 12
1.0
 22
0.0
 32
0.0
 13
1.0
 23
0.0
 33
0.0
 40
0.0
 40
0.0
 40
0.0
 40
0.0
 40
1.0
 40
1.0
 40
1.0
 40
1.0
 10
302.8846674870998
 20
198.2235566216665
 30
0.0
 10
302.8388102571412
 20
198.3053547321931
 30
0.0
 10
302.7919207081802
 20
198.3865698133375
 30
0.0
 10
302.744010081462
 20
198.4671823946923
 30
0.0
  0
ENDBLK
  5
E2
330
DF
100
AcDbEntity
  8
0
100
AcDbBlockEnd
  0
BLOCK
  5
E6
330
E4
100
AcDbEntity
  8
0
100
AcDbBlockBegin
  2
block 35
 70
     0
 10
0.0
 20
0.0
 30
0.0
  3
block 35
  1

  0
SPLINE
  5
E8
330
E4
100
AcDbEntity
  8
0
 62
     7
420
 16777215
370
    25
100
AcDbSpline
210
0.0
220
0.0
230
1.0
 70
     8
 71
     3
 72
     8
 73
     4
 74
     0
 42
0.0000000001
 43
0.0000000001
 12
1.0
 22
0.0
 32
0.0
 13
1.0
 23
0.0
 33
0.0
 40
0.0
 40
0.0
 40
0.0
 40
0.0
 40
1.0
 40
1.0
 40
1.0
 40
1.0
 10
302.1291193730088
 20
197.244660654213
 30
0.0
 10
302.4186511018128
 20
197.5400566583412
 30
0.0
 10
302.6722591776489
 20
197.8686339098825
 30
0.0
 10
302.8846674871113
 20
198.2235566216239
 30
0.0
  0
ENDBLK
  5
E7
330
E4
100
AcDbEntity
  8
0
100
AcDbBlockEnd
  0
BLOCK
  5
EB
330
E9
100
AcDbEntity
  8
0
100
AcDbBlockBegin
  2
block 36
 70
     0
 10
0.0
 20
0.0
 30
0.0
  3
block 36
  1

  0
SPLINE
  5
ED
330
E9
100
AcDbEntity
  8
0
 62
     7
420
 16777215
370
    25
100
AcDbSpline
210
0.0
220
0.0
230
1.0
 70
     8
 71
     3
 72
     8
 73
     4
 74
     0
 42
0.0000000001
 43
0.0000000001
 12
1.0
 22
0.0
 32
0.0
 13
1.0
 23
0.0
 33
0.0
 40
0.0
 40
0.0
 40
0.0
 40
0.0
 40
1.0
 40
1.0
 40
1.0
 40
1.0
 10
302.2479876594945
 20
196.9978281139801
 30
0.0
 10
302.2094938606563
 20
197.0806445523072
 30
0.0
 10
302.1698673807349
 20
197.1629297857345
 30
0.0
 10
302.1291193729953
 20
197.2446606542688
 30
0.0
  0
ENDBLK
  5
EC
330
E9
100
AcDbEntity
  8
0
100
AcDbBlockEnd
  0
BLOCK
  5
F0
330
EE
100
AcDbEntity
  8
0
100
AcDbBlockBegin
  2
block 37
 70
     0
 10
0.0
 20
0.0
 30
0.0
  3
block 37
  1

  0
SPLINE
  5
F2
330
EE
100
AcDbEntity
  8
0
 62
     7
420
 16777215
370
    25
100
AcDbSpline
210
0.0
220
0.0
230
1.0
 70
     8
 71
     3
 72
     8
 73
     4
 74
     0
 42
0.0000000001
 43
0.0000000001
 12
1.0
 22
0.0
 32
0.0
 13
1.0
 23
0.0
 33
0.0
 40
0.0
 40
0.0
 40
0.0
 40
0.0
 40
1.0
 40
1.0
 40
1.0
 40
1.0
 10
303.4843958888201
 20
196.9782077633726
 30
0.0
 10
303.0744717241605
 20
197.0334309511149
 30
0.0
 10
302.6594576355329
 20
197.0400167386768
 30
0.0
 10
302.24798765949
 20
196.9978281140093
 30
0.0
  0
ENDBLK
  5
F1
330
EE
100
AcDbEntity
  8
0
100
AcDbBlockEnd
  0
BLOCK
  5
F5
330
F3
100
AcDbEntity
  8
0
100
AcDbBlockBegin
  2
block 38
 70
     0
 10
0.0
 20
0.0
 30
0.0
  3
block 38
  1

  0
SPLINE
  5
F7
330
F3
100
AcDbEntity
  8
0
 62
     7
420
 16777215
370
    25
100
AcDbSpline
210
0.0
220
0.0
230
1.0
 70
     8
 71
     3
 72
     8
 73
     4
 74
     0
 42
0.0000000001
 43
0.0000000001
 12
1.0
 22
0.0
 32
0.0
 13
1.0
 23
0.0
 33
0.0
 40
0.0
 40
0.0
 40
0.0
 40
0.0
 40
1.0
 40
1.0
 40
1.0
 40
1.0
 10
303.5871717301461
 20
196.7163391904324
 30
0.0
 10
303.5540180633209
 20
196.8040583491153
 30
0.0
 10
303.5197567116244
 20
196.8913548495364
 30
0.0
 10
303.4843958888322
 20
196.9782077633357
 30
0.0
  0
ENDBLK
  5
F6
330
F3
100
AcDbEntity
  8
0
100
AcDbBlockEnd
  0
BLOCK
  5
FA
330
F8
100
AcDbEntity
  8
0
100
AcDbBlockBegin
  2
block 39
 70
     0
 10
0.0
 20
0.0
 30
0.0
  3
block 39
  1

  0
SPLINE
  5
FC
330
F8
100
AcDbEntity
  8
0
 62
     7
420
 16777215
370
    25
100
AcDbSpline
210
0.0
220
0.0
230
1.0
 70
     8
 71
     3
 72
     8
 73
     4
 74
     0
 42
0.0000000001
 43
0.0000000001
 12
1.0
 22
0.0
 32
0.0
 13
1.0
 23
0.0
 33
0.0
 40
0.0
 40
0.0
 40
0.0
 40
0.0
 40
1.0
 40
1.0
 40
1.0
 40
1.0
 10
302.694165590929
 20
195.8609852853361
 30
0.0
 10
303.0244899794149
 20
196.1099294951712
 30
0.0
 10
303.3242373607648
 20
196.3970384879485
 30
0.0
 10
303.5871717301833
 20
196.716339190449
 30
0.0
  0
ENDBLK
  5
FB
330
F8
100
AcDbEntity
  8
0
100
AcDbBlockEnd
  0
BLOCK
  5
FF
330
FD
100
AcDbEntity
  8
0
100
AcDbBlockBegin
  2
block 40
 70
     0
 10
0.0
 20
0.0
 30
0.0
  3
block 40
  1

  0
SPLINE
  5
101
330
FD
100
AcDbEntity
  8
0
 62
     7
420
 16777215
370
    25
100
AcDbSpline
210
0.0
220
0.0
230
1.0
 70
     8
 71
     3
 72
     8
 73
     4
 74
     0
 42
0.0000000001
 43
0.0000000001
 12
1.0
 22
0.0
 32
0.0
 13
1.0
 23
0.0
 33
0.0
 40
0.0
 40
0.0
 40
0.0
 40
0.0
 40
1.0
 40
1.0
 40
1.0
 40
1.0
 10
302.7749177356722
 20
195.5991932617835
 30
0.0
 10
302.7491970304076
 20
195.6868219119318
 30
0.0
 10
302.7222771231894
 20
195.7740941076562
 30
0.0
 10
302.6941655908918
 20
195.8609852853326
 30
0.0
  0
ENDBLK
  5
100
330
FD
100
AcDbEntity
  8
0
100
AcDbBlockEnd
  0
BLOCK
  5
104
330
102
100
AcDbEntity
  8
0
100
AcDbBlockBegin
  2
block 41
 70
     0
 10
0.0
 20
0.0
 30
0.0
  3
block 41
  1

  0
SPLINE
  5
106
330
102
100
AcDbEntity
  8
0
 62
     7
420
 16777215
370
    25
100
AcDbSpline
210
0.0
220
0.0
230
1.0
 70
     8
 71
     3
 72
     8
 73
     4
 74
     0
 42
0.0000000001
 43
0.0000000001
 12
1.0
 22
0.0
 32
0.0
 13
1.0
 23
0.0
 33
0.0
 40
0.0
 40
0.0
 40
0.0
 40
0.0
 40
1.0
 40
1.0
 40
1.0
 40
1.0
 10
303.9945920451038
 20
195.3955149698478
 30
0.0
 10
303.5974769837206
 20
195.5112173866711
 30
0.0
 10
303.1880798202706
 20
195.5795842566912
 30
0.0
 10
302.7749177356658
 20
195.5991932617967
 30
0.0
  0
ENDBLK
  5
105
330
102
100
AcDbEntity
  8
0
100
AcDbBlockEnd
  0
BLOCK
  5
109
330
107
100
AcDbEntity
  8
0
100
AcDbBlockBegin
  2
block 42
 70
     0
 10
0.0
 20
0.0
 30
0.0
  3
block 42
  1

  0
SPLINE
  5
10B
330
107
100
AcDbEntity
  8
0
 62
     7
420
 16777215
370
    25
100
AcDbSpline
210
0.0
220
0.0
230
1.0
 70
     8
 71
     3
 72
     8
 73
     4
 74
     0
 42
0.0000000001
 43
0.0000000001
 12
1.0
 22
0.0
 32
0.0
 13
1.0
 23
0.0
 33
0.0
 40
0.0
 40
0.0
 40
0.0
 40
0.0
 40
1.0
 40
1.0
 40
1.0
 40
1.0
 10
304.0571904796528
 20
195.1212533082224
 30
0.0
 10
304.0374809740915
 20
195.2129340140141
 30
0.0
 10
304.0166131616375
 20
195.3043618741512
 30
0.0
 10
303.9945920451167
 20
195.3955149698263
 30
0.0
  0
ENDBLK
  5
10A
330
107
100
AcDbEntity
  8
0
100
AcDbBlockEnd
  0
BLOCK
  5
10E
330
10C
100
AcDbEntity
  8
0
100
AcDbBlockBegin
  2
block 43
 70
     0
 10
0.0
 20
0.0
 30
0.0
  3
block 43
  1

  0
SPLINE
  5
110
330
10C
100
AcDbEntity
  8
0
 62
     7
420
 16777215
370
    25
100
AcDbSpline
210
0.0
220
0.0
230
1.0
 70
     8
 71
     3
 72
     8
 73
     4
 74
     0
 42
0.0000000001
 43
0.0000000001
 12
1.0
 22
0.0
 32
0.0
 13
1.0
 23
0.0
 33
0.0
 40
0.0
 40
0.0
 40
0.0
 40
0.0
 40
1.0
 40
1.0
 40
1.0
 40
1.0
 10
303.0466745967254
 20
194.4085486582461
 30
0.0
 10
303.4104127438964
 20
194.6054800715066
 30
0.0
 10
303.7496035695763
 20
194.8447072650526
 30
0.0
 10
304.0571904796213
 20
195.1212533082441
 30
0.0
  0
ENDBLK
  5
10F
330
10C
100
AcDbEntity
  8
0
100
AcDbBlockEnd
  0
BLOCK
  5
113
330
111
100
AcDbEntity
  8
0
100
AcDbBlockBegin
  2
block 44
 70
     0
 10
0.0
 20
0.0
 30
0.0
  3
block 44
  1

  0
SPLINE
  5
115
330
111
100
AcDbEntity
  8
0
 62
     7
420
 16777215
370
    25
100
AcDbSpline
210
0.0
220
0.0
230
1.0
 70
     8
 71
     3
 72
     8
 73
     4
 74
     0
 42
0.0000000001
 43
0.0000000001
 12
1.0
 22
0.0
 32
0.0
 13
1.0
 23
0.0
 33
0.0
 40
0.0
 40
0.0
 40
0.0
 40
0.0
 40
1.0
 40
1.0
 40
1.0
 40
1.0
 10
303.0875067303401
 20
194.1376451526117
 30
0.0
 10
303.0751336767027
 20
194.2281285353394
 30
0.0
 10
303.0615216884309
 20
194.3184381767207
 30
0.0
 10
303.0466745967549
 20
194.4085486582137
 30
0.0
  0
ENDBLK
  5
114
330
111
100
AcDbEntity
  8
0
100
AcDbBlockEnd
  0
BLOCK
  5
118
330
116
100
AcDbEntity
  8
0
100
AcDbBlockBegin
  2
block 45
 70
     0
 10
0.0
 20
0.0
 30
0.0
  3
block 45
  1

  0
SPLINE
  5
11A
330
116
100
AcDbEntity
  8
0
 62
     7
420
 16777215
370
    25
100
AcDbSpline
210
0.0
220
0.0
230
1.0
 70
     8
 71
     3
 72
     8
 73
     4
 74
     0
 42
0.0000000001
 43
0.0000000001
 12
1.0
 22
0.0
 32
0.0
 13
1.0
 23
0.0
 33
0.0
 40
0.0
 40
0.0
 40
0.0
 40
0.0
 40
1.0
 40
1.0
 40
1.0
 40
1.0
 10
304.2632016112545
 20
193.7544587558365
 30
0.0
 10
303.8877665474029
 20
193.9280558009431
 30
0.0
 10
303.493131565251
 20
194.0566765505193
 30
0.0
 10
303.0875067303215
 20
194.1376451526271
 30
0.0
  0
ENDBLK
  5
119
330
116
100
AcDbEntity
  8
0
100
AcDbBlockEnd
  0
BLOCK
  5
11D
330
11B
100
AcDbEntity
  8
0
100
AcDbBlockBegin
  2
block 46
 70
     0
 10
0.0
 20
0.0
 30
0.0
  3
block 46
  1

  0
SPLINE
  5
11F
330
11B
100
AcDbEntity
  8
0
 62
     7
420
 16777215
370
    25
100
AcDbSpline
210
0.0
220
0.0
230
1.0
 70
     8
 71
     3
 72
     8
 73
     4
 74
     0
 42
0.0000000001
 43
0.0000000001
 12
1.0
 22
0.0
 32
0.0
 13
1.0
 23
0.0
 33
0.0
 40
0.0
 40
0.0
 40
0.0
 40
0.0
 40
1.0
 40
1.0
 40
1.0
 40
1.0
 10
304.2842242934403
 20
193.4739305578447
 30
0.0
 10
304.2783992269272
 20
193.567524815276
 30
0.0
 10
304.2713911061634
 20
193.6610416878135
 30
0.0
 10
304.2632016112674
 20
193.7544587558329
 30
0.0
  0
ENDBLK
  5
11E
330
11B
100
AcDbEntity
  8
0
100
AcDbBlockEnd
  0
BLOCK
  5
122
330
120
100
AcDbEntity
  8
0
100
AcDbBlockBegin
  2
block 47
 70
     0
 10
0.0
 20
0.0
 30
0.0
  3
block 47
  1

  0
SPLINE
  5
124
330
120
100
AcDbEntity
  8
0
 62
     7
420
 16777215
370
    25
100
AcDbSpline
210
0.0
220
0.0
230
1.0
 70
     8
 71
     3
 72
     8
 73
     4
 74
     0
 42
0.0000000001
 43
0.0000000001
 12
1.0
 22
0.0
 32
0.0
 13
1.0
 23
0.0
 33
0.0
 40
0.0
 40
0.0
 40
0.0
 40
0.0
 40
1.0
 40
1.0
 40
1.0
 40
1.0
 10
303.1787719219352
 20
192.9197958070757
 30
0.0
 10
303.5677985186454
 20
193.060315301411
 30
0.0
 10
303.9388558261072
 20
193.246316755535
 30
0.0
 10
304.2842242934827
 20
193.4739305577947
 30
0.0
  0
ENDBLK
  5
123
330
120
100
AcDbEntity
  8
0
100
AcDbBlockEnd
  0
BLOCK
  5
127
330
125
100
AcDbEntity
  8
0
100
AcDbBlockBegin
  2
block 48
 70
     0
 10
0.0
 20
0.0
 30
0.0
  3
block 48
  1

  0
SPLINE
  5
129
330
125
100
AcDbEntity
  8
0
 62
     7
420
 16777215
370
    25
100
AcDbSpline
210
0.0
220
0.0
230
1.0
 70
     8
 71
     3
 72
     8
 73
     4
 74
     0
 42
0.0000000001
 43
0.0000000001
 12
1.0
 22
0.0
 32
0.0
 13
1.0
 23
0.0
 33
0.0
 40
0.0
 40
0.0
 40
0.0
 40
0.0
 40
1.0
 40
1.0
 40
1.0
 40
1.0
 10
303.178771921889
 20
192.645832356122
 30
0.0
 10
303.1800229134502
 20
192.7371492221776
 30
0.0
 10
303.1800229134502
 20
192.82847894106
 30
0.0
 10
303.178771921889
 20
192.9197958071158
 30
0.0
  0
ENDBLK
  5
128
330
125
100
AcDbEntity
  8
0
100
AcDbBlockEnd
  0
BLOCK
  5
12C
330
12A
100
AcDbEntity
  8
0
100
AcDbBlockBegin
  2
block 49
 70
     0
 10
0.0
 20
0.0
 30
0.0
  3
block 49
  1

  0
SPLINE
  5
12E
330
12A
100
AcDbEntity
  8
0
 62
     7
420
 16777215
370
    25
100
AcDbSpline
210
0.0
220
0.0
230
1.0
 70
     8
 71
     3
 72
     8
 73
     4
 74
     0
 42
0.0000000001
 43
0.0000000001
 12
1.0
 22
0.0
 32
0.0
 13
1.0
 23
0.0
 33
0.0
 40
0.0
 40
0.0
 40
0.0
 40
0.0
 40
1.0
 40
1.0
 40
1.0
 40
1.0
 10
304.2842242934827
 20
192.0916976054432
 30
0.0
 10
303.9388558261072
 20
192.3193114077025
 30
0.0
 10
303.5677985186454
 20
192.5053128618269
 30
0.0
 10
303.1787719219352
 20
192.6458323561621
 30
0.0
  0
ENDBLK
  5
12D
330
12A
100
AcDbEntity
  8
0
100
AcDbBlockEnd
  0
BLOCK
  5
131
330
12F
100
AcDbEntity
  8
0
100
AcDbBlockBegin
  2
block 50
 70
     0
 10
0.0
 20
0.0
 30
0.0
  3
block 50
  1

  0
SPLINE
  5
133
330
12F
100
AcDbEntity
  8
0
 62
     7
420
 16777215
370
    25
100
AcDbSpline
210
0.0
220
0.0
230
1.0
 70
     8
 71
     3
 72
     8
 73
     4
 74
     0
 42
0.0000000001
 43
0.0000000001
 12
1.0
 22
0.0
 32
0.0
 13
1.0
 23
0.0
 33
0.0
 40
0.0
 40
0.0
 40
0.0
 40
0.0
 40
1.0
 40
1.0
 40
1.0
 40
1.0
 10
304.2632016112674
 20
191.8111694074046
 30
0.0
 10
304.2713911061634
 20
191.904586475424
 30
0.0
 10
304.2783992269272
 20
191.9981033479615
 30
0.0
 10
304.2842242934403
 20
192.0916976053928
 30
0.0
  0
ENDBLK
  5
132
330
12F
100
AcDbEntity
  8
0
100
AcDbBlockEnd
  0
BLOCK
  5
136
330
134
100
AcDbEntity
  8
0
100
AcDbBlockBegin
  2
block 51
 70
     0
 10
0.0
 20
0.0
 30
0.0
  3
block 51
  1

  0
SPLINE
  5
138
330
134
100
AcDbEntity
  8
0
 62
     7
420
 16777215
370
    25
100
AcDbSpline
210
0.0
220
0.0
230
1.0
 70
     8
 71
     3
 72
     8
 73
     4
 74
     0
 42
0.0000000001
 43
0.0000000001
 12
1.0
 22
0.0
 32
0.0
 13
1.0
 23
0.0
 33
0.0
 40
0.0
 40
0.0
 40
0.0
 40
0.0
 40
1.0
 40
1.0
 40
1.0
 40
1.0
 10
303.0875067303215
 20
191.4279830106107
 30
0.0
 10
303.493131565251
 20
191.5089516127186
 30
0.0
 10
303.8877665474029
 20
191.6375723622948
 30
0.0
 10
304.2632016112545
 20
191.8111694074011
 30
0.0
  0
ENDBLK
  5
137
330
134
100
AcDbEntity
  8
0
100
AcDbBlockEnd
  0
BLOCK
  5
13B
330
139
100
AcDbEntity
  8
0
100
AcDbBlockBegin
  2
block 52
 70
     0
 10
0.0
 20
0.0
 30
0.0
  3
block 52
  1

  0
SPLINE
  5
13D
330
139
100
AcDbEntity
  8
0
 62
     7
420
 16777215
370
    25
100
AcDbSpline
210
0.0
220
0.0
230
1.0
 70
     8
 71
     3
 72
     8
 73
     4
 74
     0
 42
0.0000000001
 43
0.0000000001
 12
1.0
 22
0.0
 32
0.0
 13
1.0
 23
0.0
 33
0.0
 40
0.0
 40
0.0
 40
0.0
 40
0.0
 40
1.0
 40
1.0
 40
1.0
 40
1.0
 10
303.0466745967549
 20
191.1570795050242
 30
0.0
 10
303.0615216884309
 20
191.2471899865168
 30
0.0
 10
303.0751336767027
 20
191.3374996278984
 30
0.0
 10
303.0875067303401
 20
191.4279830106258
 30
0.0
  0
ENDBLK
  5
13C
330
139
100
AcDbEntity
  8
0
100
AcDbBlockEnd
  0
BLOCK
  5
140
330
13E
100
AcDbEntity
  8
0
100
AcDbBlockBegin
  2
block 53
 70
     0
 10
0.0
 20
0.0
 30
0.0
  3
block 53
  1

  0
SPLINE
  5
142
330
13E
100
AcDbEntity
  8
0
 62
     7
420
 16777215
370
    25
100
AcDbSpline
210
0.0
220
0.0
230
1.0
 70
     8
 71
     3
 72
     8
 73
     4
 74
     0
 42
0.0000000001
 43
0.0000000001
 12
1.0
 22
0.0
 32
0.0
 13
1.0
 23
0.0
 33
0.0
 40
0.0
 40
0.0
 40
0.0
 40
0.0
 40
1.0
 40
1.0
 40
1.0
 40
1.0
 10
304.0571904796213
 20
190.4443748549937
 30
0.0
 10
303.7496035695763
 20
190.720920898185
 30
0.0
 10
303.4104127438964
 20
190.9601480917309
 30
0.0
 10
303.0466745967254
 20
191.1570795049918
 30
0.0
  0
ENDBLK
  5
141
330
13E
100
AcDbEntity
  8
0
100
AcDbBlockEnd
  0
BLOCK
  5
145
330
143
100
AcDbEntity
  8
0
100
AcDbBlockBegin
  2
block 54
 70
     0
 10
0.0
 20
0.0
 30
0.0
  3
block 54
  1

  0
SPLINE
  5
147
330
143
100
AcDbEntity
  8
0
 62
     7
420
 16777215
370
    25
100
AcDbSpline
210
0.0
220
0.0
230
1.0
 70
     8
 71
     3
 72
     8
 73
     4
 74
     0
 42
0.0000000001
 43
0.0000000001
 12
1.0
 22
0.0
 32
0.0
 13
1.0
 23
0.0
 33
0.0
 40
0.0
 40
0.0
 40
0.0
 40
0.0
 40
1.0
 40
1.0
 40
1.0
 40
1.0
 10
303.9945920451167
 20
190.1701131934115
 30
0.0
 10
304.0166131616375
 20
190.2612662890861
 30
0.0
 10
304.0374809740915
 20
190.3526941492238
 30
0.0
 10
304.0571904796528
 20
190.4443748550155
 30
0.0
  0
ENDBLK
  5
146
330
143
100
AcDbEntity
  8
0
100
AcDbBlockEnd
  0
BLOCK
  5
14A
330
148
100
AcDbEntity
  8
0
100
AcDbBlockBegin
  2
block 55
 70
     0
 10
0.0
 20
0.0
 30
0.0
  3
block 55
  1

  0
SPLINE
  5
14C
330
148
100
AcDbEntity
  8
0
 62
     7
420
 16777215
370
    25
100
AcDbSpline
210
0.0
220
0.0
230
1.0
 70
     8
 71
     3
 72
     8
 73
     4
 74
     0
 42
0.0000000001
 43
0.0000000001
 12
1.0
 22
0.0
 32
0.0
 13
1.0
 23
0.0
 33
0.0
 40
0.0
 40
0.0
 40
0.0
 40
0.0
 40
1.0
 40
1.0
 40
1.0
 40
1.0
 10
302.7749177356658
 20
189.9664349014415
 30
0.0
 10
303.1880798202706
 20
189.9860439065466
 30
0.0
 10
303.5974769837206
 20
190.0544107765667
 30
0.0
 10
303.9945920451038
 20
190.1701131933897
 30
0.0
  0
ENDBLK
  5
14B
330
148
100
AcDbEntity
  8
0
100
AcDbBlockEnd
  0
BLOCK
  5
14F
330
14D
100
AcDbEntity
  8
0
100
AcDbBlockBegin
  2
block 56
 70
     0
 10
0.0
 20
0.0
 30
0.0
  3
block 56
  1

  0
SPLINE
  5
151
330
14D
100
AcDbEntity
  8
0
 62
     7
420
 16777215
370
    25
100
AcDbSpline
210
0.0
220
0.0
230
1.0
 70
     8
 71
     3
 72
     8
 73
     4
 74
     0
 42
0.0000000001
 43
0.0000000001
 12
1.0
 22
0.0
 32
0.0
 13
1.0
 23
0.0
 33
0.0
 40
0.0
 40
0.0
 40
0.0
 40
0.0
 40
1.0
 40
1.0
 40
1.0
 40
1.0
 10
302.6941655908918
 20
189.7046428779049
 30
0.0
 10
302.7222771231894
 20
189.7915340555817
 30
0.0
 10
302.7491970304076
 20
189.8788062513054
 30
0.0
 10
302.7749177356722
 20
189.9664349014544
 30
0.0
  0
ENDBLK
  5
150
330
14D
100
AcDbEntity
  8
0
100
AcDbBlockEnd
  0
BLOCK
  5
154
330
152
100
AcDbEntity
  8
0
100
AcDbBlockBegin
  2
block 57
 70
     0
 10
0.0
 20
0.0
 30
0.0
  3
block 57
  1

  0
SPLINE
  5
156
330
152
100
AcDbEntity
  8
0
 62
     7
420
 16777215
370
    25
100
AcDbSpline
210
0.0
220
0.0
230
1.0
 70
     8
 71
     3
 72
     8
 73
     4
 74
     0
 42
0.0000000001
 43
0.0000000001
 12
1.0
 22
0.0
 32
0.0
 13
1.0
 23
0.0
 33
0.0
 40
0.0
 40
0.0
 40
0.0
 40
0.0
 40
1.0
 40
1.0
 40
1.0
 40
1.0
 10
303.5871717301833
 20
188.8492889727888
 30
0.0
 10
303.3242373607648
 20
189.1685896752894
 30
0.0
 10
303.0244899794149
 20
189.4556986680667
 30
0.0
 10
302.694165590929
 20
189.7046428779018
 30
0.0
  0
ENDBLK
  5
155
330
152
100
AcDbEntity
  8
0
100
AcDbBlockEnd
  0
BLOCK
  5
159
330
157
100
AcDbEntity
  8
0
100
AcDbBlockBegin
  2
block 58
 70
     0
 10
0.0
 20
0.0
 30
0.0
  3
block 58
  1

  0
SPLINE
  5
15B
330
157
100
AcDbEntity
  8
0
 62
     7
420
 16777215
370
    25
100
AcDbSpline
210
0.0
220
0.0
230
1.0
 70
     8
 71
     3
 72
     8
 73
     4
 74
     0
 42
0.0000000001
 43
0.0000000001
 12
1.0
 22
0.0
 32
0.0
 13
1.0
 23
0.0
 33
0.0
 40
0.0
 40
0.0
 40
0.0
 40
0.0
 40
1.0
 40
1.0
 40
1.0
 40
1.0
 10
303.4843958888322
 20
188.5874203999016
 30
0.0
 10
303.5197567116244
 20
188.6742733137011
 30
0.0
 10
303.5540180633209
 20
188.7615698141219
 30
0.0
 10
303.5871717301461
 20
188.8492889728055
 30
0.0
  0
ENDBLK
  5
15A
330
157
100
AcDbEntity
  8
0
100
AcDbBlockEnd
  0
BLOCK
  5
15E
330
15C
100
AcDbEntity
  8
0
100
AcDbBlockBegin
  2
block 59
 70
     0
 10
0.0
 20
0.0
 30
0.0
  3
block 59
  1

  0
SPLINE
  5
160
330
15C
100
AcDbEntity
  8
0
 62
     7
420
 16777215
370
    25
100
AcDbSpline
210
0.0
220
0.0
230
1.0
 70
     8
 71
     3
 72
     8
 73
     4
 74
     0
 42
0.0000000001
 43
0.0000000001
 12
1.0
 22
0.0
 32
0.0
 13
1.0
 23
0.0
 33
0.0
 40
0.0
 40
0.0
 40
0.0
 40
0.0
 40
1.0
 40
1.0
 40
1.0
 40
1.0
 10
302.24798765949
 20
188.5678000492283
 30
0.0
 10
302.6594576355329
 20
188.5256114245604
 30
0.0
 10
303.0744717241605
 20
188.5321972121223
 30
0.0
 10
303.4843958888201
 20
188.5874203998656
 30
0.0
  0
ENDBLK
  5
15F
330
15C
100
AcDbEntity
  8
0
100
AcDbBlockEnd
  0
BLOCK
  5
163
330
161
100
AcDbEntity
  8
0
100
AcDbBlockBegin
  2
block 60
 70
     0
 10
0.0
 20
0.0
 30
0.0
  3
block 60
  1

  0
SPLINE
  5
165
330
161
100
AcDbEntity
  8
0
 62
     7
420
 16777215
370
    25
100
AcDbSpline
210
0.0
220
0.0
230
1.0
 70
     8
 71
     3
 72
     8
 73
     4
 74
     0
 42
0.0000000001
 43
0.0000000001
 12
1.0
 22
0.0
 32
0.0
 13
1.0
 23
0.0
 33
0.0
 40
0.0
 40
0.0
 40
0.0
 40
0.0
 40
1.0
 40
1.0
 40
1.0
 40
1.0
 10
302.1291193729953
 20
188.320967508969
 30
0.0
 10
302.1698673807349
 20
188.4026983775034
 30
0.0
 10
302.2094938606563
 20
188.4849836109307
 30
0.0
 10
302.2479876594945
 20
188.5678000492578
 30
0.0
  0
ENDBLK
  5
164
330
161
100
AcDbEntity
  8
0
100
AcDbBlockEnd
  0
BLOCK
  5
168
330
166
100
AcDbEntity
  8
0
100
AcDbBlockBegin
  2
block 61
 70
     0
 10
0.0
 20
0.0
 30
0.0
  3
block 61
  1

  0
SPLINE
  5
16A
330
166
100
AcDbEntity
  8
0
 62
     7
420
 16777215
370
    25
100
AcDbSpline
210
0.0
220
0.0
230
1.0
 70
     8
 71
     3
 72
     8
 73
     4
 74
     0
 42
0.0000000001
 43
0.0000000001
 12
1.0
 22
0.0
 32
0.0
 13
1.0
 23
0.0
 33
0.0
 40
0.0
 40
0.0
 40
0.0
 40
0.0
 40
1.0
 40
1.0
 40
1.0
 40
1.0
 10
302.8846674871113
 20
187.3420715415142
 30
0.0
 10
302.6722591776489
 20
187.6969942532553
 30
0.0
 10
302.4186511018128
 20
188.0255715047965
 30
0.0
 10
302.1291193730088
 20
188.3209675089248
 30
0.0
  0
ENDBLK
  5
169
330
166
100
AcDbEntity
  8
0
100
AcDbBlockEnd
  0
BLOCK
  5
16D
330
16B
100
AcDbEntity
  8
0
100
AcDbBlockBegin
  2
block 62
 70
     0
 10
0.0
 20
0.0
 30
0.0
  3
block 62
  1

  0
SPLINE
  5
16F
330
16B
100
AcDbEntity
  8
0
 62
     7
420
 16777215
370
    25
100
AcDbSpline
210
0.0
220
0.0
230
1.0
 70
     8
 71
     3
 72
     8
 73
     4
 74
     0
 42
0.0000000001
 43
0.0000000001
 12
1.0
 22
0.0
 32
0.0
 13
1.0
 23
0.0
 33
0.0
 40
0.0
 40
0.0
 40
0.0
 40
0.0
 40
1.0
 40
1.0
 40
1.0
 40
1.0
 10
302.744010081462
 20
187.0984457685452
 30
0.0
 10
302.7919207081802
 20
187.1790583499
 30
0.0
 10
302.8388102571412
 20
187.2602734310445
 30
0.0
 10
302.8846674870998
 20
187.3420715415707
 30
0.0
  0
ENDBLK
  5
16E
330
16B
100
AcDbEntity
  8
0
100
AcDbBlockEnd
  0
BLOCK
  5
172
330
170
100
AcDbEntity
  8
0
100
AcDbBlockBegin
  2
block 63
 70
     0
 10
0.0
 20
0.0
 30
0.0
  3
block 63
  1

  0
SPLINE
  5
174
330
170
100
AcDbEntity
  8
0
 62
     7
420
 16777215
370
    25
100
AcDbSpline
210
0.0
220
0.0
230
1.0
 70
     8
 71
     3
 72
     8
 73
     4
 74
     0
 42
0.0000000001
 43
0.0000000001
 12
1.0
 22
0.0
 32
0.0
 13
1.0
 23
0.0
 33
0.0
 40
0.0
 40
0.0
 40
0.0
 40
0.0
 40
1.0
 40
1.0
 40
1.0
 40
1.0
 10
301.5184872490013
 20
187.2633216454052
 30
0.0
 10
301.9190735571547
 20
187.1602778151243
 30
0.0
 10
302.3304338420133
 20
187.1049354046155
 30
0.0
 10
302.7440100814928
 20
187.0984457685164
 30
0.0
  0
ENDBLK
  5
173
330
170
100
AcDbEntity
  8
0
100
AcDbBlockEnd
  0
BLOCK
  5
177
330
175
100
AcDbEntity
  8
0
100
AcDbBlockBegin
  2
block 64
 70
     0
 10
0.0
 20
0.0
 30
0.0
  3
block 64
  1

  0
SPLINE
  5
179
330
175
100
AcDbEntity
  8
0
 62
     7
420
 16777215
370
    25
100
AcDbSpline
210
0.0
220
0.0
230
1.0
 70
     8
 71
     3
 72
     8
 73
     4
 74
     0
 42
0.0000000001
 43
0.0000000001
 12
1.0
 22
0.0
 32
0.0
 13
1.0
 23
0.0
 33
0.0
 40
0.0
 40
0.0
 40
0.0
 40
0.0
 40
1.0
 40
1.0
 40
1.0
 40
1.0
 10
301.3641581418602
 20
187.0369624194859
 30
0.0
 10
301.4166323818827
 20
187.1117072463314
 30
0.0
 10
301.4680802444269
 20
187.1871674013185
 30
0.0
 10
301.5184872489808
 20
187.2633216454424
 30
0.0
  0
ENDBLK
  5
178
330
175
100
AcDbEntity
  8
0
100
AcDbBlockEnd
  0
BLOCK
  5
17C
330
17A
100
AcDbEntity
  8
0
100
AcDbBlockBegin
  2
block 65
 70
     0
 10
0.0
 20
0.0
 30
0.0
  3
block 65
  1

  0
SPLINE
  5
17E
330
17A
100
AcDbEntity
  8
0
 62
     7
420
 16777215
370
    25
100
AcDbSpline
210
0.0
220
0.0
230
1.0
 70
     8
 71
     3
 72
     8
 73
     4
 74
     0
 42
0.0000000001
 43
0.0000000001
 12
1.0
 22
0.0
 32
0.0
 13
1.0
 23
0.0
 33
0.0
 40
0.0
 40
0.0
 40
0.0
 40
0.0
 40
1.0
 40
1.0
 40
1.0
 40
1.0
 10
301.9653705345023
 20
185.9563913081446
 30
0.0
 10
301.8082331356353
 20
186.339007642236
 30
0.0
 10
301.6064295506542
 20
186.7017132796974
 30
0.0
 10
301.3641581419199
 20
187.0369624195116
 30
0.0
  0
ENDBLK
  5
17D
330
17A
100
AcDbEntity
  8
0
100
AcDbBlockEnd
  0
BLOCK
  5
181
330
17F
100
AcDbEntity
  8
0
100
AcDbBlockBegin
  2
block 66
 70
     0
 10
0.0
 20
0.0
 30
0.0
  3
block 66
  1

  0
SPLINE
  5
183
330
17F
100
AcDbEntity
  8
0
 62
     7
420
 16777215
370
    25
100
AcDbSpline
210
0.0
220
0.0
230
1.0
 70
     8
 71
     3
 72
     8
 73
     4
 74
     0
 42
0.0000000001
 43
0.0000000001
 12
1.0
 22
0.0
 32
0.0
 13
1.0
 23
0.0
 33
0.0
 40
0.0
 40
0.0
 40
0.0
 40
0.0
 40
1.0
 40
1.0
 40
1.0
 40
1.0
 10
301.7899736185092
 20
185.7364505321845
 30
0.0
 10
301.8493638049152
 20
185.8090220292243
 30
0.0
 10
301.9078341160927
 20
185.8823414803722
 30
0.0
 10
301.9653705344394
 20
185.9563913081086
 30
0.0
  0
ENDBLK
  5
182
330
17F
100
AcDbEntity
  8
0
100
AcDbBlockEnd
  0
BLOCK
  5
186
330
184
100
AcDbEntity
  8
0
100
AcDbBlockBegin
  2
block 67
 70
     0
 10
0.0
 20
0.0
 30
0.0
  3
block 67
  1

  0
SPLINE
  5
188
330
184
100
AcDbEntity
  8
0
 62
     7
420
 16777215
370
    25
100
AcDbSpline
210
0.0
220
0.0
230
1.0
 70
     8
 71
     3
 72
     8
 73
     4
 74
     0
 42
0.0000000001
 43
0.0000000001
 12
1.0
 22
0.0
 32
0.0
 13
1.0
 23
0.0
 33
0.0
 40
0.0
 40
0.0
 40
0.0
 40
0.0
 40
1.0
 40
1.0
 40
1.0
 40
1.0
 10
300.6027123378053
 20
186.0821395819476
 30
0.0
 10
300.9834665418901
 20
185.9205423749472
 30
0.0
 10
301.3819839139653
 20
185.8045080243688
 30
0.0
 10
301.7899736184861
 20
185.7364505321749
 30
0.0
  0
ENDBLK
  5
187
330
184
100
AcDbEntity
  8
0
100
AcDbBlockEnd
  0
BLOCK
  5
18B
330
189
100
AcDbEntity
  8
0
100
AcDbBlockBegin
  2
block 68
 70
     0
 10
0.0
 20
0.0
 30
0.0
  3
block 68
  1

  0
SPLINE
  5
18D
330
189
100
AcDbEntity
  8
0
 62
     7
420
 16777215
370
    25
100
AcDbSpline
210
0.0
220
0.0
230
1.0
 70
     8
 71
     3
 72
     8
 73
     4
 74
     0
 42
0.0000000001
 43
0.0000000001
 12
1.0
 22
0.0
 32
0.0
 13
1.0
 23
0.0
 33
0.0
 40
0.0
 40
0.0
 40
0.0
 40
0.0
 40
1.0
 40
1.0
 40
1.0
 40
1.0
 10
300.4163698673283
 20
185.8813101613999
 30
0.0
 10
300.4793981518236
 20
185.947399270636
 30
0.0
 10
300.5415181367559
 20
186.0143486920163
 30
0.0
 10
300.60271233784
 20
186.0821395819636
 30
0.0
  0
ENDBLK
  5
18C
330
189
100
AcDbEntity
  8
0
100
AcDbBlockEnd
  0
BLOCK
  5
190
330
18E
100
AcDbEntity
  8
0
100
AcDbBlockBegin
  2
block 69
 70
     0
 10
0.0
 20
0.0
 30
0.0
  3
block 69
  1

  0
SPLINE
  5
192
330
18E
100
AcDbEntity
  8
0
 62
     7
420
 16777215
370
    25
100
AcDbSpline
210
0.0
220
0.0
230
1.0
 70
     8
 71
     3
 72
     8
 73
     4
 74
     0
 42
0.0000000001
 43
0.0000000001
 12
1.0
 22
0.0
 32
0.0
 13
1.0
 23
0.0
 33
0.0
 40
0.0
 40
0.0
 40
0.0
 40
0.0
 40
1.0
 40
1.0
 40
1.0
 40
1.0
 10
300.8498164470244
 20
184.7232020790562
 30
0.0
 10
300.7514601485814
 20
185.1249650188516
 30
0.0
 10
300.6059690130709
 20
185.5136967976468
 30
0.0
 10
300.4163698673328
 20
185.8813101613473
 30
0.0
  0
ENDBLK
  5
191
330
18E
100
AcDbEntity
  8
0
100
AcDbBlockEnd
  0
BLOCK
  5
195
330
193
100
AcDbEntity
  8
0
100
AcDbBlockBegin
  2
block 70
 70
     0
 10
0.0
 20
0.0
 30
0.0
  3
block 70
  1

  0
SPLINE
  5
197
330
193
100
AcDbEntity
  8
0
 62
     7
420
 16777215
370
    25
100
AcDbSpline
210
0.0
220
0.0
230
1.0
 70
     8
 71
     3
 72
     8
 73
     4
 74
     0
 42
0.0000000001
 43
0.0000000001
 12
1.0
 22
0.0
 32
0.0
 13
1.0
 23
0.0
 33
0.0
 40
0.0
 40
0.0
 40
0.0
 40
0.0
 40
1.0
 40
1.0
 40
1.0
 40
1.0
 10
300.643598098051
 20
184.531859413751
 30
0.0
 10
300.7131411655229
 20
184.5947686991591
 30
0.0
 10
300.7818861087882
 20
184.6585546849335
 30
0.0
 10
300.8498164470161
 20
184.7232020790985
 30
0.0
  0
ENDBLK
  5
196
330
193
100
AcDbEntity
  8
0
100
AcDbBlockEnd
  0
BLOCK
  5
19A
330
198
100
AcDbEntity
  8
0
100
AcDbBlockBegin
  2
block 71
 70
     0
 10
0.0
 20
0.0
 30
0.0
  3
block 71
  1

  0
SPLINE
  5
19C
330
198
100
AcDbEntity
  8
0
 62
     7
420
 16777215
370
    25
100
AcDbSpline
210
0.0
220
0.0
230
1.0
 70
     8
 71
     3
 72
     8
 73
     4
 74
     0
 42
0.0000000001
 43
0.0000000001
 12
1.0
 22
0.0
 32
0.0
 13
1.0
 23
0.0
 33
0.0
 40
0.0
 40
0.0
 40
0.0
 40
0.0
 40
1.0
 40
1.0
 40
1.0
 40
1.0
 10
299.5211198242927
 20
185.050639514254
 30
0.0
 10
299.8735365045649
 20
184.8340987451094
 30
0.0
 10
300.250308744292
 20
184.659964470112
 30
0.0
 10
300.6435980980343
 20
184.5318594137369
 30
0.0
  0
ENDBLK
  5
19B
330
198
100
AcDbEntity
  8
0
100
AcDbBlockEnd
  0
BLOCK
  5
19F
330
19D
100
AcDbEntity
  8
0
100
AcDbBlockBegin
  2
block 72
 70
     0
 10
0.0
 20
0.0
 30
0.0
  3
block 72
  1

  0
SPLINE
  5
1A1
330
19D
100
AcDbEntity
  8
0
 62
     7
420
 16777215
370
    25
100
AcDbSpline
210
0.0
220
0.0
230
1.0
 70
     8
 71
     3
 72
     8
 73
     4
 74
     0
 42
0.0000000001
 43
0.0000000001
 12
1.0
 22
0.0
 32
0.0
 13
1.0
 23
0.0
 33
0.0
 40
0.0
 40
0.0
 40
0.0
 40
0.0
 40
1.0
 40
1.0
 40
1.0
 40
1.0
 10
299.3069265732667
 20
184.8798260964869
 30
0.0
 10
299.37910095451
 20
184.9357831666235
 30
0.0
 10
299.4505054040171
 20
184.9927263149534
 30
0.0
 10
299.5211198242991
 20
185.0506395142643
 30
0.0
  0
ENDBLK
  5
1A0
330
19D
100
AcDbEntity
  8
0
100
AcDbBlockEnd
  0
BLOCK
  5
1A4
330
1A2
100
AcDbEntity
  8
0
100
AcDbBlockBegin
  2
block 73
 70
     0
 10
0.0
 20
0.0
 30
0.0
  3
block 73
  1

  0
SPLINE
  5
1A6
330
1A2
100
AcDbEntity
  8
0
 62
     7
420
 16777215
370
    25
100
AcDbSpline
210
0.0
220
0.0
230
1.0
 70
     8
 71
     3
 72
     8
 73
     4
 74
     0
 42
0.0000000001
 43
0.0000000001
 12
1.0
 22
0.0
 32
0.0
 13
1.0
 23
0.0
 33
0.0
 40
0.0
 40
0.0
 40
0.0
 40
0.0
 40
1.0
 40
1.0
 40
1.0
 40
1.0
 10
299.5629248597537
 20
183.6700512640827
 30
0.0
 10
299.5255467789118
 20
184.0819860894034
 30
0.0
 10
299.4396181244227
 20
184.4880603839575
 30
0.0
 10
299.3069265732923
 20
184.8798260964651
 30
0.0
  0
ENDBLK
  5
1A5
330
1A2
100
AcDbEntity
  8
0
100
AcDbBlockEnd
  0
BLOCK
  5
1A9
330
1A7
100
AcDbEntity
  8
0
100
AcDbBlockBegin
  2
block 74
 70
     0
 10
0.0
 20
0.0
 30
0.0
  3
block 74
  1

  0
SPLINE
  5
1AB
330
1A7
100
AcDbEntity
  8
0
 62
     7
420
 16777215
370
    25
100
AcDbSpline
210
0.0
220
0.0
230
1.0
 70
     8
 71
     3
 72
     8
 73
     4
 74
     0
 42
0.0000000001
 43
0.0000000001
 12
1.0
 22
0.0
 32
0.0
 13
1.0
 23
0.0
 33
0.0
 40
0.0
 40
0.0
 40
0.0
 40
0.0
 40
1.0
 40
1.0
 40
1.0
 40
1.0
 10
299.3304916548859
 20
183.5115809883042
 30
0.0
 10
299.4086341262132
 20
183.5634227725993
 30
0.0
 10
299.4861180531307
 20
183.6162504194822
 30
0.0
 10
299.5629248597351
 20
183.670051264116
 30
0.0
  0
ENDBLK
  5
1AA
330
1A7
100
AcDbEntity
  8
0
100
AcDbBlockEnd
  0
BLOCK
  5
1AE
330
1AC
100
AcDbEntity
  8
0
100
AcDbBlockBegin
  2
block 75
 70
     0
 10
0.0
 20
0.0
 30
0.0
  3
block 75
  1

  0
SPLINE
  5
1B0
330
1AC
100
AcDbEntity
  8
0
 62
     7
420
 16777215
370
    25
100
AcDbSpline
210
0.0
220
0.0
230
1.0
 70
     8
 71
     3
 72
     8
 73
     4
 74
     0
 42
0.0000000001
 43
0.0000000001
 12
1.0
 22
0.0
 32
0.0
 13
1.0
 23
0.0
 33
0.0
 40
0.0
 40
0.0
 40
0.0
 40
0.0
 40
1.0
 40
1.0
 40
1.0
 40
1.0
 10
298.2978706978436
 20
184.1918634493515
 30
0.0
 10
298.6140774480193
 20
183.9252162810207
 30
0.0
 10
298.960688086163
 20
183.6968719535607
 30
0.0
 10
299.3304916548595
 20
183.5115809882772
 30
0.0
  0
ENDBLK
  5
1AF
330
1AC
100
AcDbEntity
  8
0
100
AcDbBlockEnd
  0
BLOCK
  5
1B3
330
1B1
100
AcDbEntity
  8
0
100
AcDbBlockBegin
  2
block 76
 70
     0
 10
0.0
 20
0.0
 30
0.0
  3
block 76
  1

  0
SPLINE
  5
1B5
330
1B1
100
AcDbEntity
  8
0
 62
     7
420
 16777215
370
    25
100
AcDbSpline
210
0.0
220
0.0
230
1.0
 70
     8
 71
     3
 72
     8
 73
     4
 74
     0
 42
0.0000000001
 43
0.0000000001
 12
1.0
 22
0.0
 32
0.0
 13
1.0
 23
0.0
 33
0.0
 40
0.0
 40
0.0
 40
0.0
 40
0.0
 40
1.0
 40
1.0
 40
1.0
 40
1.0
 10
298.0606113895896
 20
184.0548817238795
 30
0.0
 10
298.140319611169
 20
184.0994567664354
 30
0.0
 10
298.2194134678414
 20
184.1451216258776
 30
0.0
 10
298.297870697859
 20
184.1918634493772
 30
0.0
  0
ENDBLK
  5
1B4
330
1B1
100
AcDbEntity
  8
0
100
AcDbBlockEnd
  0
BLOCK
  5
1B8
330
1B6
100
AcDbEntity
  8
0
100
AcDbBlockBegin
  2
block 77
 70
     0
 10
0.0
 20
0.0
 30
0.0
  3
block 77
  1

  0
SPLINE
  5
1BA
330
1B6
100
AcDbEntity
  8
0
 62
     7
420
 16777215
370
    25
100
AcDbSpline
210
0.0
220
0.0
230
1.0
 70
     8
 71
     3
 72
     8
 73
     4
 74
     0
 42
0.0000000001
 43
0.0000000001
 12
1.0
 22
0.0
 32
0.0
 13
1.0
 23
0.0
 33
0.0
 40
0.0
 40
0.0
 40
0.0
 40
0.0
 40
1.0
 40
1.0
 40
1.0
 40
1.0
 10
298.1334428041833
 20
182.820464512101
 30
0.0
 10
298.1578779055043
 20
183.2333692796448
 30
0.0
 10
298.1334312361856
 20
183.6477150612286
 30
0.0
 10
298.0606113896518
 20
184.0548817238949
 30
0.0
  0
ENDBLK
  5
1B9
330
1B6
100
AcDbEntity
  8
0
100
AcDbBlockEnd
  0
BLOCK
  5
1BD
330
1BB
100
AcDbEntity
  8
0
100
AcDbBlockBegin
  2
block 78
 70
     0
 10
0.0
 20
0.0
 30
0.0
  3
block 78
  1

  0
SPLINE
  5
1BF
330
1BB
100
AcDbEntity
  8
0
 62
     7
420
 16777215
370
    25
100
AcDbSpline
210
0.0
220
0.0
230
1.0
 70
     8
 71
     3
 72
     8
 73
     4
 74
     0
 42
0.0000000001
 43
0.0000000001
 12
1.0
 22
0.0
 32
0.0
 13
1.0
 23
0.0
 33
0.0
 40
0.0
 40
0.0
 40
0.0
 40
0.0
 40
1.0
 40
1.0
 40
1.0
 40
1.0
 10
297.8799869170925
 20
182.6984065899009
 30
0.0
 10
297.9649832185923
 20
182.7380228132867
 30
0.0
 10
298.0494752662742
 20
182.7787120389417
 30
0.0
 10
298.1334428041141
 20
182.8204645120779
 30
0.0
  0
ENDBLK
  5
1BE
330
1BB
100
AcDbEntity
  8
0
100
AcDbBlockEnd
  0
BLOCK
  5
1C2
330
1C0
100
AcDbEntity
  8
0
100
AcDbBlockBegin
  2
block 79
 70
     0
 10
0.0
 20
0.0
 30
0.0
  3
block 79
  1

  0
SPLINE
  5
1C4
330
1C0
100
AcDbEntity
  8
0
 62
     7
420
 16777215
370
    25
100
AcDbSpline
210
0.0
220
0.0
230
1.0
 70
     8
 71
     3
 72
     8
 73
     4
 74
     0
 42
0.0000000001
 43
0.0000000001
 12
1.0
 22
0.0
 32
0.0
 13
1.0
 23
0.0
 33
0.0
 40
0.0
 40
0.0
 40
0.0
 40
0.0
 40
1.0
 40
1.0
 40
1.0
 40
1.0
 10
296.9602903226894
 20
183.5249950254571
 30
0.0
 10
297.2332236064879
 20
183.2141979150563
 30
0.0
 10
297.5419299341514
 20
182.9367443700787
 30
0.0
 10
297.8799869171611
 20
182.698406589865
 30
0.0
  0
ENDBLK
  5
1C3
330
1C0
100
AcDbEntity
  8
0
100
AcDbBlockEnd
  0
BLOCK
  5
1C7
330
1C5
100
AcDbEntity
  8
0
100
AcDbBlockBegin
  2
block 80
 70
     0
 10
0.0
 20
0.0
 30
0.0
  3
block 80
  1

  0
SPLINE
  5
1C9
330
1C5
100
AcDbEntity
  8
0
 62
     7
420
 16777215
370
    25
100
AcDbSpline
210
0.0
220
0.0
230
1.0
 70
     8
 71
     3
 72
     8
 73
     4
 74
     0
 42
0.0000000001
 43
0.0000000001
 12
1.0
 22
0.0
 32
0.0
 13
1.0
 23
0.0
 33
0.0
 40
0.0
 40
0.0
 40
0.0
 40
0.0
 40
1.0
 40
1.0
 40
1.0
 40
1.0
 10
296.7052649380154
 20
183.4249049376687
 30
0.0
 10
296.7907264499739
 20
183.4571022198512
 30
0.0
 10
296.8757428877522
 20
183.4904687129038
 30
0.0
 10
296.9602903226336
 20
183.5249950254943
 30
0.0
  0
ENDBLK
  5
1C8
330
1C5
100
AcDbEntity
  8
0
100
AcDbBlockEnd
  0
BLOCK
  5
1CC
330
1CA
100
AcDbEntity
  8
0
100
AcDbBlockBegin
  2
block 81
 70
     0
 10
0.0
 20
0.0
 30
0.0
  3
block 81
  1

  0
SPLINE
  5
1CE
330
1CA
100
AcDbEntity
  8
0
 62
     7
420
 16777215
370
    25
100
AcDbSpline
210
0.0
220
0.0
230
1.0
 70
     8
 71
     3
 72
     8
 73
     4
 74
     0
 42
0.0000000001
 43
0.0000000001
 12
1.0
 22
0.0
 32
0.0
 13
1.0
 23
0.0
 33
0.0
 40
0.0
 40
0.0
 40
0.0
 40
0.0
 40
1.0
 40
1.0
 40
1.0
 40
1.0
 10
296.5933025471466
 20
182.1934201871124
 30
0.0
 10
296.6790049908445
 20
182.5980712866786
 30
0.0
 10
296.716586404891
 20
183.0114327552212
 30
0.0
 10
296.7052649379922
 20
183.4249049376264
 30
0.0
  0
ENDBLK
  5
1CD
330
1CA
100
AcDbEntity
  8
0
100
AcDbBlockEnd
  0
BLOCK
  5
1D1
330
1CF
100
AcDbEntity
  8
0
100
AcDbBlockBegin
  2
block 82
 70
     0
 10
0.0
 20
0.0
 30
0.0
  3
block 82
  1

  0
SPLINE
  5
1D3
330
1CF
100
AcDbEntity
  8
0
 62
     7
420
 16777215
370
    25
100
AcDbSpline
210
0.0
220
0.0
230
1.0
 70
     8
 71
     3
 72
     8
 73
     4
 74
     0
 42
0.0000000001
 43
0.0000000001
 12
1.0
 22
0.0
 32
0.0
 13
1.0
 23
0.0
 33
0.0
 40
0.0
 40
0.0
 40
0.0
 40
0.0
 40
1.0
 40
1.0
 40
1.0
 40
1.0
 10
296.3244857636602
 20
182.1105011908907
 30
0.0
 10
296.4144372184094
 20
182.1370068924014
 30
0.0
 10
296.5040499741282
 20
182.1646487667635
 30
0.0
 10
296.593302547162
 20
182.1934201871471
 30
0.0
  0
ENDBLK
  5
1D2
330
1CF
100
AcDbEntity
  8
0
100
AcDbBlockEnd
  0
BLOCK
  5
1D6
330
1D4
100
AcDbEntity
  8
0
100
AcDbBlockBegin
  2
block 83
 70
     0
 10
0.0
 20
0.0
 30
0.0
  3
block 83
  1

  0
SPLINE
  5
1D8
330
1D4
100
AcDbEntity
  8
0
 62
     7
420
 16777215
370
    25
100
AcDbSpline
210
0.0
220
0.0
230
1.0
 70
     8
 71
     3
 72
     8
 73
     4
 74
     0
 42
0.0000000001
 43
0.0000000001
 12
1.0
 22
0.0
 32
0.0
 13
1.0
 23
0.0
 33
0.0
 40
0.0
 40
0.0
 40
0.0
 40
0.0
 40
1.0
 40
1.0
 40
1.0
 40
1.0
 10
295.5382580338932
 20
183.0649309812695
 30
0.0
 10
295.7618209727599
 20
182.7169266226747
 30
0.0
 10
296.0257270006994
 20
182.396561713899
 30
0.0
 10
296.324485763639
 20
182.1105011909279
 30
0.0
  0
ENDBLK
  5
1D7
330
1D4
100
AcDbEntity
  8
0
100
AcDbBlockEnd
  0
BLOCK
  5
1DB
330
1D9
100
AcDbEntity
  8
0
100
AcDbBlockBegin
  2
block 84
 70
     0
 10
0.0
 20
0.0
 30
0.0
  3
block 84
  1

  0
SPLINE
  5
1DD
330
1D9
100
AcDbEntity
  8
0
 62
     7
420
 16777215
370
    25
100
AcDbSpline
210
0.0
220
0.0
230
1.0
 70
     8
 71
     3
 72
     8
 73
     4
 74
     0
 42
0.0000000001
 43
0.0000000001
 12
1.0
 22
0.0
 32
0.0
 13
1.0
 23
0.0
 33
0.0
 40
0.0
 40
0.0
 40
0.0
 40
0.0
 40
1.0
 40
1.0
 40
1.0
 40
1.0
 10
295.271163418612
 20
183.0039683782504
 30
0.0
 10
295.3604691519931
 20
183.0230686659792
 30
0.0
 10
295.4495090441436
 20
183.0433914403227
 30
0.0
 10
295.5382580339034
 20
183.0649309812349
 30
0.0
  0
ENDBLK
  5
1DC
330
1D9
100
AcDbEntity
  8
0
100
AcDbBlockEnd
  0
BLOCK
  5
1E0
330
1DE
100
AcDbEntity
  8
0
100
AcDbBlockBegin
  2
block 85
 70
     0
 10
0.0
 20
0.0
 30
0.0
  3
block 85
  1

  0
SPLINE
  5
1E2
330
1DE
100
AcDbEntity
  8
0
 62
     7
420
 16777215
370
    25
100
AcDbSpline
210
0.0
220
0.0
230
1.0
 70
     8
 71
     3
 72
     8
 73
     4
 74
     0
 42
0.0000000001
 43
0.0000000001
 12
1.0
 22
0.0
 32
0.0
 13
1.0
 23
0.0
 33
0.0
 40
0.0
 40
0.0
 40
0.0
 40
0.0
 40
1.0
 40
1.0
 40
1.0
 40
1.0
 10
294.9769082772567
 20
181.802925423345
 30
0.0
 10
295.1219636123591
 20
182.1902836180394
 30
0.0
 10
295.2207336030843
 20
182.5934269613957
 30
0.0
 10
295.2711634186838
 20
183.0039683782312
 30
0.0
  0
ENDBLK
  5
1E1
330
1DE
100
AcDbEntity
  8
0
100
AcDbBlockEnd
  0
BLOCK
  5
1E5
330
1E3
100
AcDbEntity
  8
0
100
AcDbBlockBegin
  2
block 86
 70
     0
 10
0.0
 20
0.0
 30
0.0
  3
block 86
  1

  0
SPLINE
  5
1E7
330
1E3
100
AcDbEntity
  8
0
 62
     7
420
 16777215
370
    25
100
AcDbSpline
210
0.0
220
0.0
230
1.0
 70
     8
 71
     3
 72
     8
 73
     4
 74
     0
 42
0.0000000001
 43
0.0000000001
 12
1.0
 22
0.0
 32
0.0
 13
1.0
 23
0.0
 33
0.0
 40
0.0
 40
0.0
 40
0.0
 40
0.0
 40
1.0
 40
1.0
 40
1.0
 40
1.0
 10
294.6987355199524
 20
181.7609976263921
 30
0.0
 10
294.7916327610919
 20
181.7738007124545
 30
0.0
 10
294.884364423966
 20
181.7877777617281
 30
0.0
 10
294.9769082771963
 20
181.8029254233707
 30
0.0
  0
ENDBLK
  5
1E6
330
1E3
100
AcDbEntity
  8
0
100
AcDbBlockEnd
  0
BLOCK
  5
1EA
330
1E8
100
AcDbEntity
  8
0
100
AcDbBlockBegin
  2
block 87
 70
     0
 10
0.0
 20
0.0
 30
0.0
  3
block 87
  1

  0
SPLINE
  5
1EC
330
1E8
100
AcDbEntity
  8
0
 62
     7
420
 16777215
370
    25
100
AcDbSpline
210
0.0
220
0.0
230
1.0
 70
     8
 71
     3
 72
     8
 73
     4
 74
     0
 42
0.0000000001
 43
0.0000000001
 12
1.0
 22
0.0
 32
0.0
 13
1.0
 23
0.0
 33
0.0
 40
0.0
 40
0.0
 40
0.0
 40
0.0
 40
1.0
 40
1.0
 40
1.0
 40
1.0
 10
294.0635396832298
 20
182.8219483871204
 30
0.0
 10
294.2327382505391
 20
182.4445106226397
 30
0.0
 10
294.4459487541855
 20
182.0883907727402
 30
0.0
 10
294.6987355199781
 20
181.7609976263908
 30
0.0
  0
ENDBLK
  5
1EB
330
1E8
100
AcDbEntity
  8
0
100
AcDbBlockEnd
  0
BLOCK
  5
1EF
330
1ED
100
AcDbEntity
  8
0
100
AcDbBlockBegin
  2
block 88
 70
     0
 10
0.0
 20
0.0
 30
0.0
  3
block 88
  1

  0
SPLINE
  5
1F1
330
1ED
100
AcDbEntity
  8
0
 62
     7
420
 16777215
370
    25
100
AcDbSpline
210
0.0
220
0.0
230
1.0
 70
     8
 71
     3
 72
     8
 73
     4
 74
     0
 42
0.0000000001
 43
0.0000000001
 12
1.0
 22
0.0
 32
0.0
 13
1.0
 23
0.0
 33
0.0
 40
0.0
 40
0.0
 40
0.0
 40
0.0
 40
1.0
 40
1.0
 40
1.0
 40
1.0
 10
293.7903422895741
 20
182.8014750727927
 30
0.0
 10
293.8814973018683
 20
182.8070516972037
 30
0.0
 10
293.9725716443332
 20
182.8138767756427
 30
0.0
 10
294.0635396831945
 20
182.8219483871243
 30
0.0
  0
ENDBLK
  5
1F0
330
1ED
100
AcDbEntity
  8
0
100
AcDbBlockEnd
  0
BLOCK
  5
1F4
330
1F2
100
AcDbEntity
  8
0
100
AcDbBlockBegin
  2
block 89
 70
     0
 10
0.0
 20
0.0
 30
0.0
  3
block 89
  1

  0
SPLINE
  5
1F6
330
1F2
100
AcDbEntity
  8
0
 62
     7
420
 16777215
370
    25
100
AcDbSpline
210
0.0
220
0.0
230
1.0
 70
     8
 71
     3
 72
     8
 73
     4
 74
     0
 42
0.0000000001
 43
0.0000000001
 12
1.0
 22
0.0
 32
0.0
 13
1.0
 23
0.0
 33
0.0
 40
0.0
 40
0.0
 40
0.0
 40
0.0
 40
1.0
 40
1.0
 40
1.0
 40
1.0
 10
293.3203675711787
 20
181.6577032285113
 30
0.0
 10
293.5215355011957
 20
182.0191155763521
 30
0.0
 10
293.6792877102183
 20
182.4030352384021
 30
0.0
 10
293.7903422895677
 20
182.8014750728119
 30
0.0
  0
ENDBLK
  5
1F5
330
1F2
100
AcDbEntity
  8
0
100
AcDbBlockEnd
  0
BLOCK
  5
1F9
330
1F7
100
AcDbEntity
  8
0
100
AcDbBlockBegin
  2
block 90
 70
     0
 10
0.0
 20
0.0
 30
0.0
  3
block 90
  1

  0
SPLINE
  5
1FB
330
1F7
100
AcDbEntity
  8
0
 62
     7
420
 16777215
370
    25
100
AcDbSpline
210
0.0
220
0.0
230
1.0
 70
     8
 71
     3
 72
     8
 73
     4
 74
     0
 42
0.0000000001
 43
0.0000000001
 12
1.0
 22
0.0
 32
0.0
 13
1.0
 23
0.0
 33
0.0
 40
0.0
 40
0.0
 40
0.0
 40
0.0
 40
1.0
 40
1.0
 40
1.0
 40
1.0
 10
293.0390527599218
 20
181.6577032284972
 30
0.0
 10
293.1328206165992
 20
181.6565176993257
 30
0.0
 10
293.2265997145205
 20
181.6565176993257
 30
0.0
 10
293.3203675711979
 20
181.6577032284972
 30
0.0
  0
ENDBLK
  5
1FA
330
1F7
100
AcDbEntity
  8
0
100
AcDbBlockEnd
  0
BLOCK
  5
1FE
330
1FC
100
AcDbEntity
  8
0
100
AcDbBlockBegin
  2
block 91
 70
     0
 10
0.0
 20
0.0
 30
0.0
  3
block 91
  1

  0
SPLINE
  5
200
330
1FC
100
AcDbEntity
  8
0
 62
     7
420
 16777215
370
    25
100
AcDbSpline
210
0.0
220
0.0
230
1.0
 70
     8
 71
     3
 72
     8
 73
     4
 74
     0
 42
0.0000000001
 43
0.0000000001
 12
1.0
 22
0.0
 32
0.0
 13
1.0
 23
0.0
 33
0.0
 40
0.0
 40
0.0
 40
0.0
 40
0.0
 40
1.0
 40
1.0
 40
1.0
 40
1.0
 10
292.5690780415521
 20
182.8014750728119
 30
0.0
 10
292.680132620902
 20
182.4030352384021
 30
0.0
 10
292.837884829924
 20
182.0191155763521
 30
0.0
 10
293.0390527599411
 20
181.6577032285113
 30
0.0
  0
ENDBLK
  5
1FF
330
1FC
100
AcDbEntity
  8
0
100
AcDbBlockEnd
  0
BLOCK
  5
203
330
201
100
AcDbEntity
  8
0
100
AcDbBlockBegin
  2
block 92
 70
     0
 10
0.0
 20
0.0
 30
0.0
  3
block 92
  1

  0
SPLINE
  5
205
330
201
100
AcDbEntity
  8
0
 62
     7
420
 16777215
370
    25
100
AcDbSpline
210
0.0
220
0.0
230
1.0
 70
     8
 71
     3
 72
     8
 73
     4
 74
     0
 42
0.0000000001
 43
0.0000000001
 12
1.0
 22
0.0
 32
0.0
 13
1.0
 23
0.0
 33
0.0
 40
0.0
 40
0.0
 40
0.0
 40
0.0
 40
1.0
 40
1.0
 40
1.0
 40
1.0
 10
292.2958806479252
 20
182.8219483871243
 30
0.0
 10
292.3868486867865
 20
182.8138767756427
 30
0.0
 10
292.4779230292515
 20
182.8070516972037
 30
0.0
 10
292.5690780415457
 20
182.8014750727927
 30
0.0
  0
ENDBLK
  5
204
330
201
100
AcDbEntity
  8
0
100
AcDbBlockEnd
  0
BLOCK
  5
208
330
206
100
AcDbEntity
  8
0
100
AcDbBlockBegin
  2
block 93
 70
     0
 10
0.0
 20
0.0
 30
0.0
  3
block 93
  1

  0
SPLINE
  5
20A
330
206
100
AcDbEntity
  8
0
 62
     7
420
 16777215
370
    25
100
AcDbSpline
210
0.0
220
0.0
230
1.0
 70
     8
 71
     3
 72
     8
 73
     4
 74
     0
 42
0.0000000001
 43
0.0000000001
 12
1.0
 22
0.0
 32
0.0
 13
1.0
 23
0.0
 33
0.0
 40
0.0
 40
0.0
 40
0.0
 40
0.0
 40
1.0
 40
1.0
 40
1.0
 40
1.0
 10
291.6606848112418
 20
181.7609976263908
 30
0.0
 10
291.913471577035
 20
182.0883907727402
 30
0.0
 10
292.1266820806808
 20
182.4445106226397
 30
0.0
 10
292.29588064799
 20
182.8219483871204
 30
0.0
  0
ENDBLK
  5
209
330
206
100
AcDbEntity
  8
0
100
AcDbBlockEnd
  0
BLOCK
  5
20D
330
20B
100
AcDbEntity
  8
0
100
AcDbBlockBegin
  2
block 94
 70
     0
 10
0.0
 20
0.0
 30
0.0
  3
block 94
  1

  0
SPLINE
  5
20F
330
20B
100
AcDbEntity
  8
0
 62
     7
420
 16777215
370
    25
100
AcDbSpline
210
0.0
220
0.0
230
1.0
 70
     8
 71
     3
 72
     8
 73
     4
 74
     0
 42
0.0000000001
 43
0.0000000001
 12
1.0
 22
0.0
 32
0.0
 13
1.0
 23
0.0
 33
0.0
 40
0.0
 40
0.0
 40
0.0
 40
0.0
 40
1.0
 40
1.0
 40
1.0
 40
1.0
 10
291.3825120539234
 20
181.8029254233707
 30
0.0
 10
291.4750559071538
 20
181.7877777617281
 30
0.0
 10
291.5677875700285
 20
181.7738007124545
 30
0.0
 10
291.6606848111674
 20
181.7609976263921
 30
0.0
  0
ENDBLK
  5
20E
330
20B
100
AcDbEntity
  8
0
100
AcDbBlockEnd
  0
BLOCK
  5
212
330
210
100
AcDbEntity
  8
0
100
AcDbBlockBegin
  2
block 95
 70
     0
 10
0.0
 20
0.0
 30
0.0
  3
block 95
  1

  0
SPLINE
  5
214
330
210
100
AcDbEntity
  8
0
 62
     7
420
 16777215
370
    25
100
AcDbSpline
210
0.0
220
0.0
230
1.0
 70
     8
 71
     3
 72
     8
 73
     4
 74
     0
 42
0.0000000001
 43
0.0000000001
 12
1.0
 22
0.0
 32
0.0
 13
1.0
 23
0.0
 33
0.0
 40
0.0
 40
0.0
 40
0.0
 40
0.0
 40
1.0
 40
1.0
 40
1.0
 40
1.0
 10
291.088256912536
 20
183.0039683782312
 30
0.0
 10
291.1386867281356
 20
182.5934269613957
 30
0.0
 10
291.2374567188608
 20
182.1902836180394
 30
0.0
 10
291.3825120539632
 20
181.802925423345
 30
0.0
  0
ENDBLK
  5
213
330
210
100
AcDbEntity
  8
0
100
AcDbBlockEnd
  0
BLOCK
  5
217
330
215
100
AcDbEntity
  8
0
100
AcDbBlockBegin
  2
block 96
 70
     0
 10
0.0
 20
0.0
 30
0.0
  3
block 96
  1

  0
SPLINE
  5
219
330
215
100
AcDbEntity
  8
0
 62
     7
420
 16777215
370
    25
100
AcDbSpline
210
0.0
220
0.0
230
1.0
 70
     8
 71
     3
 72
     8
 73
     4
 74
     0
 42
0.0000000001
 43
0.0000000001
 12
1.0
 22
0.0
 32
0.0
 13
1.0
 23
0.0
 33
0.0
 40
0.0
 40
0.0
 40
0.0
 40
0.0
 40
1.0
 40
1.0
 40
1.0
 40
1.0
 10
290.8211622972163
 20
183.0649309812349
 30
0.0
 10
290.9099112869761
 20
183.0433914403227
 30
0.0
 10
290.9989511791267
 20
183.0230686659792
 30
0.0
 10
291.0882569125077
 20
183.0039683782504
 30
0.0
  0
ENDBLK
  5
218
330
215
100
AcDbEntity
  8
0
100
AcDbBlockEnd
  0
BLOCK
  5
21C
330
21A
100
AcDbEntity
  8
0
100
AcDbBlockBegin
  2
block 97
 70
     0
 10
0.0
 20
0.0
 30
0.0
  3
block 97
  1

  0
SPLINE
  5
21E
330
21A
100
AcDbEntity
  8
0
 62
     7
420
 16777215
370
    25
100
AcDbSpline
210
0.0
220
0.0
230
1.0
 70
     8
 71
     3
 72
     8
 73
     4
 74
     0
 42
0.0000000001
 43
0.0000000001
 12
1.0
 22
0.0
 32
0.0
 13
1.0
 23
0.0
 33
0.0
 40
0.0
 40
0.0
 40
0.0
 40
0.0
 40
1.0
 40
1.0
 40
1.0
 40
1.0
 10
290.0349345674808
 20
182.1105011909279
 30
0.0
 10
290.3336933304204
 20
182.396561713899
 30
0.0
 10
290.5975993583598
 20
182.7169266226747
 30
0.0
 10
290.8211622972266
 20
183.0649309812695
 30
0.0
  0
ENDBLK
  5
21D
330
21A
100
AcDbEntity
  8
0
100
AcDbBlockEnd
  0
BLOCK
  5
221
330
21F
100
AcDbEntity
  8
0
100
AcDbBlockBegin
  2
block 98
 70
     0
 10
0.0
 20
0.0
 30
0.0
  3
block 98
  1

  0
SPLINE
  5
223
330
21F
100
AcDbEntity
  8
0
 62
     7
420
 16777215
370
    25
100
AcDbSpline
210
0.0
220
0.0
230
1.0
 70
     8
 71
     3
 72
     8
 73
     4
 74
     0
 42
0.0000000001
 43
0.0000000001
 12
1.0
 22
0.0
 32
0.0
 13
1.0
 23
0.0
 33
0.0
 40
0.0
 40
0.0
 40
0.0
 40
0.0
 40
1.0
 40
1.0
 40
1.0
 40
1.0
 10
289.7661177839577
 20
182.1934201871471
 30
0.0
 10
289.8553703569916
 20
182.1646487667635
 30
0.0
 10
289.944983112711
 20
182.1370068924014
 30
0.0
 10
290.0349345674596
 20
182.1105011908907
 30
0.0
  0
ENDBLK
  5
222
330
21F
100
AcDbEntity
  8
0
100
AcDbBlockEnd
  0
BLOCK
  5
226
330
224
100
AcDbEntity
  8
0
100
AcDbBlockBegin
  2
block 99
 70
     0
 10
0.0
 20
0.0
 30
0.0
  3
block 99
  1

  0
SPLINE
  5
228
330
224
100
AcDbEntity
  8
0
 62
     7
420
 16777215
370
    25
100
AcDbSpline
210
0.0
220
0.0
230
1.0
 70
     8
 71
     3
 72
     8
 73
     4
 74
     0
 42
0.0000000001
 43
0.0000000001
 12
1.0
 22
0.0
 32
0.0
 13
1.0
 23
0.0
 33
0.0
 40
0.0
 40
0.0
 40
0.0
 40
0.0
 40
1.0
 40
1.0
 40
1.0
 40
1.0
 10
289.6541553931275
 20
183.4249049376264
 30
0.0
 10
289.6428339262287
 20
183.0114327552212
 30
0.0
 10
289.6804153402759
 20
182.5980712866786
 30
0.0
 10
289.7661177839731
 20
182.1934201871124
 30
0.0
  0
ENDBLK
  5
227
330
224
100
AcDbEntity
  8
0
100
AcDbBlockEnd
  0
BLOCK
  5
22B
330
229
100
AcDbEntity
  8
0
100
AcDbBlockBegin
  2
block 100
 70
     0
 10
0.0
 20
0.0
 30
0.0
  3
block 100
  1

  0
SPLINE
  5
22D
330
229
100
AcDbEntity
  8
0
 62
     7
420
 16777215
370
    25
100
AcDbSpline
210
0.0
220
0.0
230
1.0
 70
     8
 71
     3
 72
     8
 73
     4
 74
     0
 42
0.0000000001
 43
0.0000000001
 12
1.0
 22
0.0
 32
0.0
 13
1.0
 23
0.0
 33
0.0
 40
0.0
 40
0.0
 40
0.0
 40
0.0
 40
1.0
 40
1.0
 40
1.0
 40
1.0
 10
289.3991300084861
 20
183.5249950254943
 30
0.0
 10
289.4836774433675
 20
183.4904687129038
 30
0.0
 10
289.5686938811458
 20
183.4571022198512
 30
0.0
 10
289.6541553931044
 20
183.4249049376687
 30
0.0
  0
ENDBLK
  5
22C
330
229
100
AcDbEntity
  8
0
100
AcDbBlockEnd
  0
BLOCK
  5
230
330
22E
100
AcDbEntity
  8
0
100
AcDbBlockBegin
  2
block 101
 70
     0
 10
0.0
 20
0.0
 30
0.0
  3
block 101
  1

  0
SPLINE
  5
232
330
22E
100
AcDbEntity
  8
0
 62
     7
420
 16777215
370
    25
100
AcDbSpline
210
0.0
220
0.0
230
1.0
 70
     8
 71
     3
 72
     8
 73
     4
 74
     0
 42
0.0000000001
 43
0.0000000001
 12
1.0
 22
0.0
 32
0.0
 13
1.0
 23
0.0
 33
0.0
 40
0.0
 40
0.0
 40
0.0
 40
0.0
 40
1.0
 40
1.0
 40
1.0
 40
1.0
 10
288.4794334140587
 20
182.698406589865
 30
0.0
 10
288.8174903970685
 20
182.9367443700787
 30
0.0
 10
289.1261967247319
 20
183.2141979150563
 30
0.0
 10
289.3991300085304
 20
183.5249950254571
 30
0.0
  0
ENDBLK
  5
231
330
22E
100
AcDbEntity
  8
0
100
AcDbBlockEnd
  0
BLOCK
  5
235
330
233
100
AcDbEntity
  8
0
100
AcDbBlockBegin
  2
block 102
 70
     0
 10
0.0
 20
0.0
 30
0.0
  3
block 102
  1

  0
SPLINE
  5
237
330
233
100
AcDbEntity
  8
0
 62
     7
420
 16777215
370
    25
100
AcDbSpline
210
0.0
220
0.0
230
1.0
 70
     8
 71
     3
 72
     8
 73
     4
 74
     0
 42
0.0000000001
 43
0.0000000001
 12
1.0
 22
0.0
 32
0.0
 13
1.0
 23
0.0
 33
0.0
 40
0.0
 40
0.0
 40
0.0
 40
0.0
 40
1.0
 40
1.0
 40
1.0
 40
1.0
 10
288.2259775270057
 20
182.8204645120792
 30
0.0
 10
288.3099450648456
 20
182.7787120389417
 30
0.0
 10
288.3944371125274
 20
182.738022813288
 30
0.0
 10
288.4794334140273
 20
182.6984065899022
 30
0.0
  0
ENDBLK
  5
236
330
233
100
AcDbEntity
  8
0
100
AcDbBlockEnd
  0
BLOCK
  5
23A
330
238
100
AcDbEntity
  8
0
100
AcDbBlockBegin
  2
block 103
 70
     0
 10
0.0
 20
0.0
 30
0.0
  3
block 103
  1

  0
SPLINE
  5
23C
330
238
100
AcDbEntity
  8
0
 62
     7
420
 16777215
370
    25
100
AcDbSpline
210
0.0
220
0.0
230
1.0
 70
     8
 71
     3
 72
     8
 73
     4
 74
     0
 42
0.0000000001
 43
0.0000000001
 12
1.0
 22
0.0
 32
0.0
 13
1.0
 23
0.0
 33
0.0
 40
0.0
 40
0.0
 40
0.0
 40
0.0
 40
1.0
 40
1.0
 40
1.0
 40
1.0
 10
288.298808941568
 20
184.0548817238949
 30
0.0
 10
288.2259890950343
 20
183.6477150612286
 30
0.0
 10
288.2015424257156
 20
183.2333692796448
 30
0.0
 10
288.2259775270365
 20
182.820464512101
 30
0.0
  0
ENDBLK
  5
23B
330
238
100
AcDbEntity
  8
0
100
AcDbBlockEnd
  0
BLOCK
  5
23F
330
23D
100
AcDbEntity
  8
0
100
AcDbBlockBegin
  2
block 104
 70
     0
 10
0.0
 20
0.0
 30
0.0
  3
block 104
  1

  0
SPLINE
  5
241
330
23D
100
AcDbEntity
  8
0
 62
     7
420
 16777215
370
    25
100
AcDbSpline
210
0.0
220
0.0
230
1.0
 70
     8
 71
     3
 72
     8
 73
     4
 74
     0
 42
0.0000000001
 43
0.0000000001
 12
1.0
 22
0.0
 32
0.0
 13
1.0
 23
0.0
 33
0.0
 40
0.0
 40
0.0
 40
0.0
 40
0.0
 40
1.0
 40
1.0
 40
1.0
 40
1.0
 10
288.0615496332608
 20
184.1918634493772
 30
0.0
 10
288.1400068632783
 20
184.1451216258776
 30
0.0
 10
288.2191007199508
 20
184.0994567664354
 30
0.0
 10
288.2988089415302
 20
184.0548817238795
 30
0.0
  0
ENDBLK
  5
240
330
23D
100
AcDbEntity
  8
0
100
AcDbBlockEnd
  0
BLOCK
  5
244
330
242
100
AcDbEntity
  8
0
100
AcDbBlockBegin
  2
block 105
 70
     0
 10
0.0
 20
0.0
 30
0.0
  3
block 105
  1

  0
SPLINE
  5
246
330
242
100
AcDbEntity
  8
0
 62
     7
420
 16777215
370
    25
100
AcDbSpline
210
0.0
220
0.0
230
1.0
 70
     8
 71
     3
 72
     8
 73
     4
 74
     0
 42
0.0000000001
 43
0.0000000001
 12
1.0
 22
0.0
 32
0.0
 13
1.0
 23
0.0
 33
0.0
 40
0.0
 40
0.0
 40
0.0
 40
0.0
 40
1.0
 40
1.0
 40
1.0
 40
1.0
 10
287.0289286762602
 20
183.5115809882772
 30
0.0
 10
287.3987322449567
 20
183.6968719535607
 30
0.0
 10
287.7453428831004
 20
183.9252162810207
 30
0.0
 10
288.0615496332768
 20
184.1918634493515
 30
0.0
  0
ENDBLK
  5
245
330
242
100
AcDbEntity
  8
0
100
AcDbBlockEnd
  0
BLOCK
  5
249
330
247
100
AcDbEntity
  8
0
100
AcDbBlockBegin
  2
block 106
 70
     0
 10
0.0
 20
0.0
 30
0.0
  3
block 106
  1

  0
SPLINE
  5
24B
330
247
100
AcDbEntity
  8
0
 62
     7
420
 16777215
370
    25
100
AcDbSpline
210
0.0
220
0.0
230
1.0
 70
     8
 71
     3
 72
     8
 73
     4
 74
     0
 42
0.0000000001
 43
0.0000000001
 12
1.0
 22
0.0
 32
0.0
 13
1.0
 23
0.0
 33
0.0
 40
0.0
 40
0.0
 40
0.0
 40
0.0
 40
1.0
 40
1.0
 40
1.0
 40
1.0
 10
286.7964954713846
 20
183.670051264116
 30
0.0
 10
286.8733022779891
 20
183.6162504194822
 30
0.0
 10
286.9507862049072
 20
183.5634227725993
 30
0.0
 10
287.0289286762345
 20
183.5115809883042
 30
0.0
  0
ENDBLK
  5
24A
330
247
100
AcDbEntity
  8
0
100
AcDbBlockEnd
  0
BLOCK
  5
24E
330
24C
100
AcDbEntity
  8
0
100
AcDbBlockBegin
  2
block 107
 70
     0
 10
0.0
 20
0.0
 30
0.0
  3
block 107
  1

  0
SPLINE
  5
250
330
24C
100
AcDbEntity
  8
0
 62
     7
420
 16777215
370
    25
100
AcDbSpline
210
0.0
220
0.0
230
1.0
 70
     8
 71
     3
 72
     8
 73
     4
 74
     0
 42
0.0000000001
 43
0.0000000001
 12
1.0
 22
0.0
 32
0.0
 13
1.0
 23
0.0
 33
0.0
 40
0.0
 40
0.0
 40
0.0
 40
0.0
 40
1.0
 40
1.0
 40
1.0
 40
1.0
 10
287.0524937578274
 20
184.8798260964651
 30
0.0
 10
286.919802206697
 20
184.4880603839575
 30
0.0
 10
286.8338735522079
 20
184.0819860894034
 30
0.0
 10
286.7964954713667
 20
183.6700512640827
 30
0.0
  0
ENDBLK
  5
24F
330
24C
100
AcDbEntity
  8
0
100
AcDbBlockEnd
  0
BLOCK
  5
253
330
251
100
AcDbEntity
  8
0
100
AcDbBlockBegin
  2
block 108
 70
     0
 10
0.0
 20
0.0
 30
0.0
  3
block 108
  1

  0
SPLINE
  5
255
330
251
100
AcDbEntity
  8
0
 62
     7
420
 16777215
370
    25
100
AcDbSpline
210
0.0
220
0.0
230
1.0
 70
     8
 71
     3
 72
     8
 73
     4
 74
     0
 42
0.0000000001
 43
0.0000000001
 12
1.0
 22
0.0
 32
0.0
 13
1.0
 23
0.0
 33
0.0
 40
0.0
 40
0.0
 40
0.0
 40
0.0
 40
1.0
 40
1.0
 40
1.0
 40
1.0
 10
286.8383005068206
 20
185.0506395142643
 30
0.0
 10
286.9089149271026
 20
184.9927263149534
 30
0.0
 10
286.9803193766097
 20
184.9357831666235
 30
0.0
 10
287.0524937578537
 20
184.8798260964869
 30
0.0
  0
ENDBLK
  5
254
330
251
100
AcDbEntity
  8
0
100
AcDbBlockEnd
  0
BLOCK
  5
258
330
256
100
AcDbEntity
  8
0
100
AcDbBlockBegin
  2
block 109
 70
     0
 10
0.0
 20
0.0
 30
0.0
  3
block 109
  1

  0
SPLINE
  5
25A
330
256
100
AcDbEntity
  8
0
 62
     7
420
 16777215
370
    25
100
AcDbSpline
210
0.0
220
0.0
230
1.0
 70
     8
 71
     3
 72
     8
 73
     4
 74
     0
 42
0.0000000001
 43
0.0000000001
 12
1.0
 22
0.0
 32
0.0
 13
1.0
 23
0.0
 33
0.0
 40
0.0
 40
0.0
 40
0.0
 40
0.0
 40
1.0
 40
1.0
 40
1.0
 40
1.0
 10
285.7158222330855
 20
184.5318594137369
 30
0.0
 10
286.1091115868284
 20
184.659964470112
 30
0.0
 10
286.4858838265549
 20
184.8340987451094
 30
0.0
 10
286.8383005068271
 20
185.050639514254
 30
0.0
  0
ENDBLK
  5
259
330
256
100
AcDbEntity
  8
0
100
AcDbBlockEnd
  0
BLOCK
  5
25D
330
25B
100
AcDbEntity
  8
0
100
AcDbBlockBegin
  2
block 110
 70
     0
 10
0.0
 20
0.0
 30
0.0
  3
block 110
  1

  0
SPLINE
  5
25F
330
25B
100
AcDbEntity
  8
0
 62
     7
420
 16777215
370
    25
100
AcDbSpline
210
0.0
220
0.0
230
1.0
 70
     8
 71
     3
 72
     8
 73
     4
 74
     0
 42
0.0000000001
 43
0.0000000001
 12
1.0
 22
0.0
 32
0.0
 13
1.0
 23
0.0
 33
0.0
 40
0.0
 40
0.0
 40
0.0
 40
0.0
 40
1.0
 40
1.0
 40
1.0
 40
1.0
 10
285.5096038841037
 20
184.7232020790985
 30
0.0
 10
285.5775342223315
 20
184.6585546849335
 30
0.0
 10
285.6462791655969
 20
184.5947686991591
 30
0.0
 10
285.7158222330688
 20
184.531859413751
 30
0.0
  0
ENDBLK
  5
25E
330
25B
100
AcDbEntity
  8
0
100
AcDbBlockEnd
  0
BLOCK
  5
262
330
260
100
AcDbEntity
  8
0
100
AcDbBlockBegin
  2
block 111
 70
     0
 10
0.0
 20
0.0
 30
0.0
  3
block 111
  1

  0
SPLINE
  5
264
330
260
100
AcDbEntity
  8
0
 62
     7
420
 16777215
370
    25
100
AcDbSpline
210
0.0
220
0.0
230
1.0
 70
     8
 71
     3
 72
     8
 73
     4
 74
     0
 42
0.0000000001
 43
0.0000000001
 12
1.0
 22
0.0
 32
0.0
 13
1.0
 23
0.0
 33
0.0
 40
0.0
 40
0.0
 40
0.0
 40
0.0
 40
1.0
 40
1.0
 40
1.0
 40
1.0
 10
285.9430504637876
 20
185.8813101613473
 30
0.0
 10
285.7534513180495
 20
185.5136967976468
 30
0.0
 10
285.607960182539
 20
185.1249650188516
 30
0.0
 10
285.5096038840953
 20
184.7232020790562
 30
0.0
  0
ENDBLK
  5
263
330
260
100
AcDbEntity
  8
0
100
AcDbBlockEnd
  0
BLOCK
  5
267
330
265
100
AcDbEntity
  8
0
100
AcDbBlockBegin
  2
block 112
 70
     0
 10
0.0
 20
0.0
 30
0.0
  3
block 112
  1

  0
SPLINE
  5
269
330
265
100
AcDbEntity
  8
0
 62
     7
420
 16777215
370
    25
100
AcDbSpline
210
0.0
220
0.0
230
1.0
 70
     8
 71
     3
 72
     8
 73
     4
 74
     0
 42
0.0000000001
 43
0.0000000001
 12
1.0
 22
0.0
 32
0.0
 13
1.0
 23
0.0
 33
0.0
 40
0.0
 40
0.0
 40
0.0
 40
0.0
 40
1.0
 40
1.0
 40
1.0
 40
1.0
 10
285.7567079932804
 20
186.0821395819636
 30
0.0
 10
285.8179021943639
 20
186.0143486920163
 30
0.0
 10
285.8800221792962
 20
185.947399270636
 30
0.0
 10
285.9430504637915
 20
185.8813101613999
 30
0.0
  0
ENDBLK
  5
268
330
265
100
AcDbEntity
  8
0
100
AcDbBlockEnd
  0
BLOCK
  5
26C
330
26A
100
AcDbEntity
  8
0
100
AcDbBlockBegin
  2
block 113
 70
     0
 10
0.0
 20
0.0
 30
0.0
  3
block 113
  1

  0
SPLINE
  5
26E
330
26A
100
AcDbEntity
  8
0
 62
     7
420
 16777215
370
    25
100
AcDbSpline
210
0.0
220
0.0
230
1.0
 70
     8
 71
     3
 72
     8
 73
     4
 74
     0
 42
0.0000000001
 43
0.0000000001
 12
1.0
 22
0.0
 32
0.0
 13
1.0
 23
0.0
 33
0.0
 40
0.0
 40
0.0
 40
0.0
 40
0.0
 40
1.0
 40
1.0
 40
1.0
 40
1.0
 10
284.5694467126336
 20
185.7364505321749
 30
0.0
 10
284.9774364171545
 20
185.8045080243688
 30
0.0
 10
285.3759537892296
 20
185.9205423749472
 30
0.0
 10
285.7567079933144
 20
186.0821395819476
 30
0.0
  0
ENDBLK
  5
26D
330
26A
100
AcDbEntity
  8
0
100
AcDbBlockEnd
  0
BLOCK
  5
271
330
26F
100
AcDbEntity
  8
0
100
AcDbBlockBegin
  2
block 114
 70
     0
 10
0.0
 20
0.0
 30
0.0
  3
block 114
  1

  0
SPLINE
  5
273
330
26F
100
AcDbEntity
  8
0
 62
     7
420
 16777215
370
    25
100
AcDbSpline
210
0.0
220
0.0
230
1.0
 70
     8
 71
     3
 72
     8
 73
     4
 74
     0
 42
0.0000000001
 43
0.0000000001
 12
1.0
 22
0.0
 32
0.0
 13
1.0
 23
0.0
 33
0.0
 40
0.0
 40
0.0
 40
0.0
 40
0.0
 40
1.0
 40
1.0
 40
1.0
 40
1.0
 10
284.3940497966803
 20
185.9563913081086
 30
0.0
 10
284.4515862150271
 20
185.8823414803722
 30
0.0
 10
284.5100565262046
 20
185.8090220292243
 30
0.0
 10
284.5694467126105
 20
185.7364505321839
 30
0.0
  0
ENDBLK
  5
272
330
26F
100
AcDbEntity
  8
0
100
AcDbBlockEnd
  0
BLOCK
  5
276
330
274
100
AcDbEntity
  8
0
100
AcDbBlockBegin
  2
block 115
 70
     0
 10
0.0
 20
0.0
 30
0.0
  3
block 115
  1

  0
SPLINE
  5
278
330
274
100
AcDbEntity
  8
0
 62
     7
420
 16777215
370
    25
100
AcDbSpline
210
0.0
220
0.0
230
1.0
 70
     8
 71
     3
 72
     8
 73
     4
 74
     0
 42
0.0000000001
 43
0.0000000001
 12
1.0
 22
0.0
 32
0.0
 13
1.0
 23
0.0
 33
0.0
 40
0.0
 40
0.0
 40
0.0
 40
0.0
 40
1.0
 40
1.0
 40
1.0
 40
1.0
 10
284.9952621893
 20
187.0369624195116
 30
0.0
 10
284.7529907805663
 20
186.7017132796974
 30
0.0
 10
284.5511871955845
 20
186.339007642236
 30
0.0
 10
284.3940497967175
 20
185.9563913081446
 30
0.0
  0
ENDBLK
  5
277
330
274
100
AcDbEntity
  8
0
100
AcDbBlockEnd
  0
BLOCK
  5
27B
330
279
100
AcDbEntity
  8
0
100
AcDbBlockBegin
  2
block 116
 70
     0
 10
0.0
 20
0.0
 30
0.0
  3
block 116
  1

  0
SPLINE
  5
27D
330
279
100
AcDbEntity
  8
0
 62
     7
420
 16777215
370
    25
100
AcDbSpline
210
0.0
220
0.0
230
1.0
 70
     8
 71
     3
 72
     8
 73
     4
 74
     0
 42
0.0000000001
 43
0.0000000001
 12
1.0
 22
0.0
 32
0.0
 13
1.0
 23
0.0
 33
0.0
 40
0.0
 40
0.0
 40
0.0
 40
0.0
 40
1.0
 40
1.0
 40
1.0
 40
1.0
 10
284.8409330821389
 20
187.2633216454424
 30
0.0
 10
284.8913400866929
 20
187.1871674013192
 30
0.0
 10
284.9427879492371
 20
187.1117072463314
 30
0.0
 10
284.9952621892602
 20
187.0369624194859
 30
0.0
  0
ENDBLK
  5
27C
330
279
100
AcDbEntity
  8
0
100
AcDbBlockEnd
  0
BLOCK
  5
280
330
27E
100
AcDbEntity
  8
0
100
AcDbBlockBegin
  2
block 117
 70
     0
 10
0.0
 20
0.0
 30
0.0
  3
block 117
  1

  0
SPLINE
  5
282
330
27E
100
AcDbEntity
  8
0
 62
     7
420
 16777215
370
    25
100
AcDbSpline
210
0.0
220
0.0
230
1.0
 70
     8
 71
     3
 72
     8
 73
     4
 74
     0
 42
0.0000000001
 43
0.0000000001
 12
1.0
 22
0.0
 32
0.0
 13
1.0
 23
0.0
 33
0.0
 40
0.0
 40
0.0
 40
0.0
 40
0.0
 40
1.0
 40
1.0
 40
1.0
 40
1.0
 10
283.6154102496276
 20
187.0984457685164
 30
0.0
 10
284.0289864891071
 20
187.1049354046155
 30
0.0
 10
284.4403467739658
 20
187.1602778151243
 30
0.0
 10
284.8409330821184
 20
187.2633216454052
 30
0.0
  0
ENDBLK
  5
281
330
27E
100
AcDbEntity
  8
0
100
AcDbBlockEnd
  0
BLOCK
  5
285
330
283
100
AcDbEntity
  8
0
100
AcDbBlockBegin
  2
block 118
 70
     0
 10
0.0
 20
0.0
 30
0.0
  3
block 118
  1

  0
SPLINE
  5
287
330
283
100
AcDbEntity
  8
0
 62
     7
420
 16777215
370
    25
100
AcDbSpline
210
0.0
220
0.0
230
1.0
 70
     8
 71
     3
 72
     8
 73
     4
 74
     0
 42
0.0000000001
 43
0.0000000001
 12
1.0
 22
0.0
 32
0.0
 13
1.0
 23
0.0
 33
0.0
 40
0.0
 40
0.0
 40
0.0
 40
0.0
 40
1.0
 40
1.0
 40
1.0
 40
1.0
 10
283.47475284402
 20
187.3420715415707
 30
0.0
 10
283.5206100739792
 20
187.2602734310451
 30
0.0
 10
283.5674996229401
 20
187.1790583499
 30
0.0
 10
283.6154102496577
 20
187.0984457685452
 30
0.0
  0
ENDBLK
  5
286
330
283
100
AcDbEntity
  8
0
100
AcDbBlockEnd
  0
BLOCK
  5
28A
330
288
100
AcDbEntity
  8
0
100
AcDbBlockBegin
  2
block 119
 70
     0
 10
0.0
 20
0.0
 30
0.0
  3
block 119
  1

  0
SPLINE
  5
28C
330
288
100
AcDbEntity
  8
0
 62
     7
420
 16777215
370
    25
100
AcDbSpline
210
0.0
220
0.0
230
1.0
 70
     8
 71
     3
 72
     8
 73
     4
 74
     0
 42
0.0000000001
 43
0.0000000001
 12
1.0
 22
0.0
 32
0.0
 13
1.0
 23
0.0
 33
0.0
 40
0.0
 40
0.0
 40
0.0
 40
0.0
 40
1.0
 40
1.0
 40
1.0
 40
1.0
 10
284.2303009581109
 20
188.3209675089248
 30
0.0
 10
283.9407692293076
 20
188.0255715047965
 30
0.0
 10
283.6871611534709
 20
187.6969942532553
 30
0.0
 10
283.4747528440084
 20
187.3420715415142
 30
0.0
  0
ENDBLK
  5
28B
330
288
100
AcDbEntity
  8
0
100
AcDbBlockEnd
  0
BLOCK
  5
28F
330
28D
100
AcDbEntity
  8
0
100
AcDbBlockBegin
  2
block 120
 70
     0
 10
0.0
 20
0.0
 30
0.0
  3
block 120
  1

  0
SPLINE
  5
291
330
28D
100
AcDbEntity
  8
0
 62
     7
420
 16777215
370
    25
100
AcDbSpline
210
0.0
220
0.0
230
1.0
 70
     8
 71
     3
 72
     8
 73
     4
 74
     0
 42
0.0000000001
 43
0.0000000001
 12
1.0
 22
0.0
 32
0.0
 13
1.0
 23
0.0
 33
0.0
 40
0.0
 40
0.0
 40
0.0
 40
0.0
 40
1.0
 40
1.0
 40
1.0
 40
1.0
 10
284.1114326716252
 20
188.5678000492578
 30
0.0
 10
284.1499264704634
 20
188.4849836109307
 30
0.0
 10
284.1895529503848
 20
188.4026983775034
 30
0.0
 10
284.2303009581244
 20
188.320967508969
 30
0.0
  0
ENDBLK
  5
290
330
28D
100
AcDbEntity
  8
0
100
AcDbBlockEnd
  0
BLOCK
  5
294
330
292
100
AcDbEntity
  8
0
100
AcDbBlockBegin
  2
block 121
 70
     0
 10
0.0
 20
0.0
 30
0.0
  3
block 121
  1

  0
SPLINE
  5
296
330
292
100
AcDbEntity
  8
0
 62
     7
420
 16777215
370
    25
100
AcDbSpline
210
0.0
220
0.0
230
1.0
 70
     8
 71
     3
 72
     8
 73
     4
 74
     0
 42
0.0000000001
 43
0.0000000001
 12
1.0
 22
0.0
 32
0.0
 13
1.0
 23
0.0
 33
0.0
 40
0.0
 40
0.0
 40
0.0
 40
0.0
 40
1.0
 40
1.0
 40
1.0
 40
1.0
 10
282.8750244422997
 20
188.5874203998656
 30
0.0
 10
283.2849486069592
 20
188.5321972121223
 30
0.0
 10
283.6999626955868
 20
188.5256114245604
 30
0.0
 10
284.1114326716303
 20
188.5678000492283
 30
0.0
  0
ENDBLK
  5
295
330
292
100
AcDbEntity
  8
0
100
AcDbBlockEnd
  0
BLOCK
  5
299
330
297
100
AcDbEntity
  8
0
100
AcDbBlockBegin
  2
block 122
 70
     0
 10
0.0
 20
0.0
 30
0.0
  3
block 122
  1

  0
SPLINE
  5
29B
330
297
100
AcDbEntity
  8
0
 62
     7
420
 16777215
370
    25
100
AcDbSpline
210
0.0
220
0.0
230
1.0
 70
     8
 71
     3
 72
     8
 73
     4
 74
     0
 42
0.0000000001
 43
0.0000000001
 12
1.0
 22
0.0
 32
0.0
 13
1.0
 23
0.0
 33
0.0
 40
0.0
 40
0.0
 40
0.0
 40
0.0
 40
1.0
 40
1.0
 40
1.0
 40
1.0
 10
282.7722486009737
 20
188.8492889728055
 30
0.0
 10
282.8054022677988
 20
188.7615698141219
 30
0.0
 10
282.8396636194954
 20
188.6742733137011
 30
0.0
 10
282.8750244422875
 20
188.5874203999016
 30
0.0
  0
ENDBLK
  5
29A
330
297
100
AcDbEntity
  8
0
100
AcDbBlockEnd
  0
BLOCK
  5
29E
330
29C
100
AcDbEntity
  8
0
100
AcDbBlockBegin
  2
block 123
 70
     0
 10
0.0
 20
0.0
 30
0.0
  3
block 123
  1

  0
SPLINE
  5
2A0
330
29C
100
AcDbEntity
  8
0
 62
     7
420
 16777215
370
    25
100
AcDbSpline
210
0.0
220
0.0
230
1.0
 70
     8
 71
     3
 72
     8
 73
     4
 74
     0
 42
0.0000000001
 43
0.0000000001
 12
1.0
 22
0.0
 32
0.0
 13
1.0
 23
0.0
 33
0.0
 40
0.0
 40
0.0
 40
0.0
 40
0.0
 40
1.0
 40
1.0
 40
1.0
 40
1.0
 10
283.6652547402908
 20
189.7046428779018
 30
0.0
 10
283.334930351805
 20
189.4556986680667
 30
0.0
 10
283.035182970455
 20
189.1685896752894
 30
0.0
 10
282.7722486010366
 20
188.8492889727888
 30
0.0
  0
ENDBLK
  5
29F
330
29C
100
AcDbEntity
  8
0
100
AcDbBlockEnd
  0
BLOCK
  5
2A3
330
2A1
100
AcDbEntity
  8
0
100
AcDbBlockBegin
  2
block 124
 70
     0
 10
0.0
 20
0.0
 30
0.0
  3
block 124
  1

  0
SPLINE
  5
2A5
330
2A1
100
AcDbEntity
  8
0
 62
     7
420
 16777215
370
    25
100
AcDbSpline
210
0.0
220
0.0
230
1.0
 70
     8
 71
     3
 72
     8
 73
     4
 74
     0
 42
0.0000000001
 43
0.0000000001
 12
1.0
 22
0.0
 32
0.0
 13
1.0
 23
0.0
 33
0.0
 40
0.0
 40
0.0
 40
0.0
 40
0.0
 40
1.0
 40
1.0
 40
1.0
 40
1.0
 10
283.5845025954482
 20
189.9664349014544
 30
0.0
 10
283.6102233007127
 20
189.8788062513054
 30
0.0
 10
283.637143207931
 20
189.7915340555817
 30
0.0
 10
283.665254740228
 20
189.7046428779049
 30
0.0
  0
ENDBLK
  5
2A4
330
2A1
100
AcDbEntity
  8
0
100
AcDbBlockEnd
  0
BLOCK
  5
2A8
330
2A6
100
AcDbEntity
  8
0
100
AcDbBlockBegin
  2
block 125
 70
     0
 10
0.0
 20
0.0
 30
0.0
  3
block 125
  1

  0
SPLINE
  5
2AA
330
2A6
100
AcDbEntity
  8
0
 62
     7
420
 16777215
370
    25
100
AcDbSpline
210
0.0
220
0.0
230
1.0
 70
     8
 71
     3
 72
     8
 73
     4
 74
     0
 42
0.0000000001
 43
0.0000000001
 12
1.0
 22
0.0
 32
0.0
 13
1.0
 23
0.0
 33
0.0
 40
0.0
 40
0.0
 40
0.0
 40
0.0
 40
1.0
 40
1.0
 40
1.0
 40
1.0
 10
282.3648282860159
 20
190.1701131933897
 30
0.0
 10
282.7619433473992
 20
190.0544107765667
 30
0.0
 10
283.1713405108491
 20
189.986043906546
 30
0.0
 10
283.584502595454
 20
189.9664349014409
 30
0.0
  0
ENDBLK
  5
2A9
330
2A6
100
AcDbEntity
  8
0
100
AcDbBlockEnd
  0
BLOCK
  5
2AD
330
2AB
100
AcDbEntity
  8
0
100
AcDbBlockBegin
  2
block 126
 70
     0
 10
0.0
 20
0.0
 30
0.0
  3
block 126
  1

  0
SPLINE
  5
2AF
330
2AB
100
AcDbEntity
  8
0
 62
     7
420
 16777215
370
    25
100
AcDbSpline
210
0.0
220
0.0
230
1.0
 70
     8
 71
     3
 72
     8
 73
     4
 74
     0
 42
0.0000000001
 43
0.0000000001
 12
1.0
 22
0.0
 32
0.0
 13
1.0
 23
0.0
 33
0.0
 40
0.0
 40
0.0
 40
0.0
 40
0.0
 40
1.0
 40
1.0
 40
1.0
 40
1.0
 10
282.302229851467
 20
190.4443748550155
 30
0.0
 10
282.3219393570282
 20
190.3526941492238
 30
0.0
 10
282.3428071694823
 20
190.2612662890861
 30
0.0
 10
282.364828286003
 20
190.1701131934115
 30
0.0
  0
ENDBLK
  5
2AE
330
2AB
100
AcDbEntity
  8
0
100
AcDbBlockEnd
  0
BLOCK
  5
2B2
330
2B0
100
AcDbEntity
  8
0
100
AcDbBlockBegin
  2
block 127
 70
     0
 10
0.0
 20
0.0
 30
0.0
  3
block 127
  1

  0
SPLINE
  5
2B4
330
2B0
100
AcDbEntity
  8
0
 62
     7
420
 16777215
370
    25
100
AcDbSpline
210
0.0
220
0.0
230
1.0
 70
     8
 71
     3
 72
     8
 73
     4
 74
     0
 42
0.0000000001
 43
0.0000000001
 12
1.0
 22
0.0
 32
0.0
 13
1.0
 23
0.0
 33
0.0
 40
0.0
 40
0.0
 40
0.0
 40
0.0
 40
1.0
 40
1.0
 40
1.0
 40
1.0
 10
283.312745734395
 20
191.1570795049914
 30
0.0
 10
282.949007587224
 20
190.9601480917309
 30
0.0
 10
282.6098167615441
 20
190.720920898185
 30
0.0
 10
282.3022298514984
 20
190.4443748549937
 30
0.0
  0
ENDBLK
  5
2B3
330
2B0
100
AcDbEntity
  8
0
100
AcDbBlockEnd
  0
BLOCK
  5
2B7
330
2B5
100
AcDbEntity
  8
0
100
AcDbBlockBegin
  2
block 128
 70
     0
 10
0.0
 20
0.0
 30
0.0
  3
block 128
  1

  0
SPLINE
  5
2B9
330
2B5
100
AcDbEntity
  8
0
 62
     7
420
 16777215
370
    25
100
AcDbSpline
210
0.0
220
0.0
230
1.0
 70
     8
 71
     3
 72
     8
 73
     4
 74
     0
 42
0.0000000001
 43
0.0000000001
 12
1.0
 22
0.0
 32
0.0
 13
1.0
 23
0.0
 33
0.0
 40
0.0
 40
0.0
 40
0.0
 40
0.0
 40
1.0
 40
1.0
 40
1.0
 40
1.0
 10
283.2719136007796
 20
191.4279830106258
 30
0.0
 10
283.2842866544171
 20
191.3374996278984
 30
0.0
 10
283.2978986426888
 20
191.2471899865168
 30
0.0
 10
283.3127457343649
 20
191.1570795050242
 30
0.0
  0
ENDBLK
  5
2B8
330
2B5
100
AcDbEntity
  8
0
100
AcDbBlockEnd
  0
BLOCK
  5
2BC
330
2BA
100
AcDbEntity
  8
0
100
AcDbBlockBegin
  2
block 129
 70
     0
 10
0.0
 20
0.0
 30
0.0
  3
block 129
  1

  0
SPLINE
  5
2BE
330
2BA
100
AcDbEntity
  8
0
 62
     7
420
 16777215
370
    25
100
AcDbSpline
210
0.0
220
0.0
230
1.0
 70
     8
 71
     3
 72
     8
 73
     4
 74
     0
 42
0.0000000001
 43
0.0000000001
 12
1.0
 22
0.0
 32
0.0
 13
1.0
 23
0.0
 33
0.0
 40
0.0
 40
0.0
 40
0.0
 40
0.0
 40
1.0
 40
1.0
 40
1.0
 40
1.0
 10
282.0962187198658
 20
191.8111694074011
 30
0.0
 10
282.4716537837169
 20
191.6375723622948
 30
0.0
 10
282.8662887658694
 20
191.5089516127186
 30
0.0
 10
283.2719136007983
 20
191.4279830106107
 30
0.0
  0
ENDBLK
  5
2BD
330
2BA
100
AcDbEntity
  8
0
100
AcDbBlockEnd
  0
BLOCK
  5
2C1
330
2BF
100
AcDbEntity
  8
0
100
AcDbBlockBegin
  2
block 130
 70
     0
 10
0.0
 20
0.0
 30
0.0
  3
block 130
  1

  0
SPLINE
  5
2C3
330
2BF
100
AcDbEntity
  8
0
 62
     7
420
 16777215
370
    25
100
AcDbSpline
210
0.0
220
0.0
230
1.0
 70
     8
 71
     3
 72
     8
 73
     4
 74
     0
 42
0.0000000001
 43
0.0000000001
 12
1.0
 22
0.0
 32
0.0
 13
1.0
 23
0.0
 33
0.0
 40
0.0
 40
0.0
 40
0.0
 40
0.0
 40
1.0
 40
1.0
 40
1.0
 40
1.0
 10
282.07519603768
 20
192.0916976053928
 30
0.0
 10
282.0810211041932
 20
191.9981033479615
 30
0.0
 10
282.0880292249569
 20
191.904586475424
 30
0.0
 10
282.0962187198523
 20
191.8111694074046
 30
0.0
  0
ENDBLK
  5
2C2
330
2BF
100
AcDbEntity
  8
0
100
AcDbBlockEnd
  0
BLOCK
  5
2C6
330
2C4
100
AcDbEntity
  8
0
100
AcDbBlockBegin
  2
block 131
 70
     0
 10
0.0
 20
0.0
 30
0.0
  3
block 131
  1

  0
SPLINE
  5
2C8
330
2C4
100
AcDbEntity
  8
0
 62
     7
420
 16777215
370
    25
100
AcDbSpline
210
0.0
220
0.0
230
1.0
 70
     8
 71
     3
 72
     8
 73
     4
 74
     0
 42
0.0000000001
 43
0.0000000001
 12
1.0
 22
0.0
 32
0.0
 13
1.0
 23
0.0
 33
0.0
 40
0.0
 40
0.0
 40
0.0
 40
0.0
 40
1.0
 40
1.0
 40
1.0
 40
1.0
 10
283.1806484092853
 20
192.6458323561621
 30
0.0
 10
282.7916218125745
 20
192.5053128618269
 30
0.0
 10
282.4205645051127
 20
192.3193114077025
 30
0.0
 10
282.0751960377372
 20
192.0916976054432
 30
0.0
  0
ENDBLK
  5
2C7
330
2C4
100
AcDbEntity
  8
0
100
AcDbBlockEnd
  0
BLOCK
  5
2CB
330
2C9
100
AcDbEntity
  8
0
100
AcDbBlockBegin
  2
block 132
 70
     0
 10
0.0
 20
0.0
 30
0.0
  3
block 132
  1

  0
SPLINE
  5
2CD
330
2C9
100
AcDbEntity
  8
0
 62
     7
420
 16777215
370
    25
100
AcDbSpline
210
0.0
220
0.0
230
1.0
 70
     8
 71
     3
 72
     8
 73
     4
 74
     0
 42
0.0000000001
 43
0.0000000001
 12
1.0
 22
0.0
 32
0.0
 13
1.0
 23
0.0
 33
0.0
 40
0.0
 40
0.0
 40
0.0
 40
0.0
 40
1.0
 40
1.0
 40
1.0
 40
1.0
 10
283.1806484092307
 20
192.9197958071158
 30
0.0
 10
283.1793974176695
 20
192.82847894106
 30
0.0
 10
283.1793974176695
 20
192.7371492221776
 30
0.0
 10
283.1806484092307
 20
192.645832356122
 30
0.0
  0
ENDBLK
  5
2CC
330
2C9
100
AcDbEntity
  8
0
100
AcDbBlockEnd
  0
BLOCK
  5
2D0
330
2CE
100
AcDbEntity
  8
0
100
AcDbBlockBegin
  2
block 133
 70
     0
 10
0.0
 20
0.0
 30
0.0
  3
block 133
  1

  0
SPLINE
  5
2D2
330
2CE
100
AcDbEntity
  8
0
 62
     7
420
 16777215
370
    25
100
AcDbSpline
210
0.0
220
0.0
230
1.0
 70
     8
 71
     3
 72
     8
 73
     4
 74
     0
 42
0.0000000001
 43
0.0000000001
 12
1.0
 22
0.0
 32
0.0
 13
1.0
 23
0.0
 33
0.0
 40
0.0
 40
0.0
 40
0.0
 40
0.0
 40
1.0
 40
1.0
 40
1.0
 40
1.0
 10
282.0751960377372
 20
193.4739305577947
 30
0.0
 10
282.4205645051127
 20
193.246316755535
 30
0.0
 10
282.7916218125745
 20
193.060315301411
 30
0.0
 10
283.1806484092847
 20
192.9197958070757
 30
0.0
  0
ENDBLK
  5
2D1
330
2CE
100
AcDbEntity
  8
0
100
AcDbBlockEnd
  0
BLOCK
  5
2D5
330
2D3
100
AcDbEntity
  8
0
100
AcDbBlockBegin
  2
block 134
 70
     0
 10
0.0
 20
0.0
 30
0.0
  3
block 134
  1

  0
SPLINE
  5
2D7
330
2D3
100
AcDbEntity
  8
0
 62
     7
420
 16777215
370
    25
100
AcDbSpline
210
0.0
220
0.0
230
1.0
 70
     8
 71
     3
 72
     8
 73
     4
 74
     0
 42
0.0000000001
 43
0.0000000001
 12
1.0
 22
0.0
 32
0.0
 13
1.0
 23
0.0
 33
0.0
 40
0.0
 40
0.0
 40
0.0
 40
0.0
 40
1.0
 40
1.0
 40
1.0
 40
1.0
 10
282.0962187198523
 20
193.7544587558329
 30
0.0
 10
282.0880292249569
 20
193.6610416878135
 30
0.0
 10
282.0810211041932
 20
193.567524815276
 30
0.0
 10
282.07519603768
 20
193.4739305578447
 30
0.0
  0
ENDBLK
  5
2D6
330
2D3
100
AcDbEntity
  8
0
100
AcDbBlockEnd
  0
BLOCK
  5
2DA
330
2D8
100
AcDbEntity
  8
0
100
AcDbBlockBegin
  2
block 135
 70
     0
 10
0.0
 20
0.0
 30
0.0
  3
block 135
  1

  0
SPLINE
  5
2DC
330
2D8
100
AcDbEntity
  8
0
 62
     7
420
 16777215
370
    25
100
AcDbSpline
210
0.0
220
0.0
230
1.0
 70
     8
 71
     3
 72
     8
 73
     4
 74
     0
 42
0.0000000001
 43
0.0000000001
 12
1.0
 22
0.0
 32
0.0
 13
1.0
 23
0.0
 33
0.0
 40
0.0
 40
0.0
 40
0.0
 40
0.0
 40
1.0
 40
1.0
 40
1.0
 40
1.0
 10
283.2719136007983
 20
194.1376451526271
 30
0.0
 10
282.8662887658694
 20
194.0566765505193
 30
0.0
 10
282.4716537837169
 20
193.9280558009431
 30
0.0
 10
282.0962187198658
 20
193.7544587558365
 30
0.0
  0
ENDBLK
  5
2DB
330
2D8
100
AcDbEntity
  8
0
100
AcDbBlockEnd
  0
BLOCK
  5
2DF
330
2DD
100
AcDbEntity
  8
0
100
AcDbBlockBegin
  2
block 136
 70
     0
 10
0.0
 20
0.0
 30
0.0
  3
block 136
  1

  0
SPLINE
  5
2E1
330
2DD
100
AcDbEntity
  8
0
 62
     7
420
 16777215
370
    25
100
AcDbSpline
210
0.0
220
0.0
230
1.0
 70
     8
 71
     3
 72
     8
 73
     4
 74
     0
 42
0.0000000001
 43
0.0000000001
 12
1.0
 22
0.0
 32
0.0
 13
1.0
 23
0.0
 33
0.0
 40
0.0
 40
0.0
 40
0.0
 40
0.0
 40
1.0
 40
1.0
 40
1.0
 40
1.0
 10
283.3127457343649
 20
194.4085486582137
 30
0.0
 10
283.2978986426888
 20
194.3184381767207
 30
0.0
 10
283.2842866544171
 20
194.2281285353394
 30
0.0
 10
283.2719136007796
 20
194.1376451526117
 30
0.0
  0
ENDBLK
  5
2E0
330
2DD
100
AcDbEntity
  8
0
100
AcDbBlockEnd
  0
BLOCK
  5
2E4
330
2E2
100
AcDbEntity
  8
0
100
AcDbBlockBegin
  2
block 137
 70
     0
 10
0.0
 20
0.0
 30
0.0
  3
block 137
  1

  0
SPLINE
  5
2E6
330
2E2
100
AcDbEntity
  8
0
 62
     7
420
 16777215
370
    25
100
AcDbSpline
210
0.0
220
0.0
230
1.0
 70
     8
 71
     3
 72
     8
 73
     4
 74
     0
 42
0.0000000001
 43
0.0000000001
 12
1.0
 22
0.0
 32
0.0
 13
1.0
 23
0.0
 33
0.0
 40
0.0
 40
0.0
 40
0.0
 40
0.0
 40
1.0
 40
1.0
 40
1.0
 40
1.0
 10
282.3022298514984
 20
195.1212533082441
 30
0.0
 10
282.6098167615441
 20
194.8447072650526
 30
0.0
 10
282.949007587224
 20
194.6054800715066
 30
0.0
 10
283.312745734395
 20
194.4085486582461
 30
0.0
  0
ENDBLK
  5
2E5
330
2E2
100
AcDbEntity
  8
0
100
AcDbBlockEnd
  0
BLOCK
  5
2E9
330
2E7
100
AcDbEntity
  8
0
100
AcDbBlockBegin
  2
block 138
 70
     0
 10
0.0
 20
0.0
 30
0.0
  3
block 138
  1

  0
SPLINE
  5
2EB
330
2E7
100
AcDbEntity
  8
0
 62
     7
420
 16777215
370
    25
100
AcDbSpline
210
0.0
220
0.0
230
1.0
 70
     8
 71
     3
 72
     8
 73
     4
 74
     0
 42
0.0000000001
 43
0.0000000001
 12
1.0
 22
0.0
 32
0.0
 13
1.0
 23
0.0
 33
0.0
 40
0.0
 40
0.0
 40
0.0
 40
0.0
 40
1.0
 40
1.0
 40
1.0
 40
1.0
 10
282.3648282860037
 20
195.3955149698263
 30
0.0
 10
282.3428071694823
 20
195.3043618741512
 30
0.0
 10
282.3219393570282
 20
195.2129340140144
 30
0.0
 10
282.302229851467
 20
195.1212533082224
 30
0.0
  0
ENDBLK
  5
2EA
330
2E7
100
AcDbEntity
  8
0
100
AcDbBlockEnd
  0
BLOCK
  5
2EE
330
2EC
100
AcDbEntity
  8
0
100
AcDbBlockBegin
  2
block 139
 70
     0
 10
0.0
 20
0.0
 30
0.0
  3
block 139
  1

  0
SPLINE
  5
2F0
330
2EC
100
AcDbEntity
  8
0
 62
     7
420
 16777215
370
    25
100
AcDbSpline
210
0.0
220
0.0
230
1.0
 70
     8
 71
     3
 72
     8
 73
     4
 74
     0
 42
0.0000000001
 43
0.0000000001
 12
1.0
 22
0.0
 32
0.0
 13
1.0
 23
0.0
 33
0.0
 40
0.0
 40
0.0
 40
0.0
 40
0.0
 40
1.0
 40
1.0
 40
1.0
 40
1.0
 10
283.584502595454
 20
195.5991932617967
 30
0.0
 10
283.1713405108491
 20
195.5795842566912
 30
0.0
 10
282.7619433473992
 20
195.5112173866711
 30
0.0
 10
282.3648282860159
 20
195.3955149698481
 30
0.0
  0
ENDBLK
  5
2EF
330
2EC
100
AcDbEntity
  8
0
100
AcDbBlockEnd
  0
BLOCK
  5
2F3
330
2F1
100
AcDbEntity
  8
0
100
AcDbBlockBegin
  2
block 140
 70
     0
 10
0.0
 20
0.0
 30
0.0
  3
block 140
  1

  0
SPLINE
  5
2F5
330
2F1
100
AcDbEntity
  8
0
 62
     7
420
 16777215
370
    25
100
AcDbSpline
210
0.0
220
0.0
230
1.0
 70
     8
 71
     3
 72
     8
 73
     4
 74
     0
 42
0.0000000001
 43
0.0000000001
 12
1.0
 22
0.0
 32
0.0
 13
1.0
 23
0.0
 33
0.0
 40
0.0
 40
0.0
 40
0.0
 40
0.0
 40
1.0
 40
1.0
 40
1.0
 40
1.0
 10
283.665254740228
 20
195.8609852853326
 30
0.0
 10
283.637143207931
 20
195.7740941076562
 30
0.0
 10
283.6102233007127
 20
195.6868219119318
 30
0.0
 10
283.5845025954482
 20
195.5991932617835
 30
0.0
  0
ENDBLK
  5
2F4
330
2F1
100
AcDbEntity
  8
0
100
AcDbBlockEnd
  0
BLOCK
  5
2F8
330
2F6
100
AcDbEntity
  8
0
100
AcDbBlockBegin
  2
block 141
 70
     0
 10
0.0
 20
0.0
 30
0.0
  3
block 141
  1

  0
SPLINE
  5
2FA
330
2F6
100
AcDbEntity
  8
0
 62
     7
420
 16777215
370
    25
100
AcDbSpline
210
0.0
220
0.0
230
1.0
 70
     8
 71
     3
 72
     8
 73
     4
 74
     0
 42
0.0000000001
 43
0.0000000001
 12
1.0
 22
0.0
 32
0.0
 13
1.0
 23
0.0
 33
0.0
 40
0.0
 40
0.0
 40
0.0
 40
0.0
 40
1.0
 40
1.0
 40
1.0
 40
1.0
 10
282.7722486010366
 20
196.7163391904487
 30
0.0
 10
283.035182970455
 20
196.3970384879485
 30
0.0
 10
283.334930351805
 20
196.1099294951712
 30
0.0
 10
283.6652547402908
 20
195.8609852853361
 30
0.0
  0
ENDBLK
  5
2F9
330
2F6
100
AcDbEntity
  8
0
100
AcDbBlockEnd
  0
BLOCK
  5
2FD
330
2FB
100
AcDbEntity
  8
0
100
AcDbBlockBegin
  2
block 142
 70
     0
 10
0.0
 20
0.0
 30
0.0
  3
block 142
  1

  0
SPLINE
  5
2FF
330
2FB
100
AcDbEntity
  8
0
 62
     7
420
 16777215
370
    25
100
AcDbSpline
210
0.0
220
0.0
230
1.0
 70
     8
 71
     3
 72
     8
 73
     4
 74
     0
 42
0.0000000001
 43
0.0000000001
 12
1.0
 22
0.0
 32
0.0
 13
1.0
 23
0.0
 33
0.0
 40
0.0
 40
0.0
 40
0.0
 40
0.0
 40
1.0
 40
1.0
 40
1.0
 40
1.0
 10
282.8750244422875
 20
196.9782077633357
 30
0.0
 10
282.8396636194954
 20
196.8913548495364
 30
0.0
 10
282.8054022677988
 20
196.8040583491153
 30
0.0
 10
282.7722486009737
 20
196.7163391904324
 30
0.0
  0
ENDBLK
  5
2FE
330
2FB
100
AcDbEntity
  8
0
100
AcDbBlockEnd
  0
BLOCK
  5
302
330
300
100
AcDbEntity
  8
0
100
AcDbBlockBegin
  2
block 143
 70
     0
 10
0.0
 20
0.0
 30
0.0
  3
block 143
  1

  0
SPLINE
  5
304
330
300
100
AcDbEntity
  8
0
 62
     7
420
 16777215
370
    25
100
AcDbSpline
210
0.0
220
0.0
230
1.0
 70
     8
 71
     3
 72
     8
 73
     4
 74
     0
 42
0.0000000001
 43
0.0000000001
 12
1.0
 22
0.0
 32
0.0
 13
1.0
 23
0.0
 33
0.0
 40
0.0
 40
0.0
 40
0.0
 40
0.0
 40
1.0
 40
1.0
 40
1.0
 40
1.0
 10
284.1114326716303
 20
196.9978281140096
 30
0.0
 10
283.6999626955868
 20
197.0400167386768
 30
0.0
 10
283.2849486069592
 20
197.0334309511149
 30
0.0
 10
282.8750244422997
 20
196.9782077633726
 30
0.0
  0
ENDBLK
  5
303
330
300
100
AcDbEntity
  8
0
100
AcDbBlockEnd
  0
BLOCK
  5
307
330
305
100
AcDbEntity
  8
0
100
AcDbBlockBegin
  2
block 144
 70
     0
 10
0.0
 20
0.0
 30
0.0
  3
block 144
  1

  0
SPLINE
  5
309
330
305
100
AcDbEntity
  8
0
 62
     7
420
 16777215
370
    25
100
AcDbSpline
210
0.0
220
0.0
230
1.0
 70
     8
 71
     3
 72
     8
 73
     4
 74
     0
 42
0.0000000001
 43
0.0000000001
 12
1.0
 22
0.0
 32
0.0
 13
1.0
 23
0.0
 33
0.0
 40
0.0
 40
0.0
 40
0.0
 40
0.0
 40
1.0
 40
1.0
 40
1.0
 40
1.0
 10
284.2303009581244
 20
197.2446606542688
 30
0.0
 10
284.1895529503848
 20
197.1629297857345
 30
0.0
 10
284.1499264704634
 20
197.0806445523072
 30
0.0
 10
284.1114326716258
 20
196.9978281139801
 30
0.0
  0
ENDBLK
  5
308
330
305
100
AcDbEntity
  8
0
100
AcDbBlockEnd
  0
BLOCK
  5
30C
330
30A
100
AcDbEntity
  8
0
100
AcDbBlockBegin
  2
block 145
 70
     0
 10
0.0
 20
0.0
 30
0.0
  3
block 145
  1

  0
SPLINE
  5
30E
330
30A
100
AcDbEntity
  8
0
 62
     7
420
 16777215
370
    25
100
AcDbSpline
210
0.0
220
0.0
230
1.0
 70
     8
 71
     3
 72
     8
 73
     4
 74
     0
 42
0.0000000001
 43
0.0000000001
 12
1.0
 22
0.0
 32
0.0
 13
1.0
 23
0.0
 33
0.0
 40
0.0
 40
0.0
 40
0.0
 40
0.0
 40
1.0
 40
1.0
 40
1.0
 40
1.0
 10
283.4747528440084
 20
198.2235566216239
 30
0.0
 10
283.6871611534709
 20
197.8686339098825
 30
0.0
 10
283.9407692293076
 20
197.5400566583412
 30
0.0
 10
284.2303009581109
 20
197.244660654213
 30
0.0
  0
ENDBLK
  5
30D
330
30A
100
AcDbEntity
  8
0
100
AcDbBlockEnd
  0
BLOCK
  5
311
330
30F
100
AcDbEntity
  8
0
100
AcDbBlockBegin
  2
block 146
 70
     0
 10
0.0
 20
0.0
 30
0.0
  3
block 146
  1

  0
SPLINE
  5
313
330
30F
100
AcDbEntity
  8
0
 62
     7
420
 16777215
370
    25
100
AcDbSpline
210
0.0
220
0.0
230
1.0
 70
     8
 71
     3
 72
     8
 73
     4
 74
     0
 42
0.0000000001
 43
0.0000000001
 12
1.0
 22
0.0
 32
0.0
 13
1.0
 23
0.0
 33
0.0
 40
0.0
 40
0.0
 40
0.0
 40
0.0
 40
1.0
 40
1.0
 40
1.0
 40
1.0
 10
283.6154102496577
 20
198.4671823946923
 30
0.0
 10
283.5674996229401
 20
198.3865698133375
 30
0.0
 10
283.5206100739792
 20
198.3053547321931
 30
0.0
 10
283.47475284402
 20
198.2235566216665
 30
0.0
  0
ENDBLK
  5
312
330
30F
100
AcDbEntity
  8
0
100
AcDbBlockEnd
  0
BLOCK
  5
316
330
314
100
AcDbEntity
  8
0
100
AcDbBlockBegin
  2
block 147
 70
     0
 10
0.0
 20
0.0
 30
0.0
  3
block 147
  1

  0
SPLINE
  5
318
330
314
100
AcDbEntity
  8
0
 62
     7
420
 16777215
370
    25
100
AcDbSpline
210
0.0
220
0.0
230
1.0
 70
     8
 71
     3
 72
     8
 73
     4
 74
     0
 42
0.0000000001
 43
0.0000000001
 12
1.0
 22
0.0
 32
0.0
 13
1.0
 23
0.0
 33
0.0
 40
0.0
 40
0.0
 40
0.0
 40
0.0
 40
1.0
 40
1.0
 40
1.0
 40
1.0
 10
284.8409330821184
 20
198.3023065178321
 30
0.0
 10
284.4403467739651
 20
198.4053503481136
 30
0.0
 10
284.0289864891064
 20
198.4606927586221
 30
0.0
 10
283.6154102496269
 20
198.4671823947209
 30
0.0
  0
ENDBLK
  5
317
330
314
100
AcDbEntity
  8
0
100
AcDbBlockEnd
  0
BLOCK
  5
31B
330
319
100
AcDbEntity
  8
0
100
AcDbBlockBegin
  2
block 148
 70
     0
 10
0.0
 20
0.0
 30
0.0
  3
block 148
  1

  0
SPLINE
  5
31D
330
319
100
AcDbEntity
  8
0
 62
     7
420
 16777215
370
    25
100
AcDbSpline
210
0.0
220
0.0
230
1.0
 70
     8
 71
     3
 72
     8
 73
     4
 74
     0
 42
0.0000000001
 43
0.0000000001
 12
1.0
 22
0.0
 32
0.0
 13
1.0
 23
0.0
 33
0.0
 40
0.0
 40
0.0
 40
0.0
 40
0.0
 40
1.0
 40
1.0
 40
1.0
 40
1.0
 10
284.9952621892602
 20
198.528665743752
 30
0.0
 10
284.9427879492371
 20
198.4539209169068
 30
0.0
 10
284.8913400866929
 20
198.3784607619187
 30
0.0
 10
284.8409330821389
 20
198.3023065177955
 30
0.0
  0
ENDBLK
  5
31C
330
319
100
AcDbEntity
  8
0
100
AcDbBlockEnd
  0
BLOCK
  5
320
330
31E
100
AcDbEntity
  8
0
100
AcDbBlockBegin
  2
block 149
 70
     0
 10
0.0
 20
0.0
 30
0.0
  3
block 149
  1

  0
SPLINE
  5
322
330
31E
100
AcDbEntity
  8
0
 62
     7
420
 16777215
370
    25
100
AcDbSpline
210
0.0
220
0.0
230
1.0
 70
     8
 71
     3
 72
     8
 73
     4
 74
     0
 42
0.0000000001
 43
0.0000000001
 12
1.0
 22
0.0
 32
0.0
 13
1.0
 23
0.0
 33
0.0
 40
0.0
 40
0.0
 40
0.0
 40
0.0
 40
1.0
 40
1.0
 40
1.0
 40
1.0
 10
284.3940497967182
 20
199.609236855093
 30
0.0
 10
284.5511871955845
 20
199.2266205210015
 30
0.0
 10
284.7529907805663
 20
198.8639148835405
 30
0.0
 10
284.9952621893
 20
198.5286657437266
 30
0.0
  0
ENDBLK
  5
321
330
31E
100
AcDbEntity
  8
0
100
AcDbBlockEnd
  0
BLOCK
  5
325
330
323
100
AcDbEntity
  8
0
100
AcDbBlockBegin
  2
block 150
 70
     0
 10
0.0
 20
0.0
 30
0.0
  3
block 150
  1

  0
SPLINE
  5
327
330
323
100
AcDbEntity
  8
0
 62
     7
420
 16777215
370
    25
100
AcDbSpline
210
0.0
220
0.0
230
1.0
 70
     8
 71
     3
 72
     8
 73
     4
 74
     0
 42
0.0000000001
 43
0.0000000001
 12
1.0
 22
0.0
 32
0.0
 13
1.0
 23
0.0
 33
0.0
 40
0.0
 40
0.0
 40
0.0
 40
0.0
 40
1.0
 40
1.0
 40
1.0
 40
1.0
 10
284.5694467126105
 20
199.8291776310537
 30
0.0
 10
284.5100565262046
 20
199.7566061340133
 30
0.0
 10
284.4515862150271
 20
199.6832866828657
 30
0.0
 10
284.3940497966803
 20
199.6092368551289
 30
0.0
  0
ENDBLK
  5
326
330
323
100
AcDbEntity
  8
0
100
AcDbBlockEnd
  0
BLOCK
  5
32A
330
328
100
AcDbEntity
  8
0
100
AcDbBlockBegin
  2
block 151
 70
     0
 10
0.0
 20
0.0
 30
0.0
  3
block 151
  1

  0
SPLINE
  5
32C
330
328
100
AcDbEntity
  8
0
 62
     7
420
 16777215
370
    25
100
AcDbSpline
210
0.0
220
0.0
230
1.0
 70
     8
 71
     3
 72
     8
 73
     4
 74
     0
 42
0.0000000001
 43
0.0000000001
 12
1.0
 22
0.0
 32
0.0
 13
1.0
 23
0.0
 33
0.0
 40
0.0
 40
0.0
 40
0.0
 40
0.0
 40
1.0
 40
1.0
 40
1.0
 40
1.0
 10
285.7567079933144
 20
199.4834885812896
 30
0.0
 10
285.3759537892296
 20
199.6450857882904
 30
0.0
 10
284.9774364171545
 20
199.7611201388687
 30
0.0
 10
284.5694467126336
 20
199.8291776310629
 30
0.0
  0
ENDBLK
  5
32B
330
328
100
AcDbEntity
  8
0
100
AcDbBlockEnd
  0
BLOCK
  5
32F
330
32D
100
AcDbEntity
  8
0
100
AcDbBlockBegin
  2
block 152
 70
     0
 10
0.0
 20
0.0
 30
0.0
  3
block 152
  1

  0
SPLINE
  5
331
330
32D
100
AcDbEntity
  8
0
 62
     7
420
 16777215
370
    25
100
AcDbSpline
210
0.0
220
0.0
230
1.0
 70
     8
 71
     3
 72
     8
 73
     4
 74
     0
 42
0.0000000001
 43
0.0000000001
 12
1.0
 22
0.0
 32
0.0
 13
1.0
 23
0.0
 33
0.0
 40
0.0
 40
0.0
 40
0.0
 40
0.0
 40
1.0
 40
1.0
 40
1.0
 40
1.0
 10
285.9430504637915
 20
199.6843180018383
 30
0.0
 10
285.8800221792962
 20
199.6182288926015
 30
0.0
 10
285.8179021943639
 20
199.551279471221
 30
0.0
 10
285.7567079932797
 20
199.4834885812739
 30
0.0
  0
ENDBLK
  5
330
330
32D
100
AcDbEntity
  8
0
100
AcDbBlockEnd
  0
BLOCK
  5
334
330
332
100
AcDbEntity
  8
0
100
AcDbBlockBegin
  2
block 153
 70
     0
 10
0.0
 20
0.0
 30
0.0
  3
block 153
  1

  0
SPLINE
  5
336
330
332
100
AcDbEntity
  8
0
 62
     7
420
 16777215
370
    25
100
AcDbSpline
210
0.0
220
0.0
230
1.0
 70
     8
 71
     3
 72
     8
 73
     4
 74
     0
 42
0.0000000001
 43
0.0000000001
 12
1.0
 22
0.0
 32
0.0
 13
1.0
 23
0.0
 33
0.0
 40
0.0
 40
0.0
 40
0.0
 40
0.0
 40
1.0
 40
1.0
 40
1.0
 40
1.0
 10
285.5096038840953
 20
200.842426084081
 30
0.0
 10
285.607960182539
 20
200.4406631442862
 30
0.0
 10
285.7534513180495
 20
200.051931365491
 30
0.0
 10
285.9430504637876
 20
199.6843180017902
 30
0.0
  0
ENDBLK
  5
335
330
332
100
AcDbEntity
  8
0
100
AcDbBlockEnd
  0
BLOCK
  5
339
330
337
100
AcDbEntity
  8
0
100
AcDbBlockBegin
  2
block 154
 70
     0
 10
0.0
 20
0.0
 30
0.0
  3
block 154
  1

  0
SPLINE
  5
33B
330
337
100
AcDbEntity
  8
0
 62
     7
420
 16777215
370
    25
100
AcDbSpline
210
0.0
220
0.0
230
1.0
 70
     8
 71
     3
 72
     8
 73
     4
 74
     0
 42
0.0000000001
 43
0.0000000001
 12
1.0
 22
0.0
 32
0.0
 13
1.0
 23
0.0
 33
0.0
 40
0.0
 40
0.0
 40
0.0
 40
0.0
 40
1.0
 40
1.0
 40
1.0
 40
1.0
 10
285.7158222330688
 20
201.0337687494869
 30
0.0
 10
285.6462791655969
 20
200.9708594640785
 30
0.0
 10
285.5775342223315
 20
200.9070734783038
 30
0.0
 10
285.5096038841037
 20
200.842426084139
 30
0.0
  0
ENDBLK
  5
33A
330
337
100
AcDbEntity
  8
0
100
AcDbBlockEnd
  0
BLOCK
  5
33E
330
33C
100
AcDbEntity
  8
0
100
AcDbBlockBegin
  2
block 155
 70
     0
 10
0.0
 20
0.0
 30
0.0
  3
block 155
  1

  0
SPLINE
  5
340
330
33C
100
AcDbEntity
  8
0
 62
     7
420
 16777215
370
    25
100
AcDbSpline
210
0.0
220
0.0
230
1.0
 70
     8
 71
     3
 72
     8
 73
     4
 74
     0
 42
0.0000000001
 43
0.0000000001
 12
1.0
 22
0.0
 32
0.0
 13
1.0
 23
0.0
 33
0.0
 40
0.0
 40
0.0
 40
0.0
 40
0.0
 40
1.0
 40
1.0
 40
1.0
 40
1.0
 10
286.8383005068271
 20
200.5149886489838
 30
0.0
 10
286.4858838265549
 20
200.7315294181291
 30
0.0
 10
286.1091115868284
 20
200.9056636931255
 30
0.0
 10
285.7158222330855
 20
201.0337687495004
 30
0.0
  0
ENDBLK
  5
33F
330
33C
100
AcDbEntity
  8
0
100
AcDbBlockEnd
  0
BLOCK
  5
343
330
341
100
AcDbEntity
  8
0
100
AcDbBlockBegin
  2
block 156
 70
     0
 10
0.0
 20
0.0
 30
0.0
  3
block 156
  1

  0
SPLINE
  5
345
330
341
100
AcDbEntity
  8
0
 62
     7
420
 16777215
370
    25
100
AcDbSpline
210
0.0
220
0.0
230
1.0
 70
     8
 71
     3
 72
     8
 73
     4
 74
     0
 42
0.0000000001
 43
0.0000000001
 12
1.0
 22
0.0
 32
0.0
 13
1.0
 23
0.0
 33
0.0
 40
0.0
 40
0.0
 40
0.0
 40
0.0
 40
1.0
 40
1.0
 40
1.0
 40
1.0
 10
287.0524937578537
 20
200.6858020667503
 30
0.0
 10
286.9803193766097
 20
200.6298449966137
 30
0.0
 10
286.9089149271026
 20
200.5729018482841
 30
0.0
 10
286.8383005068206
 20
200.5149886489736
 30
0.0
  0
ENDBLK
  5
344
330
341
100
AcDbEntity
  8
0
100
AcDbBlockEnd
  0
BLOCK
  5
348
330
346
100
AcDbEntity
  8
0
100
AcDbBlockBegin
  2
block 157
 70
     0
 10
0.0
 20
0.0
 30
0.0
  3
block 157
  1

  0
SPLINE
  5
34A
330
346
100
AcDbEntity
  8
0
 62
     7
420
 16777215
370
    25
100
AcDbSpline
210
0.0
220
0.0
230
1.0
 70
     8
 71
     3
 72
     8
 73
     4
 74
     0
 42
0.0000000001
 43
0.0000000001
 12
1.0
 22
0.0
 32
0.0
 13
1.0
 23
0.0
 33
0.0
 40
0.0
 40
0.0
 40
0.0
 40
0.0
 40
1.0
 40
1.0
 40
1.0
 40
1.0
 10
286.7964954713667
 20
201.8955768991545
 30
0.0
 10
286.8338735522079
 20
201.4836420738349
 30
0.0
 10
286.9198022066977
 20
201.077567779281
 30
0.0
 10
287.0524937578274
 20
200.6858020667724
 30
0.0
  0
ENDBLK
  5
349
330
346
100
AcDbEntity
  8
0
100
AcDbBlockEnd
  0
BLOCK
  5
34D
330
34B
100
AcDbEntity
  8
0
100
AcDbBlockBegin
  2
block 158
 70
     0
 10
0.0
 20
0.0
 30
0.0
  3
block 158
  1

  0
SPLINE
  5
34F
330
34B
100
AcDbEntity
  8
0
 62
     7
420
 16777215
370
    25
100
AcDbSpline
210
0.0
220
0.0
230
1.0
 70
     8
 71
     3
 72
     8
 73
     4
 74
     0
 42
0.0000000001
 43
0.0000000001
 12
1.0
 22
0.0
 32
0.0
 13
1.0
 23
0.0
 33
0.0
 40
0.0
 40
0.0
 40
0.0
 40
0.0
 40
1.0
 40
1.0
 40
1.0
 40
1.0
 10
287.0289286762339
 20
202.0540471749331
 30
0.0
 10
286.9507862049072
 20
202.0022053906386
 30
0.0
 10
286.8733022779891
 20
201.9493777437557
 30
0.0
 10
286.7964954713846
 20
201.8955768991218
 30
0.0
  0
ENDBLK
  5
34E
330
34B
100
AcDbEntity
  8
0
100
AcDbBlockEnd
  0
BLOCK
  5
352
330
350
100
AcDbEntity
  8
0
100
AcDbBlockBegin
  2
block 159
 70
     0
 10
0.0
 20
0.0
 30
0.0
  3
block 159
  1

  0
SPLINE
  5
354
330
350
100
AcDbEntity
  8
0
 62
     7
420
 16777215
370
    25
100
AcDbSpline
210
0.0
220
0.0
230
1.0
 70
     8
 71
     3
 72
     8
 73
     4
 74
     0
 42
0.0000000001
 43
0.0000000001
 12
1.0
 22
0.0
 32
0.0
 13
1.0
 23
0.0
 33
0.0
 40
0.0
 40
0.0
 40
0.0
 40
0.0
 40
1.0
 40
1.0
 40
1.0
 40
1.0
 10
288.0615496332768
 20
201.3737647138861
 30
0.0
 10
287.7453428831004
 20
201.6404118822175
 30
0.0
 10
287.3987322449567
 20
201.8687562096771
 30
0.0
 10
287.0289286762602
 20
202.0540471749607
 30
0.0
  0
ENDBLK
  5
353
330
350
100
AcDbEntity
  8
0
100
AcDbBlockEnd
  0
BLOCK
  5
357
330
355
100
AcDbEntity
  8
0
100
AcDbBlockBegin
  2
block 160
 70
     0
 10
0.0
 20
0.0
 30
0.0
  3
block 160
  1

  0
SPLINE
  5
359
330
355
100
AcDbEntity
  8
0
 62
     7
420
 16777215
370
    25
100
AcDbSpline
210
0.0
220
0.0
230
1.0
 70
     8
 71
     3
 72
     8
 73
     4
 74
     0
 42
0.0000000001
 43
0.0000000001
 12
1.0
 22
0.0
 32
0.0
 13
1.0
 23
0.0
 33
0.0
 40
0.0
 40
0.0
 40
0.0
 40
0.0
 40
1.0
 40
1.0
 40
1.0
 40
1.0
 10
288.2988089415302
 20
201.5107464393577
 30
0.0
 10
288.2191007199514
 20
201.4661713968018
 30
0.0
 10
288.1400068632783
 20
201.4205065373606
 30
0.0
 10
288.0615496332608
 20
201.3737647138607
 30
0.0
  0
ENDBLK
  5
358
330
355
100
AcDbEntity
  8
0
100
AcDbBlockEnd
  0
BLOCK
  5
35C
330
35A
100
AcDbEntity
  8
0
100
AcDbBlockBegin
  2
block 161
 70
     0
 10
0.0
 20
0.0
 30
0.0
  3
block 161
  1

  0
SPLINE
  5
35E
330
35A
100
AcDbEntity
  8
0
 62
     7
420
 16777215
370
    25
100
AcDbSpline
210
0.0
220
0.0
230
1.0
 70
     8
 71
     3
 72
     8
 73
     4
 74
     0
 42
0.0000000001
 43
0.0000000001
 12
1.0
 22
0.0
 32
0.0
 13
1.0
 23
0.0
 33
0.0
 40
0.0
 40
0.0
 40
0.0
 40
0.0
 40
1.0
 40
1.0
 40
1.0
 40
1.0
 10
288.2259775270371
 20
202.7451636511362
 30
0.0
 10
288.2015424257156
 20
202.3322588835937
 30
0.0
 10
288.2259890950343
 20
201.9179131020093
 30
0.0
 10
288.298808941568
 20
201.510746439343
 30
0.0
  0
ENDBLK
  5
35D
330
35A
100
AcDbEntity
  8
0
100
AcDbBlockEnd
  0
BLOCK
  5
361
330
35F
100
AcDbEntity
  8
0
100
AcDbBlockBegin
  2
block 162
 70
     0
 10
0.0
 20
0.0
 30
0.0
  3
block 162
  1

  0
SPLINE
  5
363
330
35F
100
AcDbEntity
  8
0
 62
     7
420
 16777215
370
    25
100
AcDbSpline
210
0.0
220
0.0
230
1.0
 70
     8
 71
     3
 72
     8
 73
     4
 74
     0
 42
0.0000000001
 43
0.0000000001
 12
1.0
 22
0.0
 32
0.0
 13
1.0
 23
0.0
 33
0.0
 40
0.0
 40
0.0
 40
0.0
 40
0.0
 40
1.0
 40
1.0
 40
1.0
 40
1.0
 10
288.4794334140273
 20
202.8672215733363
 30
0.0
 10
288.3944371125274
 20
202.8276053499505
 30
0.0
 10
288.3099450648456
 20
202.7869161242958
 30
0.0
 10
288.2259775270057
 20
202.7451636511593
 30
0.0
  0
ENDBLK
  5
362
330
35F
100
AcDbEntity
  8
0
100
AcDbBlockEnd
  0
BLOCK
  5
366
330
364
100
AcDbEntity
  8
0
100
AcDbBlockBegin
  2
block 163
 70
     0
 10
0.0
 20
0.0
 30
0.0
  3
block 163
  1

  0
SPLINE
  5
368
330
364
100
AcDbEntity
  8
0
 62
     7
420
 16777215
370
    25
100
AcDbSpline
210
0.0
220
0.0
230
1.0
 70
     8
 71
     3
 72
     8
 73
     4
 74
     0
 42
0.0000000001
 43
0.0000000001
 12
1.0
 22
0.0
 32
0.0
 13
1.0
 23
0.0
 33
0.0
 40
0.0
 40
0.0
 40
0.0
 40
0.0
 40
1.0
 40
1.0
 40
1.0
 40
1.0
 10
289.3991300085304
 20
202.0406331377804
 30
0.0
 10
289.1261967247319
 20
202.3514302481812
 30
0.0
 10
288.8174903970685
 20
202.6288837931592
 30
0.0
 10
288.4794334140587
 20
202.8672215733722
 30
0.0
  0
ENDBLK
  5
367
330
364
100
AcDbEntity
  8
0
100
AcDbBlockEnd
  0
BLOCK
  5
36B
330
369
100
AcDbEntity
  8
0
100
AcDbBlockBegin
  2
block 164
 70
     0
 10
0.0
 20
0.0
 30
0.0
  3
block 164
  1

  0
SPLINE
  5
36D
330
369
100
AcDbEntity
  8
0
 62
     7
420
 16777215
370
    25
100
AcDbSpline
210
0.0
220
0.0
230
1.0
 70
     8
 71
     3
 72
     8
 73
     4
 74
     0
 42
0.0000000001
 43
0.0000000001
 12
1.0
 22
0.0
 32
0.0
 13
1.0
 23
0.0
 33
0.0
 40
0.0
 40
0.0
 40
0.0
 40
0.0
 40
1.0
 40
1.0
 40
1.0
 40
1.0
 10
289.6541553931044
 20
202.1407232255685
 30
0.0
 10
289.5686938811458
 20
202.108525943386
 30
0.0
 10
289.4836774433675
 20
202.0751594503344
 30
0.0
 10
289.3991300084861
 20
202.0406331377432
 30
0.0
  0
ENDBLK
  5
36C
330
369
100
AcDbEntity
  8
0
100
AcDbBlockEnd
  0
BLOCK
  5
370
330
36E
100
AcDbEntity
  8
0
100
AcDbBlockBegin
  2
block 165
 70
     0
 10
0.0
 20
0.0
 30
0.0
  3
block 165
  1

  0
SPLINE
  5
372
330
36E
100
AcDbEntity
  8
0
 62
     7
420
 16777215
370
    25
100
AcDbSpline
210
0.0
220
0.0
230
1.0
 70
     8
 71
     3
 72
     8
 73
     4
 74
     0
 42
0.0000000001
 43
0.0000000001
 12
1.0
 22
0.0
 32
0.0
 13
1.0
 23
0.0
 33
0.0
 40
0.0
 40
0.0
 40
0.0
 40
0.0
 40
1.0
 40
1.0
 40
1.0
 40
1.0
 10
289.7661177839731
 20
203.3722079761258
 30
0.0
 10
289.6804153402759
 20
202.9675568765593
 30
0.0
 10
289.6428339262287
 20
202.5541954080167
 30
0.0
 10
289.6541553931275
 20
202.1407232256109
 30
0.0
  0
ENDBLK
  5
371
330
36E
100
AcDbEntity
  8
0
100
AcDbBlockEnd
  0
BLOCK
  5
375
330
373
100
AcDbEntity
  8
0
100
AcDbBlockBegin
  2
block 166
 70
     0
 10
0.0
 20
0.0
 30
0.0
  3
block 166
  1

  0
SPLINE
  5
377
330
373
100
AcDbEntity
  8
0
 62
     7
420
 16777215
370
    25
100
AcDbSpline
210
0.0
220
0.0
230
1.0
 70
     8
 71
     3
 72
     8
 73
     4
 74
     0
 42
0.0000000001
 43
0.0000000001
 12
1.0
 22
0.0
 32
0.0
 13
1.0
 23
0.0
 33
0.0
 40
0.0
 40
0.0
 40
0.0
 40
0.0
 40
1.0
 40
1.0
 40
1.0
 40
1.0
 10
290.0349345674596
 20
203.4551269723466
 30
0.0
 10
289.944983112711
 20
203.4286212708361
 30
0.0
 10
289.8553703569916
 20
203.4009793964741
 30
0.0
 10
289.7661177839577
 20
203.3722079760902
 30
0.0
  0
ENDBLK
  5
376
330
373
100
AcDbEntity
  8
0
100
AcDbBlockEnd
  0
BLOCK
  5
37A
330
378
100
AcDbEntity
  8
0
100
AcDbBlockBegin
  2
block 167
 70
     0
 10
0.0
 20
0.0
 30
0.0
  3
block 167
  1

  0
SPLINE
  5
37C
330
378
100
AcDbEntity
  8
0
 62
     7
420
 16777215
370
    25
100
AcDbSpline
210
0.0
220
0.0
230
1.0
 70
     8
 71
     3
 72
     8
 73
     4
 74
     0
 42
0.0000000001
 43
0.0000000001
 12
1.0
 22
0.0
 32
0.0
 13
1.0
 23
0.0
 33
0.0
 40
0.0
 40
0.0
 40
0.0
 40
0.0
 40
1.0
 40
1.0
 40
1.0
 40
1.0
 10
290.8211622972266
 20
202.5006971819681
 30
0.0
 10
290.5975993583598
 20
202.8487015405635
 30
0.0
 10
290.3336933304204
 20
203.1690664493385
 30
0.0
 10
290.0349345674808
 20
203.4551269723103
 30
0.0
  0
ENDBLK
  5
37B
330
378
100
AcDbEntity
  8
0
100
AcDbBlockEnd
  0
BLOCK
  5
37F
330
37D
100
AcDbEntity
  8
0
100
AcDbBlockBegin
  2
block 168
 70
     0
 10
0.0
 20
0.0
 30
0.0
  3
block 168
  1

  0
SPLINE
  5
381
330
37D
100
AcDbEntity
  8
0
 62
     7
420
 16777215
370
    25
100
AcDbSpline
210
0.0
220
0.0
230
1.0
 70
     8
 71
     3
 72
     8
 73
     4
 74
     0
 42
0.0000000001
 43
0.0000000001
 12
1.0
 22
0.0
 32
0.0
 13
1.0
 23
0.0
 33
0.0
 40
0.0
 40
0.0
 40
0.0
 40
0.0
 40
1.0
 40
1.0
 40
1.0
 40
1.0
 10
291.0882569125077
 20
202.5616597849877
 30
0.0
 10
290.9989511791267
 20
202.5425594972584
 30
0.0
 10
290.9099112869761
 20
202.5222367229149
 30
0.0
 10
290.8211622972163
 20
202.500697182003
 30
0.0
  0
ENDBLK
  5
380
330
37D
100
AcDbEntity
  8
0
100
AcDbBlockEnd
  0
BLOCK
  5
384
330
382
100
AcDbEntity
  8
0
100
AcDbBlockBegin
  2
block 169
 70
     0
 10
0.0
 20
0.0
 30
0.0
  3
block 169
  1

  0
SPLINE
  5
386
330
382
100
AcDbEntity
  8
0
 62
     7
420
 16777215
370
    25
100
AcDbSpline
210
0.0
220
0.0
230
1.0
 70
     8
 71
     3
 72
     8
 73
     4
 74
     0
 42
0.0000000001
 43
0.0000000001
 12
1.0
 22
0.0
 32
0.0
 13
1.0
 23
0.0
 33
0.0
 40
0.0
 40
0.0
 40
0.0
 40
0.0
 40
1.0
 40
1.0
 40
1.0
 40
1.0
 10
291.3825120539632
 20
203.7627027398929
 30
0.0
 10
291.2374567188608
 20
203.3753445451985
 30
0.0
 10
291.1386867281356
 20
202.9722012018425
 30
0.0
 10
291.088256912536
 20
202.561659785007
 30
0.0
  0
ENDBLK
  5
385
330
382
100
AcDbEntity
  8
0
100
AcDbBlockEnd
  0
BLOCK
  5
389
330
387
100
AcDbEntity
  8
0
100
AcDbBlockBegin
  2
block 170
 70
     0
 10
0.0
 20
0.0
 30
0.0
  3
block 170
  1

  0
SPLINE
  5
38B
330
387
100
AcDbEntity
  8
0
 62
     7
420
 16777215
370
    25
100
AcDbSpline
210
0.0
220
0.0
230
1.0
 70
     8
 71
     3
 72
     8
 73
     4
 74
     0
 42
0.0000000001
 43
0.0000000001
 12
1.0
 22
0.0
 32
0.0
 13
1.0
 23
0.0
 33
0.0
 40
0.0
 40
0.0
 40
0.0
 40
0.0
 40
1.0
 40
1.0
 40
1.0
 40
1.0
 10
291.6606848111674
 20
203.8046305368458
 30
0.0
 10
291.5677875700285
 20
203.7918274507833
 30
0.0
 10
291.4750559071538
 20
203.7778504015098
 30
0.0
 10
291.3825120539234
 20
203.7627027398672
 30
0.0
  0
ENDBLK
  5
38A
330
387
100
AcDbEntity
  8
0
100
AcDbBlockEnd
  0
ENDSEC
  0
SECTION
  2
ENTITIES
  0
INSERT
  5
41
330
1F
100
AcDbEntity
  8
0
100
AcDbBlockReference
  2
block 2
 10
0.0
 20
0.0
 30
0.0
  0
SPLINE
  5
38C
330
1F
100
AcDbEntity
  8
0
 62
     7
420
 16777215
370
    25
100
AcDbSpline
210
0.0
220
0.0
230
1.0
 70
    11
 71
     3
 72
    17
 73
    13
 74
     0
 42
0.0000000001
 43
0.0000000001
 12
1.0
 22
0.0
 32
0.0
 13
1.0
 23
0.0
 33
0.0
 40
0.0
 40
0.0
 40
0.0
 40
0.0
 40
1.0
 40
1.0
 40
1.0
 40
2.0
 40
2.0
 40
2.0
 40
3.0
 40
3.0
 40
3.0
 40
4.0
 40
4.0
 40
4.0
 40
4.0
 10
305.6797101624564
 20
192.7828140816191
 30
0.0
 10
305.6797101624564
 20
185.8792547108453
 30
0.0
 10
300.0832695363555
 20
180.2828140847437
 30
0.0
 10
293.1797101655814
 20
180.2828140847437
 30
0.0
 10
286.2761507948072
 20
180.2828140847437
 30
0.0
 10
280.6797101687063
 20
185.8792547108453
 30
0.0
 10
280.6797101687063
 20
192.7828140816191
 30
0.0
 10
280.6797101687063
 20
199.6863734523932
 30
0.0
 10
286.2761507948072
 20
205.2828140784941
 30
0.0
 10
293.1797101655814
 20
205.2828140784941
 30
0.0
 10
300.0832695363555
 20
205.2828140784941
 30
0.0
 10
305.6797101624564
 20
199.6863734523932
 30
0.0
 10
305.6797101624564
 20
192.7828140816191
 30
0.0
  0
ENDSEC
  0
SECTION
  2
OBJECTS
  0
DICTIONARY
  5
C
330
0
100
AcDbDictionary
281
     1
  3
ACAD_GROUP
350
D
  3
ACAD_LAYOUT
350
1A
  3
ACAD_MATERIAL
350
3B
  3
ACAD_MLEADERSTYLE
350
38E
  3
ACAD_MLINESTYLE
350
17
  3
ACAD_PLOTSETTINGS
350
19
  3
ACAD_PLOTSTYLENAME
350
E
  3
ACAD_TABLESTYLE
350
38D
  3
ACAD_VISUALSTYLE
350
2A
  0
SUN
  5
3F
330
29
100
AcDbSun
 90
        1
290
     0
 63
     7
421
 16777215
 40
1.0
291
     1
 91
  2455826
 92
 54000000
292
     0
 70
     2
 71
   256
280
     1
  0
DICTIONARY
  5
D
102
{ACAD_REACTORS
330
C
102
}
330
C
100
AcDbDictionary
281
     1
  0
DICTIONARY
  5
1A
102
{ACAD_REACTORS
330
C
102
}
330
C
100
AcDbDictionary
281
     1
  3
Layout1
350
1E
  3
Layout2
350
26
  3
Model
350
22
  0
DICTIONARY
  5
3B
102
{ACAD_REACTORS
330
C
102
}
330
C
100
AcDbDictionary
281
     1
  3
ByBlock
350
3D
  3
ByLayer
350
3C
  3
Global
350
3E
  0
DICTIONARY
  5
38E
102
{ACAD_REACTORS
330
C
102
}
330
C
100
AcDbDictionary
281
     1
  0
DICTIONARY
  5
17
102
{ACAD_REACTORS
330
C
102
}
330
C
100
AcDbDictionary
281
     1
  3
Standard
350
18
  0
DICTIONARY
  5
19
102
{ACAD_REACTORS
330
C
102
}
330
C
100
AcDbDictionary
281
     1
  0
ACDBDICTIONARYWDFLT
  5
E
102
{ACAD_REACTORS
330
C
102
}
330
C
100
AcDbDictionary
281
     1
  3
Normal
350
F
100
AcDbDictionaryWithDefault
340
F
  0
DICTIONARY
  5
38D
102
{ACAD_REACTORS
330
C
102
}
330
C
100
AcDbDictionary
281
     1
  0
DICTIONARY
  5
2A
102
{ACAD_REACTORS
330
C
102
}
330
C
100
AcDbDictionary
281
     1
  3
2dWireframe
350
2F
  3
3D Hidden
350
31
  3
3dWireframe
350
30
  3
Basic
350
32
  3
Brighten
350
36
  3
ColorChange
350
3A
  3
Conceptual
350
34
  3
Dim
350
35
  3
Facepattern
350
39
  3
Flat
350
2B
  3
FlatWithEdges
350
2C
  3
Gouraud
350
2D
  3
GouraudWithEdges
350
2E
  3
Linepattern
350
38
  3
Realistic
350
33
  3
Thicken
350
37
  0
LAYOUT
  5
1E
102
{ACAD_REACTORS
330
1A
102
}
330
1A
100
AcDbPlotSettings
  1

  2
none_device
  4

  6

 40
0.0
 41
0.0
 42
0.0
 43
0.0
 44
0.0
 45
0.0
 46
0.0
 47
0.0
 48
0.0
 49
0.0
140
0.0
141
0.0
142
1.0
143
1.0
 70
   688
 72
     0
 73
     0
 74
     5
  7

 75
    16
 76
     0
 77
     2
 78
   300
147
1.0
148
0.0
149
0.0
100
AcDbLayout
  1
Layout1
 70
     1
 71
     1
 10
0.0
 20
0.0
 11
12.0
 21
9.0
 12
0.0
 22
0.0
 32
0.0
 14
1.000000000000000E+20
 24
1.000000000000000E+20
 34
1.000000000000000E+20
 15
-1.000000000000000E+20
 25
-1.000000000000000E+20
 35
-1.000000000000000E+20
146
0.0
 13
0.0
 23
0.0
 33
0.0
 16
1.0
 26
0.0
 36
0.0
 17
0.0
 27
1.0
 37
0.0
 76
     0
330
1B
  0
LAYOUT
  5
26
102
{ACAD_REACTORS
330
1A
102
}
330
1A
100
AcDbPlotSettings
  1

  2
none_device
  4

  6

 40
0.0
 41
0.0
 42
0.0
 43
0.0
 44
0.0
 45
0.0
 46
0.0
 47
0.0
 48
0.0
 49
0.0
140
0.0
141
0.0
142
1.0
143
1.0
 70
   688
 72
     0
 73
     0
 74
     5
  7

 75
    16
 76
     0
 77
     2
 78
   300
147
1.0
148
0.0
149
0.0
100
AcDbLayout
  1
Layout2
 70
     1
 71
     2
 10
0.0
 20
0.0
 11
0.0
 21
0.0
 12
0.0
 22
0.0
 32
0.0
 14
0.0
 24
0.0
 34
0.0
 15
0.0
 25
0.0
 35
0.0
146
0.0
 13
0.0
 23
0.0
 33
0.0
 16
1.0
 26
0.0
 36
0.0
 17
0.0
 27
1.0
 37
0.0
 76
     0
330
23
  0
LAYOUT
  5
22
102
{ACAD_REACTORS
330
1A
102
}
330
1A
100
AcDbPlotSettings
  1

  2
none_device
  4

  6

 40
0.0
 41
0.0
 42
0.0
 43
0.0
 44
0.0
 45
0.0
 46
0.0
 47
0.0
 48
0.0
 49
0.0
140
0.0
141
0.0
142
1.0
143
1.0
 70
  1712
 72
     0
 73
     0
 74
     0
  7

 75
     0
 76
     0
 77
     2
 78
   300
147
1.0
148
0.0
149
0.0
100
AcDbLayout
  1
Model
 70
     1
 71
     0
 10
0.0
 20
0.0
 11
12.0
 21
9.0
 12
0.0
 22
0.0
 32
0.0
 14
1.000000000000000E+20
 24
1.000000000000000E+20
 34
1.000000000000000E+20
 15
-1.000000000000000E+20
 25
-1.000000000000000E+20
 35
-1.000000000000000E+20
146
0.0
 13
0.0
 23
0.0
 33
0.0
 16
1.0
 26
0.0
 36
0.0
 17
0.0
 27
1.0
 37
0.0
 76
     0
330
1F
331
29
  0
MATERIAL
  5
3D
102
{ACAD_REACTORS
330
3B
102
}
330
3B
100
AcDbMaterial
  1
ByBlock
 72
     1
 94
      127
  0
MATERIAL
  5
3C
102
{ACAD_REACTORS
330
3B
102
}
330
3B
100
AcDbMaterial
  1
ByLayer
 72
     1
 94
      127
  0
MATERIAL
  5
3E
102
{ACAD_REACTORS
330
3B
102
}
330
3B
100
AcDbMaterial
  1
Global
 72
     1
 94
      127
  0
MLINESTYLE
  5
18
102
{ACAD_REACTORS
330
17
102
}
330
17
100
AcDbMlineStyle
  2
Standard
 70
     0
  3

 62
   256
 51
90.0
 52
90.0
 71
     2
 49
0.5
 62
   256
  6
BYLAYER
 49
-0.5
 62
   256
  6
BYLAYER
  0
ACDBPLACEHOLDER
  5
F
102
{ACAD_REACTORS
330
E
102
}
330
E
  0
VISUALSTYLE
  5
2F
102
{ACAD_REACTORS
330
2A
102
}
330
2A
100
AcDbVisualStyle
  2
2dWireframe
 70
     4
177
     2
291
     0
 71
     0
176
     1
 72
     2
176
     1
 73
     0
176
     1
 90
        0
176
     1
 40
-0.6
176
     1
 41
-30.0
176
     1
 62
     5
 63
     7
421
 16777215
176
     1
 74
     1
176
     1
 91
        4
176
     1
 64
     7
176
     1
 65
   257
176
     1
 75
     1
176
     1
175
     1
176
     1
 42
1.0
176
     1
 92
        0
176
     1
 66
   257
176
     1
 43
1.0
176
     1
 76
     1
176
     1
 77
     6
176
     1
 78
     2
176
     1
 67
     7
176
     1
 79
     5
176
     1
170
     0
176
     1
171
     0
176
     1
290
     0
176
     1
 93
        1
176
     1
 44
0.0
176
     1
173
     0
176
     1
  0
VISUALSTYLE
  5
31
102
{ACAD_REACTORS
330
2A
102
}
330
2A
100
AcDbVisualStyle
  2
3D Hidden
 70
     6
177
     2
291
     0
 71
     1
176
     1
 72
     2
176
     1
 73
     2
176
     1
 90
        0
176
     1
 40
-0.6
176
     1
 41
-30.0
176
     1
 62
     5
 63
     7
421
 16777215
176
     1
 74
     2
176
     1
 91
        2
176
     1
 64
     7
176
     1
 65
   257
176
     1
 75
     2
176
     1
175
     1
176
     1
 42
40.0
176
     1
 92
        0
176
     1
 66
   257
176
     1
 43
1.0
176
     1
 76
     1
176
     1
 77
     6
176
     1
 78
     2
176
     1
 67
     7
176
     1
 79
     3
176
     1
170
     0
176
     1
171
     0
176
     1
290
     0
176
     1
 93
        1
176
     1
 44
0.0
176
     1
173
     0
176
     1
  0
VISUALSTYLE
  5
30
102
{ACAD_REACTORS
330
2A
102
}
330
2A
100
AcDbVisualStyle
  2
3dWireframe
 70
     5
177
     2
291
     0
 71
     0
176
     1
 72
     2
176
     1
 73
     0
176
     1
 90
        0
176
     1
 40
-0.6
176
     1
 41
-30.0
176
     1
 62
     5
 63
     7
421
 16777215
176
     1
 74
     1
176
     1
 91
        4
176
     1
 64
     7
176
     1
 65
   257
176
     1
 75
     1
176
     1
175
     1
176
     1
 42
1.0
176
     1
 92
        0
176
     1
 66
   257
176
     1
 43
1.0
176
     1
 76
     1
176
     1
 77
     6
176
     1
 78
     2
176
     1
 67
     7
176
     1
 79
     5
176
     1
170
     0
176
     1
171
     0
176
     1
290
     0
176
     1
 93
        1
176
     1
 44
0.0
176
     1
173
     0
176
     1
  0
VISUALSTYLE
  5
32
102
{ACAD_REACTORS
330
2A
102
}
330
2A
100
AcDbVisualStyle
  2
Basic
 70
     7
177
     2
291
     1
 71
     1
176
     1
 72
     0
176
     1
 73
     1
176
     1
 90
        0
176
     1
 40
-0.6
176
     1
 41
-30.0
176
     1
 62
     5
 63
     7
421
 16777215
176
     1
 74
     0
176
     1
 91
        4
176
     1
 64
     7
176
     1
 65
   257
176
     1
 75
     1
176
     1
175
     1
176
     1
 42
1.0
176
     1
 92
        8
176
     1
 66
     7
176
     1
 43
1.0
176
     1
 76
     1
176
     1
 77
     6
176
     1
 78
     2
176
     1
 67
     7
176
     1
 79
     5
176
     1
170
     0
176
     1
171
     0
176
     1
290
     0
176
     1
 93
        1
176
     1
 44
0.0
176
     1
173
     0
176
     1
  0
VISUALSTYLE
  5
36
102
{ACAD_REACTORS
330
2A
102
}
330
2A
100
AcDbVisualStyle
  2
Brighten
 70
    12
177
     2
291
     1
 71
     2
176
     1
 72
     2
176
     1
 73
     0
176
     1
 90
        0
176
     1
 40
-0.6
176
     1
 41
-30.0
176
     1
 62
     5
 63
     7
421
 16777215
176
     1
 74
     1
176
     1
 91
        4
176
     1
 64
     7
176
     1
 65
   257
176
     1
 75
     1
176
     1
175
     1
176
     1
 42
1.0
176
     1
 92
        8
176
     1
 66
     7
176
     1
 43
1.0
176
     1
 76
     1
176
     1
 77
     6
176
     1
 78
     2
176
     1
 67
     7
176
     1
 79
     5
176
     1
170
     0
176
     1
171
     0
176
     1
290
     0
176
     1
 93
        1
176
     1
 44
50.0
176
     1
173
     0
176
     1
  0
VISUALSTYLE
  5
3A
102
{ACAD_REACTORS
330
2A
102
}
330
2A
100
AcDbVisualStyle
  2
ColorChange
 70
    16
177
     2
291
     1
 71
     2
176
     1
 72
     2
176
     1
 73
     3
176
     1
 90
        0
176
     1
 40
-0.6
176
     1
 41
-30.0
176
     1
 62
     5
 63
     8
421
  8421504
176
     1
 74
     1
176
     1
 91
        4
176
     1
 64
     7
176
     1
 65
   257
176
     1
 75
     1
176
     1
175
     1
176
     1
 42
1.0
176
     1
 92
        8
176
     1
 66
     8
424
  8421504
176
     1
 43
1.0
176
     1
 76
     1
176
     1
 77
     6
176
     1
 78
     2
176
     1
 67
     7
176
     1
 79
     5
176
     1
170
     0
176
     1
171
     0
176
     1
290
     0
176
     1
 93
        1
176
     1
 44
0.0
176
     1
173
     0
176
     1
  0
VISUALSTYLE
  5
34
102
{ACAD_REACTORS
330
2A
102
}
330
2A
100
AcDbVisualStyle
  2
Conceptual
 70
     9
177
     2
291
     0
 71
     3
176
     1
 72
     2
176
     1
 73
     0
176
     1
 90
        0
176
     1
 40
-0.6
176
     1
 41
-30.0
176
     1
 62
     5
 63
     7
421
 16777215
176
     1
 74
     2
176
     1
 91
        2
176
     1
 64
     7
176
     1
 65
   257
176
     1
 75
     1
176
     1
175
     1
176
     1
 42
40.0
176
     1
 92
        8
176
     1
 66
     7
176
     1
 43
1.0
176
     1
 76
     1
176
     1
 77
     6
176
     1
 78
     2
176
     1
 67
     7
176
     1
 79
     3
176
     1
170
     0
176
     1
171
     0
176
     1
290
     0
176
     1
 93
        1
176
     1
 44
0.0
176
     1
173
     0
176
     1
  0
VISUALSTYLE
  5
35
102
{ACAD_REACTORS
330
2A
102
}
330
2A
100
AcDbVisualStyle
  2
Dim
 70
    11
177
     2
291
     1
 71
     2
176
     1
 72
     2
176
     1
 73
     0
176
     1
 90
        0
176
     1
 40
-0.6
176
     1
 41
-30.0
176
     1
 62
     5
 63
     7
421
 16777215
176
     1
 74
     1
176
     1
 91
        4
176
     1
 64
     7
176
     1
 65
   257
176
     1
 75
     1
176
     1
175
     1
176
     1
 42
1.0
176
     1
 92
        8
176
     1
 66
     7
176
     1
 43
1.0
176
     1
 76
     1
176
     1
 77
     6
176
     1
 78
     2
176
     1
 67
     7
176
     1
 79
     5
176
     1
170
     0
176
     1
171
     0
176
     1
290
     0
176
     1
 93
        1
176
     1
 44
-50.0
176
     1
173
     0
176
     1
  0
VISUALSTYLE
  5
39
102
{ACAD_REACTORS
330
2A
102
}
330
2A
100
AcDbVisualStyle
  2
Facepattern
 70
    15
177
     2
291
     1
 71
     2
176
     1
 72
     2
176
     1
 73
     0
176
     1
 90
        0
176
     1
 40
-0.6
176
     1
 41
-30.0
176
     1
 62
     5
 63
     7
421
 16777215
176
     1
 74
     1
176
     1
 91
        4
176
     1
 64
     7
176
     1
 65
   257
176
     1
 75
     1
176
     1
175
     1
176
     1
 42
1.0
176
     1
 92
        8
176
     1
 66
     7
176
     1
 43
1.0
176
     1
 76
     1
176
     1
 77
     6
176
     1
 78
     2
176
     1
 67
     7
176
     1
 79
     5
176
     1
170
     0
176
     1
171
     0
176
     1
290
     0
176
     1
 93
        1
176
     1
 44
0.0
176
     1
173
     0
176
     1
  0
VISUALSTYLE
  5
2B
102
{ACAD_REACTORS
330
2A
102
}
330
2A
100
AcDbVisualStyle
  2
Flat
 70
     0
177
     2
291
     1
 71
     2
176
     1
 72
     1
176
     1
 73
     1
176
     1
 90
        2
176
     1
 40
-0.6
176
     1
 41
30.0
176
     1
 62
     5
 63
     7
421
 16777215
176
     1
 74
     0
176
     1
 91
        4
176
     1
 64
     7
176
     1
 65
   257
176
     1
 75
     1
176
     1
175
     1
176
     1
 42
1.0
176
     1
 92
        8
176
     1
 66
     7
176
     1
 43
1.0
176
     1
 76
     1
176
     1
 77
     6
176
     1
 78
     2
176
     1
 67
     7
176
     1
 79
     5
176
     1
170
     0
176
     1
171
     0
176
     1
290
     0
176
     1
 93
       13
176
     1
 44
0.0
176
     1
173
     0
176
     1
  0
VISUALSTYLE
  5
2C
102
{ACAD_REACTORS
330
2A
102
}
330
2A
100
AcDbVisualStyle
  2
FlatWithEdges
 70
     1
177
     2
291
     1
 71
     2
176
     1
 72
     1
176
     1
 73
     1
176
     1
 90
        2
176
     1
 40
-0.6
176
     1
 41
30.0
176
     1
 62
     5
 63
     7
421
 16777215
176
     1
 74
     1
176
     1
 91
        4
176
     1
 64
     7
176
     1
 65
   257
176
     1
 75
     1
176
     1
175
     1
176
     1
 42
1.0
176
     1
 92
        0
176
     1
 66
   257
176
     1
 43
1.0
176
     1
 76
     1
176
     1
 77
     6
176
     1
 78
     2
176
     1
 67
     7
176
     1
 79
     5
176
     1
170
     0
176
     1
171
     0
176
     1
290
     0
176
     1
 93
       13
176
     1
 44
0.0
176
     1
173
     0
176
     1
  0
VISUALSTYLE
  5
2D
102
{ACAD_REACTORS
330
2A
102
}
330
2A
100
AcDbVisualStyle
  2
Gouraud
 70
     2
177
     2
291
     1
 71
     2
176
     1
 72
     2
176
     1
 73
     1
176
     1
 90
        2
176
     1
 40
-0.6
176
     1
 41
30.0
176
     1
 62
     5
 63
     7
421
 16777215
176
     1
 74
     0
176
     1
 91
        4
176
     1
 64
     7
176
     1
 65
   257
176
     1
 75
     1
176
     1
175
     1
176
     1
 42
1.0
176
     1
 92
        0
176
     1
 66
     7
176
     1
 43
1.0
176
     1
 76
     1
176
     1
 77
     6
176
     1
 78
     2
176
     1
 67
     7
176
     1
 79
     5
176
     1
170
     0
176
     1
171
     0
176
     1
290
     0
176
     1
 93
       13
176
     1
 44
0.0
176
     1
173
     0
176
     1
  0
VISUALSTYLE
  5
2E
102
{ACAD_REACTORS
330
2A
102
}
330
2A
100
AcDbVisualStyle
  2
GouraudWithEdges
 70
     3
177
     2
291
     1
 71
     2
176
     1
 72
     2
176
     1
 73
     1
176
     1
 90
        2
176
     1
 40
-0.6
176
     1
 41
30.0
176
     1
 62
     5
 63
     7
421
 16777215
176
     1
 74
     1
176
     1
 91
        4
176
     1
 64
     7
176
     1
 65
   257
176
     1
 75
     1
176
     1
175
     1
176
     1
 42
1.0
176
     1
 92
        0
176
     1
 66
   257
176
     1
 43
1.0
176
     1
 76
     1
176
     1
 77
     6
176
     1
 78
     2
176
     1
 67
     7
176
     1
 79
     5
176
     1
170
     0
176
     1
171
     0
176
     1
290
     0
176
     1
 93
       13
176
     1
 44
0.0
176
     1
173
     0
176
     1
  0
VISUALSTYLE
  5
38
102
{ACAD_REACTORS
330
2A
102
}
330
2A
100
AcDbVisualStyle
  2
Linepattern
 70
    14
177
     2
291
     1
 71
     2
176
     1
 72
     2
176
     1
 73
     0
176
     1
 90
        0
176
     1
 40
-0.6
176
     1
 41
-30.0
176
     1
 62
     5
 63
     7
421
 16777215
176
     1
 74
     1
176
     1
 91
        4
176
     1
 64
     7
176
     1
 65
   257
176
     1
 75
     7
176
     1
175
     7
176
     1
 42
1.0
176
     1
 92
        8
176
     1
 66
     7
176
     1
 43
1.0
176
     1
 76
     1
176
     1
 77
     6
176
     1
 78
     2
176
     1
 67
     7
176
     1
 79
     5
176
     1
170
     0
176
     1
171
     0
176
     1
290
     0
176
     1
 93
        1
176
     1
 44
0.0
176
     1
173
     0
176
     1
  0
VISUALSTYLE
  5
33
102
{ACAD_REACTORS
330
2A
102
}
330
2A
100
AcDbVisualStyle
  2
Realistic
 70
     8
177
     2
291
     0
 71
     2
176
     1
 72
     2
176
     1
 73
     0
176
     1
 90
        0
176
     1
 40
-0.6
176
     1
 41
-30.0
176
     1
 62
     5
 63
     7
421
 16777215
176
     1
 74
     1
176
     1
 91
        0
176
     1
 64
     7
176
     1
 65
   257
176
     1
 75
     1
176
     1
175
     1
176
     1
 42
1.0
176
     1
 92
        8
176
     1
 66
     8
424
  7895160
176
     1
 43
1.0
176
     1
 76
     1
176
     1
 77
     6
176
     1
 78
     2
176
     1
 67
     7
176
     1
 79
     5
176
     1
170
     0
176
     1
171
     0
176
     1
290
     0
176
     1
 93
       13
176
     1
 44
0.0
176
     1
173
     0
176
     1
  0
VISUALSTYLE
  5
37
102
{ACAD_REACTORS
330
2A
102
}
330
2A
100
AcDbVisualStyle
  2
Thicken
 70
    13
177
     2
291
     1
 71
     2
176
     1
 72
     2
176
     1
 73
     0
176
     1
 90
        0
176
     1
 40
-0.6
176
     1
 41
-30.0
176
     1
 62
     5
 63
     7
421
 16777215
176
     1
 74
     1
176
     1
 91
        4
176
     1
 64
     7
176
     1
 65
   257
176
     1
 75
     1
176
     1
175
     1
176
     1
 42
1.0
176
     1
 92
       12
176
     1
 66
     7
176
     1
 43
1.0
176
     1
 76
     1
176
     1
 77
     6
176
     1
 78
     2
176
     1
 67
     7
176
     1
 79
     5
176
     1
170
     0
176
     1
171
     0
176
     1
290
     0
176
     1
 93
        1
176
     1
 44
0.0
176
     1
173
     0
176
     1
  0
ENDSEC
  0
EOF
